<svg width="362" height="267" viewBox="0 0 362 267" fill="none" xmlns="http://www.w3.org/2000/svg">
<path d="M362 98.8663H209.838V103.335H362V98.8663Z" fill="#E6E6E6"/>
<path d="M260.964 61.4957H222.417V100.085H260.964V61.4957Z" fill="#E6E6E6"/>
<path d="M253.255 69.2136H230.126V92.3671H253.255V69.2136Z" fill="#CCCCCC"/>
<path d="M318.583 61.4957H308.845V100.085H318.583V61.4957Z" fill="#E6E6E6"/>
<path d="M318.583 67.5887H308.845V72.057H318.583V67.5887Z" fill="#CCCCCC"/>
<path d="M318.583 87.0865H308.845V91.5548H318.583V87.0865Z" fill="#CCCCCC"/>
<path d="M303.57 61.4957H293.831V100.085H303.57V61.4957Z" fill="#E6E6E6"/>
<path d="M303.57 67.5887H293.831V72.057H303.57V67.5887Z" fill="#CCCCCC"/>
<path d="M303.57 87.0865H293.831V91.5548H303.57V87.0865Z" fill="#CCCCCC"/>
<path d="M326.974 61.3363L318.247 65.6617L335.35 100.244L344.077 95.919L326.974 61.3363Z" fill="#E6E6E6"/>
<path d="M329.674 66.7967L320.947 71.1222L322.927 75.1265L331.655 70.801L329.674 66.7967Z" fill="#CCCCCC"/>
<path d="M338.316 84.2701L329.589 88.5956L331.569 92.5999L340.296 88.2745L338.316 84.2701Z" fill="#CCCCCC"/>
<path d="M236.821 76.9855L241.726 85.4887L246.63 93.9919H236.821H227.013L231.917 85.4887L236.821 76.9855Z" fill="#E6E6E6"/>
<path d="M245.342 78.6104L250.246 87.1135L255.151 95.6167H245.342H235.534L240.438 87.1135L245.342 78.6104Z" fill="#E6E6E6"/>
<path d="M248.792 76.1192C250.36 76.1192 251.632 74.8461 251.632 73.2758C251.632 71.7054 250.36 70.4324 248.792 70.4324C247.223 70.4324 245.951 71.7054 245.951 73.2758C245.951 74.8461 247.223 76.1192 248.792 76.1192Z" fill="#E6E6E6"/>
<path d="M209.838 41.9982L362 41.9982V37.53L209.838 37.53V41.9982Z" fill="#E6E6E6"/>
<path d="M310.874 38.7485L349.421 38.7485V0.159496L310.874 0.159496V38.7485Z" fill="#E6E6E6"/>
<path d="M318.583 31.0308L341.712 31.0308V7.87734L318.583 7.87734V31.0308Z" fill="#CCCCCC"/>
<path d="M253.255 38.7485H262.993V0.159496H253.255V38.7485Z" fill="#E6E6E6"/>
<path d="M253.255 10.7208L262.993 10.7208V6.25263L253.255 6.25263V10.7208Z" fill="#CCCCCC"/>
<path d="M253.255 30.2184H262.993V25.7502H253.255V30.2184Z" fill="#CCCCCC"/>
<path d="M268.268 38.7485H278.007V0.159496H268.268V38.7485Z" fill="#E6E6E6"/>
<path d="M268.268 10.7208L278.007 10.7208V6.25263L268.268 6.25263V10.7208Z" fill="#CCCCCC"/>
<path d="M268.268 30.2184H278.007V25.7502H268.268V30.2184Z" fill="#CCCCCC"/>
<path d="M227.761 34.5828L236.488 38.9082L253.591 4.32548L244.864 2.447e-05L227.761 34.5828Z" fill="#E6E6E6"/>
<path d="M240.183 9.46483L248.911 13.7903L250.891 9.78597L242.164 5.46051L240.183 9.46483Z" fill="#CCCCCC"/>
<path d="M231.542 26.9382L240.269 31.2636L242.249 27.2593L233.522 22.9338L231.542 26.9382Z" fill="#CCCCCC"/>
<path d="M335.017 15.649L330.113 24.1522L325.209 32.6554H335.017H344.825L339.921 24.1522L335.017 15.649Z" fill="#E6E6E6"/>
<path d="M326.495 17.2739L321.591 25.7771L316.687 34.2802H326.495H336.304L331.4 25.7771L326.495 17.2739Z" fill="#E6E6E6"/>
<path d="M323.047 14.7828C324.615 14.7828 325.887 13.5098 325.887 11.9394C325.887 10.369 324.615 9.09601 323.047 9.09601C321.478 9.09601 320.206 10.369 320.206 11.9394C320.206 13.5098 321.478 14.7828 323.047 14.7828Z" fill="#E6E6E6"/>
<path d="M209.838 164.671L362 164.671V160.203L209.838 160.203V164.671Z" fill="#E6E6E6"/>
<path d="M310.874 161.421H349.421V122.832H310.874V161.421Z" fill="#E6E6E6"/>
<path d="M318.583 153.703H341.712V130.55H318.583V153.703Z" fill="#CCCCCC"/>
<path d="M253.255 161.421H262.993V122.832H253.255V161.421Z" fill="#E6E6E6"/>
<path d="M253.255 133.393H262.993V128.925H253.255V133.393Z" fill="#CCCCCC"/>
<path d="M253.255 152.891H262.993V148.423H253.255V152.891Z" fill="#CCCCCC"/>
<path d="M268.268 161.421H278.007V122.832H268.268V161.421Z" fill="#E6E6E6"/>
<path d="M268.268 133.393H278.007V128.925H268.268V133.393Z" fill="#CCCCCC"/>
<path d="M268.268 152.891H278.007V148.423H268.268V152.891Z" fill="#CCCCCC"/>
<path d="M227.761 157.255L236.488 161.581L253.591 126.998L244.864 122.673L227.761 157.255Z" fill="#E6E6E6"/>
<path d="M240.183 132.137L248.911 136.463L250.891 132.458L242.164 128.133L240.183 132.137Z" fill="#CCCCCC"/>
<path d="M231.542 149.611L240.269 153.936L242.249 149.932L233.522 145.606L231.542 149.611Z" fill="#CCCCCC"/>
<path d="M335.017 138.322L330.113 146.825L325.209 155.328H335.017H344.825L339.921 146.825L335.017 138.322Z" fill="#E6E6E6"/>
<path d="M326.495 139.946L321.591 148.449L316.687 156.953H326.495H336.304L331.4 148.449L326.495 139.946Z" fill="#E6E6E6"/>
<path d="M323.047 137.455C324.615 137.455 325.887 136.182 325.887 134.612C325.887 133.042 324.615 131.769 323.047 131.769C321.478 131.769 320.206 133.042 320.206 134.612C320.206 136.182 321.478 137.455 323.047 137.455Z" fill="#E6E6E6"/>
<path d="M179.247 267C278.242 267 358.494 261.294 358.494 254.256C358.494 247.217 278.242 241.511 179.247 241.511C80.2516 241.511 0 247.217 0 254.256C0 261.294 80.2516 267 179.247 267Z" fill="#E6E6E6"/>
<path d="M319.284 261.392C290.056 256.185 258.094 257.05 224.568 261.392C239.849 248.478 253.037 235.564 237.756 222.65C267.563 228.806 271.738 228.183 304.896 222.65C297.206 235.564 311.593 248.478 319.284 261.392Z" fill="#00BFA6"/>
<path opacity="0.2" d="M319.284 261.392C290.056 256.185 258.094 257.05 224.568 261.392C239.849 248.478 253.037 235.564 237.756 222.65C267.563 228.806 271.738 228.183 304.896 222.65C297.206 235.564 311.593 248.478 319.284 261.392Z" fill="#1B1725"/>
<path d="M312.154 255.883C287.327 251.726 260.176 252.417 231.697 255.883C244.677 245.574 255.88 235.266 242.9 224.958C268.22 229.872 271.767 229.374 299.933 224.958C293.4 235.266 305.621 245.574 312.154 255.883Z" fill="#2CDDCB"/>
<path d="M302.698 239.274C310.004 239.274 315.927 233.345 315.927 226.031C315.927 218.717 310.004 212.788 302.698 212.788C295.392 212.788 289.469 218.717 289.469 226.031C289.469 233.345 295.392 239.274 302.698 239.274Z" fill="#2F2E41"/>
<path d="M242.645 210.67L251.811 212.2L256.394 225.453L243.155 233.61L227.878 210.67H242.136H242.645Z" fill="#A0616A"/>
<path d="M268.616 231.061C280.428 231.061 290.003 221.475 290.003 209.651C290.003 197.826 280.428 188.24 268.616 188.24C256.804 188.24 247.228 197.826 247.228 209.651C247.228 221.475 256.804 231.061 268.616 231.061Z" fill="#A0616A"/>
<path d="M150.476 131.656C150.476 131.656 98.5349 137.263 89.3689 136.244C80.2029 135.224 76.129 134.205 76.129 134.205C76.129 134.205 70.0183 142.361 73.0737 145.929C74.7848 147.986 76.8555 149.713 79.1844 151.027C79.1844 151.027 84.7859 149.498 88.8597 151.027C92.9335 152.556 134.181 159.183 141.31 153.066C148.439 146.949 150.476 131.656 150.476 131.656Z" fill="#2F2E41"/>
<path d="M154.04 245.335C154.04 245.335 119.922 235.649 113.812 192.828V188.75C113.812 188.75 107.061 200.606 104.646 203.024C101.845 205.827 91.9149 231.061 92.4242 233.61C92.9334 236.159 92.4242 237.178 92.4242 237.178L77.6567 235.649V231.061C77.6567 231.061 85.5497 207.357 86.0589 201.749C86.5681 196.142 105.664 157.144 105.664 157.144C105.664 157.144 112.793 142.361 125.015 157.144C137.236 171.928 138.254 182.123 138.254 182.123L154.04 212.709L154.04 245.335Z" fill="#2F2E41"/>
<path d="M77.6567 132.676L61.3615 127.068C61.3615 127.068 46.0848 115.853 49.6493 127.068C53.2139 138.283 69.5091 162.752 74.0921 160.203C78.6751 157.654 84.1869 151.328 82.9587 150.413C81.7305 149.498 73.5829 142.871 77.6567 132.676Z" fill="#2F2E41"/>
<path d="M79.6263 228.052L66.4721 234.483C66.4721 234.483 50.5646 236.933 59.4361 241.526C68.3076 246.12 92.7806 251.02 94.0042 246.732C95.2279 242.445 94.7424 235.33 93.4556 235.519C92.1687 235.708 83.2973 236.626 79.6263 228.052Z" fill="#2F2E41"/>
<path d="M147.42 211.69C147.42 211.69 140.8 240.237 152.003 246.354C163.206 252.472 241.627 253.491 247.738 242.276C253.848 231.061 250.793 231.061 250.793 231.061L234.498 212.709L247.738 211.69C247.738 211.69 247.738 207.612 243.155 207.102C238.572 206.592 224.313 201.495 212.092 205.063C199.87 208.631 192.741 197.926 192.741 197.926L147.42 211.69Z" fill="#575A89"/>
<path d="M138.764 122.48L130.107 169.889L189.686 162.752L200.38 119.931L138.764 122.48Z" fill="#3F3D56"/>
<path d="M140.546 124.264L133.417 166.575L187.649 160.203L198.088 121.716L140.546 124.264Z" fill="white"/>
<path d="M132.144 170.399L130.107 169.889L129.088 171.928L145.384 217.297L146.916 216.711L147.42 213.729L132.144 170.399Z" fill="#B3B3B3"/>
<path d="M130.107 169.379L146.402 216.788L208.018 207.612L189.686 162.752L130.107 169.379Z" fill="#D0CDE1"/>
<path d="M138.255 167.85V170.399L183.575 165.301L183.066 162.752L138.255 167.85Z" fill="#3F3D56"/>
<path d="M139.273 172.947L146.402 192.828L192.741 187.221L184.594 168.359L139.273 172.947Z" fill="#3F3D56"/>
<path d="M197.324 200.985L195.797 196.907C195.797 196.907 184.085 176.516 177.974 180.594C171.863 184.672 190.704 204.553 190.704 204.553H196.815L197.324 200.985Z" fill="#A0616A"/>
<path d="M158.623 204.043L157.096 197.926C157.096 197.926 153.022 179.065 160.151 180.084C167.28 181.104 169.317 198.946 169.317 198.946L168.808 203.024L158.623 204.043Z" fill="#A0616A"/>
<path d="M170.845 201.494C170.845 201.494 157.605 199.455 157.096 202.514C156.586 205.573 154.04 251.452 166.771 252.981C179.502 254.511 242.645 261.138 236.025 245.335C229.405 229.532 219.221 231.571 219.221 231.571L175.937 236.159L170.845 201.494Z" fill="#575A89"/>
<path d="M210.819 207.357L197.324 197.926L188.413 204.808L199.616 217.043L210.819 207.357Z" fill="#575A89"/>
<path opacity="0.2" d="M174.664 216.533L176.701 235.904L211.837 233.865L181.284 233.355L174.664 216.533Z" fill="black"/>
<path d="M279.173 239.03C293.235 239.03 304.634 227.618 304.634 213.541C304.634 199.464 293.235 188.053 279.173 188.053C265.111 188.053 253.712 199.464 253.712 213.541C253.712 227.618 265.111 239.03 279.173 239.03Z" fill="#2F2E41"/>
<path d="M148.184 139.048L179.756 137.947L182.811 126.303L150.221 127.288L148.184 139.048Z" fill="#2CDDCB"/>
<path d="M140.037 145.675L187.904 144.145L188.413 142.106L140.546 143.793L140.037 145.675Z" fill="#E6E6E6"/>
<path d="M139.018 150.772L186.885 149.243L187.395 147.204L139.527 148.891L139.018 150.772Z" fill="#E6E6E6"/>
<path d="M138.509 154.85L186.376 153.321L186.886 151.282L139.018 152.969L138.509 154.85Z" fill="#E6E6E6"/>
</svg>
