<svg width="559" height="404" viewBox="0 0 559 404" fill="none" xmlns="http://www.w3.org/2000/svg">
<g clip-path="url(#clip0_4_30)">
<path d="M558.192 400.902H0.807803C0.593561 400.902 0.388092 400.817 0.2366 400.665C0.085107 400.513 0 400.308 0 400.093C0 399.879 0.085107 399.674 0.2366 399.522C0.388092 399.37 0.593561 399.285 0.807803 399.285H558.192C558.406 399.285 558.612 399.37 558.763 399.522C558.915 399.674 559 399.879 559 400.093C559 400.308 558.915 400.513 558.763 400.665C558.612 400.817 558.406 400.902 558.192 400.902Z" fill="#CCCCCC"/>
<path d="M503.023 259.95H175.055C173.662 259.95 172.326 260.504 171.342 261.489C170.357 262.474 169.804 263.81 169.804 265.204C169.804 266.597 170.357 267.933 171.342 268.918C172.326 269.903 173.662 270.457 175.055 270.457H184.344V396.132C184.344 397.525 184.897 398.861 185.882 399.847C186.867 400.832 188.202 401.385 189.595 401.385C190.988 401.385 192.323 400.832 193.308 399.847C194.293 398.861 194.846 397.525 194.846 396.132L194.926 270.457H482.424V396.132C482.424 397.525 482.977 398.861 483.962 399.847C484.946 400.832 486.282 401.385 487.674 401.385C489.067 401.385 490.403 400.832 491.387 399.847C492.372 398.861 492.925 397.525 492.925 396.132V273.227L494.453 270.457H503.023C504.415 270.457 505.751 269.903 506.736 268.918C507.72 267.933 508.273 266.597 508.273 265.204C508.273 263.81 507.72 262.474 506.736 261.489C505.751 260.504 504.415 259.95 503.023 259.95Z" fill="#CCCCCC"/>
<path d="M356.883 262.7H257.538C255.614 262.697 253.77 261.932 252.41 260.571C251.049 259.21 250.284 257.365 250.282 255.441V200.718C250.284 198.794 251.049 196.948 252.41 195.588C253.77 194.227 255.614 193.461 257.538 193.459H356.883C358.806 193.461 360.651 194.227 362.011 195.588C363.371 196.948 364.136 198.794 364.138 200.718V255.441C364.136 257.365 363.371 259.21 362.011 260.571C360.651 261.932 358.806 262.697 356.883 262.7Z" fill="#3F3D56"/>
<path d="M356.882 199.046H257.538C257.095 199.047 256.67 199.223 256.357 199.537C256.043 199.85 255.867 200.275 255.866 200.719V255.442C255.867 255.885 256.044 256.31 256.357 256.624C256.67 256.937 257.095 257.114 257.538 257.115H356.882C357.325 257.114 357.75 256.937 358.064 256.624C358.377 256.31 358.553 255.885 358.554 255.442V200.719C358.553 200.275 358.377 199.85 358.064 199.537C357.75 199.223 357.325 199.047 356.882 199.046Z" fill="white"/>
<path d="M315.683 237.789C315.683 237.789 303.79 235.048 297.249 240.074C290.708 245.101 305.574 256.525 305.574 256.525L315.683 237.789Z" fill="#2F2E41"/>
<path d="M307.793 232.609C313.988 232.609 319.011 227.584 319.011 221.385C319.011 215.187 313.988 210.162 307.793 210.162C301.597 210.162 296.575 215.187 296.575 221.385C296.575 227.584 301.597 232.609 307.793 232.609Z" fill="#A0616A"/>
<path d="M299.118 205.63C299.866 204.36 300.951 203.321 302.252 202.629C303.552 201.936 305.019 201.617 306.49 201.706C308.029 201.899 309.531 202.319 310.946 202.954L318.279 205.816C320.177 206.556 322.255 207.463 323.079 209.327C323.843 211.057 323.273 213.055 322.696 214.856L319.952 223.418C319.648 221.48 319.126 219.583 318.397 217.762C317.656 215.93 316.316 214.402 314.597 213.427C312.692 212.45 310.447 212.47 308.308 212.573C305.28 212.719 301.987 213.104 299.835 215.241C298.693 216.455 297.918 217.968 297.602 219.605C297.29 221.233 297.133 222.887 297.133 224.544C295.892 222.409 294.845 220.165 294.008 217.84C293.319 216.109 292.926 214.275 292.846 212.413C292.774 210.536 293.397 208.698 294.595 207.251C295.203 206.544 295.997 206.021 296.886 205.741C297.775 205.461 298.725 205.435 299.628 205.666L299.118 205.63Z" fill="#2F2E41"/>
<path d="M334.578 247.522C334.473 247.143 334.258 246.803 333.961 246.546C333.663 246.288 333.297 246.125 332.906 246.075C332.881 246.057 332.854 246.041 332.826 246.026L316.079 236.637C315.6 236.369 315.037 236.295 314.507 236.432C313.976 236.569 313.518 236.905 313.229 237.371L308.648 244.79L301.75 237.888L301.64 237.778C301.286 237.424 300.818 237.206 300.32 237.162C299.821 237.119 299.323 237.252 298.913 237.539L285.149 247.182C285.125 247.182 285.101 247.19 285.076 247.19C284.418 247.3 283.816 247.631 283.371 248.13C282.926 248.628 282.664 249.263 282.629 249.93L282.273 257.115H337.236L334.578 247.522Z" fill="#2CDDCB"/>
<path d="M365.255 255.999H354.65C354.65 255.703 354.533 255.419 354.323 255.209C354.114 255 353.83 254.882 353.534 254.882H350.185C349.889 254.882 349.605 255 349.396 255.209C349.187 255.419 349.069 255.703 349.069 255.999H345.72C345.72 255.703 345.603 255.419 345.393 255.209C345.184 255 344.9 254.882 344.604 254.882H341.255C340.959 254.882 340.675 255 340.466 255.209C340.257 255.419 340.139 255.703 340.139 255.999H336.79C336.79 255.703 336.673 255.419 336.464 255.209C336.254 255 335.97 254.882 335.674 254.882H332.326C332.029 254.882 331.746 255 331.536 255.209C331.327 255.419 331.209 255.703 331.209 255.999H327.861C327.861 255.703 327.743 255.419 327.534 255.209C327.324 255 327.04 254.882 326.744 254.882H323.396C323.1 254.882 322.816 255 322.606 255.209C322.397 255.419 322.279 255.703 322.279 255.999H318.931C318.931 255.703 318.813 255.419 318.604 255.209C318.394 255 318.111 254.882 317.814 254.882H314.466C314.17 254.882 313.886 255 313.676 255.209C313.467 255.419 313.35 255.703 313.35 255.999H310.001C310.001 255.703 309.883 255.419 309.674 255.209C309.465 255 309.181 254.882 308.885 254.882H305.536C305.24 254.882 304.956 255 304.747 255.209C304.537 255.419 304.42 255.703 304.42 255.999H301.071C301.071 255.703 300.953 255.419 300.744 255.209C300.535 255 300.251 254.882 299.955 254.882H296.606C296.31 254.882 296.026 255 295.817 255.209C295.607 255.419 295.49 255.703 295.49 255.999H292.141C292.141 255.703 292.023 255.419 291.814 255.209C291.605 255 291.321 254.882 291.025 254.882H287.676C287.38 254.882 287.096 255 286.887 255.209C286.677 255.419 286.56 255.703 286.56 255.999H283.211C283.211 255.703 283.093 255.419 282.884 255.209C282.675 255 282.391 254.882 282.095 254.882H278.746C278.45 254.882 278.166 255 277.957 255.209C277.748 255.419 277.63 255.703 277.63 255.999H274.281C274.281 255.703 274.164 255.419 273.954 255.209C273.745 255 273.461 254.882 273.165 254.882H269.816C269.52 254.882 269.236 255 269.027 255.209C268.818 255.419 268.7 255.703 268.7 255.999H265.351C265.351 255.703 265.234 255.419 265.024 255.209C264.815 255 264.531 254.882 264.235 254.882H260.886C260.59 254.882 260.306 255 260.097 255.209C259.888 255.419 259.77 255.703 259.77 255.999H249.166C248.279 256 247.428 256.354 246.801 256.982C246.174 257.61 245.822 258.462 245.822 259.349C245.822 260.237 246.174 261.088 246.801 261.716C247.428 262.345 248.279 262.698 249.166 262.7H365.255C366.143 262.7 366.994 262.347 367.622 261.718C368.25 261.09 368.603 260.238 368.603 259.349C368.603 258.461 368.25 257.608 367.622 256.98C366.994 256.352 366.143 255.999 365.255 255.999Z" fill="#3F3D56"/>
<path d="M231.903 236.542V258.789H176.196C174.703 258.841 173.215 258.591 171.821 258.056C170.427 257.52 169.155 256.709 168.08 255.671C167.006 254.633 166.152 253.389 165.568 252.014C164.985 250.639 164.684 249.16 164.684 247.666C164.684 246.171 164.985 244.692 165.568 243.317C166.152 241.942 167.006 240.698 168.08 239.66C169.155 238.622 170.427 237.811 171.821 237.275C173.215 236.74 174.703 236.49 176.196 236.542H231.903Z" fill="#F2F2F2"/>
<path d="M233.272 258.618C233.272 258.844 233.182 259.062 233.021 259.223C232.861 259.383 232.643 259.473 232.417 259.473H175.203C172.096 259.473 169.116 258.238 166.919 256.04C164.721 253.842 163.487 250.86 163.487 247.751C163.487 244.642 164.721 241.661 166.919 239.462C169.116 237.264 172.096 236.029 175.203 236.029H232.417C232.643 236.029 232.861 236.119 233.021 236.28C233.182 236.44 233.272 236.658 233.272 236.885C233.272 237.112 233.182 237.329 233.021 237.49C232.861 237.65 232.643 237.74 232.417 237.74H175.203C172.551 237.743 170.008 238.798 168.134 240.676C166.259 242.553 165.206 245.098 165.206 247.751C165.206 250.405 166.259 252.95 168.134 254.827C170.008 256.704 172.551 257.76 175.203 257.762H232.417C232.643 257.762 232.861 257.852 233.021 258.013C233.182 258.173 233.272 258.391 233.272 258.618Z" fill="#00BFA6"/>
<path d="M231.903 241.676H172.039C172.016 241.676 171.994 241.672 171.973 241.663C171.952 241.655 171.933 241.642 171.917 241.626C171.901 241.611 171.889 241.592 171.88 241.571C171.871 241.55 171.867 241.528 171.867 241.505C171.867 241.482 171.871 241.46 171.88 241.439C171.889 241.418 171.901 241.4 171.917 241.384C171.933 241.368 171.952 241.355 171.973 241.347C171.994 241.338 172.016 241.334 172.039 241.334H231.903C231.949 241.334 231.992 241.352 232.024 241.384C232.055 241.416 232.073 241.46 232.073 241.505C232.073 241.55 232.055 241.594 232.024 241.626C231.992 241.658 231.949 241.676 231.903 241.676Z" fill="#CCCCCC"/>
<path d="M231.903 245.783H172.039C172.016 245.783 171.994 245.779 171.973 245.77C171.952 245.762 171.933 245.749 171.917 245.733C171.901 245.718 171.889 245.699 171.88 245.678C171.871 245.657 171.867 245.635 171.867 245.612C171.867 245.589 171.871 245.567 171.88 245.546C171.889 245.525 171.901 245.507 171.917 245.491C171.933 245.475 171.952 245.462 171.973 245.454C171.994 245.445 172.016 245.441 172.039 245.441H231.903C231.949 245.441 231.992 245.459 232.024 245.491C232.055 245.523 232.073 245.567 232.073 245.612C232.073 245.657 232.055 245.701 232.024 245.733C231.992 245.765 231.949 245.783 231.903 245.783Z" fill="#CCCCCC"/>
<path d="M231.903 249.89H172.039C172.016 249.89 171.994 249.886 171.973 249.877C171.952 249.869 171.933 249.856 171.917 249.84C171.901 249.825 171.889 249.806 171.88 249.785C171.871 249.764 171.867 249.742 171.867 249.719C171.867 249.696 171.871 249.674 171.88 249.653C171.889 249.632 171.901 249.613 171.917 249.598C171.933 249.582 171.952 249.569 171.973 249.561C171.994 249.552 172.016 249.548 172.039 249.548H231.903C231.949 249.548 231.992 249.566 232.024 249.598C232.055 249.63 232.073 249.674 232.073 249.719C232.073 249.764 232.055 249.808 232.024 249.84C231.992 249.872 231.949 249.89 231.903 249.89Z" fill="#CCCCCC"/>
<path d="M231.903 253.997H172.039C172.016 253.997 171.994 253.993 171.973 253.984C171.952 253.976 171.933 253.963 171.917 253.947C171.901 253.932 171.889 253.913 171.88 253.892C171.871 253.871 171.867 253.849 171.867 253.826C171.867 253.803 171.871 253.781 171.88 253.76C171.889 253.739 171.901 253.721 171.917 253.705C171.933 253.689 171.952 253.676 171.973 253.668C171.994 253.659 172.016 253.655 172.039 253.655H231.903C231.949 253.655 231.992 253.673 232.024 253.705C232.055 253.738 232.073 253.781 232.073 253.826C232.073 253.871 232.055 253.915 232.024 253.947C231.992 253.979 231.949 253.997 231.903 253.997Z" fill="#CCCCCC"/>
<path d="M221.402 213.105V235.351H165.694C164.202 235.403 162.714 235.154 161.32 234.618C159.925 234.082 158.653 233.271 157.579 232.233C156.505 231.195 155.65 229.952 155.067 228.576C154.483 227.201 154.183 225.722 154.183 224.228C154.183 222.734 154.483 221.255 155.067 219.879C155.65 218.504 156.505 217.26 157.579 216.222C158.653 215.184 159.925 214.373 161.32 213.838C162.714 213.302 164.202 213.053 165.694 213.105H221.402Z" fill="#F2F2F2"/>
<path d="M222.77 235.18C222.77 235.407 222.68 235.624 222.52 235.785C222.359 235.945 222.142 236.035 221.915 236.035H164.702C163.163 236.035 161.64 235.732 160.218 235.143C158.797 234.554 157.505 233.691 156.417 232.602C155.329 231.514 154.466 230.221 153.877 228.799C153.289 227.377 152.986 225.853 152.986 224.313C152.986 222.774 153.289 221.25 153.877 219.827C154.466 218.405 155.329 217.113 156.417 216.025C157.505 214.936 158.797 214.073 160.218 213.483C161.64 212.894 163.163 212.591 164.702 212.591H221.915C222.142 212.591 222.36 212.681 222.52 212.842C222.68 213.002 222.77 213.22 222.77 213.447C222.77 213.674 222.68 213.891 222.52 214.052C222.36 214.212 222.142 214.302 221.915 214.302H164.702C162.05 214.305 159.507 215.361 157.632 217.238C155.758 219.115 154.705 221.66 154.705 224.313C154.705 226.967 155.758 229.512 157.632 231.389C159.507 233.266 162.05 234.322 164.702 234.324H221.915C222.142 234.324 222.359 234.414 222.52 234.575C222.68 234.735 222.77 234.953 222.77 235.18Z" fill="#3F3D56"/>
<path d="M221.402 218.238H161.538C161.515 218.239 161.493 218.234 161.472 218.226C161.451 218.217 161.432 218.205 161.416 218.189C161.4 218.173 161.387 218.154 161.378 218.133C161.37 218.112 161.365 218.09 161.365 218.067C161.365 218.045 161.37 218.022 161.378 218.001C161.387 217.981 161.4 217.962 161.416 217.946C161.432 217.93 161.451 217.917 161.472 217.909C161.493 217.9 161.515 217.896 161.538 217.896H221.402C221.447 217.896 221.49 217.915 221.522 217.947C221.554 217.979 221.572 218.022 221.572 218.067C221.572 218.112 221.554 218.156 221.522 218.188C221.49 218.22 221.447 218.238 221.402 218.238Z" fill="#CCCCCC"/>
<path d="M221.402 222.345H161.538C161.515 222.346 161.493 222.341 161.472 222.333C161.451 222.324 161.432 222.312 161.416 222.296C161.4 222.28 161.387 222.261 161.378 222.24C161.37 222.219 161.365 222.197 161.365 222.174C161.365 222.152 161.37 222.129 161.378 222.109C161.387 222.088 161.4 222.069 161.416 222.053C161.432 222.037 161.451 222.024 161.472 222.016C161.493 222.007 161.515 222.003 161.538 222.003H221.402C221.447 222.003 221.49 222.022 221.522 222.054C221.554 222.086 221.572 222.129 221.572 222.174C221.572 222.219 221.554 222.263 221.522 222.295C221.49 222.327 221.447 222.345 221.402 222.345Z" fill="#CCCCCC"/>
<path d="M221.402 226.452H161.538C161.515 226.452 161.493 226.448 161.472 226.44C161.451 226.431 161.432 226.419 161.416 226.403C161.4 226.387 161.387 226.368 161.378 226.347C161.37 226.326 161.365 226.304 161.365 226.281C161.365 226.259 161.37 226.236 161.378 226.215C161.387 226.195 161.4 226.176 161.416 226.16C161.432 226.144 161.451 226.131 161.472 226.123C161.493 226.114 161.515 226.11 161.538 226.11H221.402C221.447 226.11 221.49 226.129 221.522 226.161C221.554 226.193 221.572 226.236 221.572 226.281C221.572 226.326 221.554 226.37 221.522 226.402C221.49 226.434 221.447 226.452 221.402 226.452Z" fill="#CCCCCC"/>
<path d="M221.402 230.559H161.538C161.515 230.559 161.493 230.555 161.472 230.547C161.451 230.538 161.432 230.526 161.416 230.51C161.4 230.494 161.387 230.475 161.378 230.454C161.37 230.433 161.365 230.411 161.365 230.388C161.365 230.366 161.37 230.343 161.378 230.322C161.387 230.302 161.4 230.283 161.416 230.267C161.432 230.251 161.451 230.238 161.472 230.23C161.493 230.221 161.515 230.217 161.538 230.217H221.402C221.447 230.217 221.49 230.236 221.522 230.268C221.554 230.3 221.572 230.343 221.572 230.388C221.572 230.433 221.554 230.477 221.522 230.509C221.49 230.541 221.447 230.559 221.402 230.559Z" fill="#CCCCCC"/>
<path d="M286.207 337.862V318.465C286.207 317.608 285.867 316.786 285.261 316.179C284.655 315.573 283.833 315.233 282.976 315.233H209.466C208.609 315.233 207.787 315.573 207.181 316.179C206.575 316.786 206.235 317.608 206.235 318.465V337.862H286.207Z" fill="#CCCCCC"/>
<path d="M286.207 345.136H206.235V370.19H286.207V345.136Z" fill="#CCCCCC"/>
<path d="M206.235 377.464V396.861C206.235 397.718 206.575 398.54 207.181 399.147C207.787 399.753 208.609 400.093 209.466 400.093H282.976C283.833 400.093 284.655 399.753 285.261 399.147C285.867 398.54 286.207 397.718 286.207 396.861V377.464H206.235Z" fill="#CCCCCC"/>
<path d="M245.817 329.78C247.156 329.78 248.241 328.695 248.241 327.355C248.241 326.016 247.156 324.931 245.817 324.931C244.479 324.931 243.394 326.016 243.394 327.355C243.394 328.695 244.479 329.78 245.817 329.78Z" fill="white"/>
<path d="M245.817 362.108C247.156 362.108 248.241 361.023 248.241 359.684C248.241 358.344 247.156 357.259 245.817 357.259C244.479 357.259 243.394 358.344 243.394 359.684C243.394 361.023 244.479 362.108 245.817 362.108Z" fill="white"/>
<path d="M245.947 393.752C247.285 393.752 248.37 392.666 248.37 391.327C248.37 389.988 247.285 388.902 245.947 388.902C244.609 388.902 243.524 389.988 243.524 391.327C243.524 392.666 244.609 393.752 245.947 393.752Z" fill="white"/>
<path d="M277.14 293.116V315.363H221.433C219.94 315.415 218.452 315.165 217.058 314.63C215.664 314.094 214.392 313.283 213.317 312.245C212.243 311.207 211.389 309.963 210.805 308.588C210.222 307.213 209.921 305.734 209.921 304.239C209.921 302.745 210.222 301.266 210.805 299.891C211.389 298.516 212.243 297.272 213.317 296.234C214.392 295.196 215.664 294.385 217.058 293.849C218.452 293.314 219.94 293.064 221.433 293.116H277.14Z" fill="#F2F2F2"/>
<path d="M278.509 315.191C278.509 315.418 278.419 315.636 278.258 315.796C278.098 315.957 277.88 316.047 277.654 316.047H220.44C218.901 316.048 217.376 315.746 215.954 315.158C214.531 314.569 213.238 313.706 212.149 312.617C211.06 311.529 210.196 310.236 209.607 308.813C209.018 307.39 208.714 305.865 208.714 304.325C208.714 302.785 209.018 301.26 209.607 299.837C210.196 298.414 211.06 297.122 212.149 296.033C213.238 294.944 214.531 294.081 215.954 293.493C217.376 292.904 218.901 292.602 220.44 292.603H277.654C277.88 292.603 278.098 292.693 278.258 292.854C278.419 293.014 278.509 293.232 278.509 293.459C278.509 293.686 278.419 293.903 278.258 294.064C278.098 294.224 277.88 294.314 277.654 294.314H220.44C217.788 294.317 215.245 295.372 213.371 297.25C211.496 299.127 210.443 301.672 210.443 304.325C210.443 306.979 211.496 309.523 213.371 311.401C215.245 313.278 217.788 314.333 220.44 314.336H277.654C277.88 314.336 278.098 314.426 278.258 314.587C278.419 314.747 278.509 314.965 278.509 315.191Z" fill="#3F3D56"/>
<path d="M277.14 298.25H217.276C217.253 298.25 217.231 298.246 217.21 298.237C217.189 298.229 217.17 298.216 217.154 298.2C217.138 298.184 217.126 298.166 217.117 298.145C217.108 298.124 217.104 298.102 217.104 298.079C217.104 298.056 217.108 298.034 217.117 298.013C217.126 297.992 217.138 297.973 217.154 297.958C217.17 297.942 217.189 297.929 217.21 297.921C217.231 297.912 217.253 297.908 217.276 297.908H277.14C277.186 297.908 277.229 297.926 277.261 297.958C277.292 297.99 277.31 298.034 277.31 298.079C277.31 298.124 277.292 298.167 277.261 298.2C277.229 298.232 277.186 298.25 277.14 298.25Z" fill="#CCCCCC"/>
<path d="M277.14 302.357H217.276C217.253 302.357 217.231 302.353 217.21 302.344C217.189 302.336 217.17 302.323 217.154 302.307C217.138 302.292 217.126 302.273 217.117 302.252C217.108 302.231 217.104 302.209 217.104 302.186C217.104 302.163 217.108 302.141 217.117 302.12C217.126 302.099 217.138 302.08 217.154 302.065C217.17 302.049 217.189 302.036 217.21 302.028C217.231 302.019 217.253 302.015 217.276 302.015H277.14C277.186 302.015 277.229 302.033 277.261 302.065C277.292 302.097 277.31 302.141 277.31 302.186C277.31 302.231 277.292 302.275 277.261 302.307C277.229 302.339 277.186 302.357 277.14 302.357Z" fill="#CCCCCC"/>
<path d="M277.14 306.464H217.276C217.253 306.464 217.231 306.46 217.21 306.451C217.189 306.443 217.17 306.43 217.154 306.414C217.138 306.398 217.126 306.38 217.117 306.359C217.108 306.338 217.104 306.316 217.104 306.293C217.104 306.27 217.108 306.248 217.117 306.227C217.126 306.206 217.138 306.187 217.154 306.172C217.17 306.156 217.189 306.143 217.21 306.135C217.231 306.126 217.253 306.122 217.276 306.122H277.14C277.186 306.122 277.229 306.14 277.261 306.172C277.292 306.204 277.31 306.248 277.31 306.293C277.31 306.338 277.292 306.381 277.261 306.414C277.229 306.446 277.186 306.464 277.14 306.464Z" fill="#CCCCCC"/>
<path d="M277.14 310.571H217.276C217.253 310.571 217.231 310.567 217.21 310.558C217.189 310.55 217.17 310.537 217.154 310.521C217.138 310.505 217.126 310.486 217.117 310.466C217.108 310.445 217.104 310.422 217.104 310.4C217.104 310.377 217.108 310.355 217.117 310.334C217.126 310.313 217.138 310.294 217.154 310.278C217.17 310.263 217.189 310.25 217.21 310.241C217.231 310.233 217.253 310.229 217.276 310.229H277.14C277.186 310.229 277.229 310.247 277.261 310.279C277.292 310.311 277.31 310.355 277.31 310.4C277.31 310.445 277.292 310.488 277.261 310.52C277.229 310.552 277.186 310.571 277.14 310.571Z" fill="#CCCCCC"/>
<path d="M202.04 147.918V6.07882C202.042 4.46718 202.683 2.92208 203.822 1.78248C204.961 0.642874 206.505 0.00183319 208.116 0H320.181C321.792 0.00184386 323.336 0.642888 324.475 1.78249C325.615 2.92209 326.255 4.46719 326.257 6.07882V147.918C326.255 149.529 325.615 151.075 324.475 152.214C323.336 153.354 321.792 153.995 320.181 153.997H208.116C206.505 153.995 204.961 153.354 203.822 152.214C202.683 151.075 202.042 149.529 202.04 147.918ZM208.116 1.35085C206.863 1.35225 205.662 1.85083 204.776 2.73719C203.89 3.62355 203.392 4.82532 203.39 6.07882V147.918C203.392 149.171 203.89 150.373 204.776 151.259C205.662 152.146 206.863 152.644 208.116 152.646H320.181C321.434 152.644 322.635 152.146 323.521 151.259C324.407 150.373 324.905 149.171 324.907 147.918V6.07882C324.905 4.82532 324.407 3.62355 323.521 2.73719C322.635 1.85083 321.434 1.35226 320.181 1.35085H208.116Z" fill="#E6E6E6"/>
<path d="M270.433 65.139V36.015C270.434 35.2092 270.754 34.4366 271.324 33.8668C271.893 33.297 272.665 32.9765 273.471 32.9756H298.139C298.944 32.9765 299.716 33.297 300.286 33.8668C300.855 34.4366 301.176 35.2092 301.177 36.015V65.139C301.176 65.9448 300.855 66.7174 300.286 67.2872C299.716 67.857 298.944 68.1775 298.139 68.1784H273.471C272.665 68.1775 271.893 67.857 271.324 67.2872C270.754 66.7174 270.434 65.9448 270.433 65.139Z" fill="#2CDDCB"/>
<path d="M222.501 78.6475V49.5235C222.502 48.7177 222.822 47.9451 223.392 47.3753C223.961 46.8055 224.734 46.485 225.539 46.4841H250.207C251.012 46.485 251.785 46.8055 252.354 47.3753C252.924 47.9451 253.244 48.7177 253.245 49.5235V78.6475C253.244 79.4534 252.924 80.2259 252.354 80.7957C251.785 81.3656 251.012 81.686 250.207 81.6869H225.539C224.734 81.686 223.962 81.3655 223.392 80.7957C222.822 80.2259 222.502 79.4533 222.501 78.6475Z" fill="#CCCCCC"/>
<path d="M260.982 119.848V90.7243C260.982 89.9185 261.303 89.1459 261.872 88.5761C262.442 88.0063 263.214 87.6858 264.019 87.6849H288.687C289.493 87.6858 290.265 88.0063 290.834 88.5761C291.404 89.1459 291.724 89.9185 291.725 90.7243V119.848C291.724 120.654 291.404 121.427 290.834 121.997C290.265 122.566 289.493 122.887 288.687 122.888H264.019C263.214 122.887 262.442 122.566 261.872 121.997C261.303 121.427 260.982 120.654 260.982 119.848Z" fill="#FF6584"/>
<path d="M408.396 253.001H383.014C382.774 253.001 382.536 253.056 382.32 253.163L375.914 256.371C375.703 256.461 375.523 256.611 375.397 256.802C375.27 256.993 375.203 257.217 375.203 257.446C375.203 257.676 375.27 257.9 375.397 258.091C375.523 258.282 375.703 258.432 375.914 258.521L382.32 261.73C382.536 261.836 382.774 261.892 383.014 261.891H408.396C408.745 261.912 409.089 261.793 409.352 261.562C409.615 261.33 409.777 261.005 409.801 260.655V254.238C409.777 253.888 409.615 253.562 409.352 253.331C409.089 253.099 408.745 252.981 408.396 253.001Z" fill="#3F3D56"/>
<path d="M409.801 254.238V260.655C409.777 261.004 409.615 261.33 409.352 261.562C409.089 261.793 408.745 261.912 408.396 261.891H403.339V253.001H408.396C408.745 252.981 409.089 253.099 409.352 253.331C409.615 253.562 409.777 253.888 409.801 254.238Z" fill="#00BFA6"/>
<path d="M408.205 204.994C409.354 204.498 410.596 204.25 411.848 204.267C413.1 204.284 414.334 204.566 415.47 205.093C416.605 205.621 417.617 206.383 418.438 207.329C419.259 208.274 419.87 209.383 420.233 210.582C420.346 210.962 420.433 211.35 420.492 211.742L455.985 229.351L464.199 223.905L474.419 235.677L461.877 245.868C460.369 247.084 458.509 247.781 456.574 247.856C454.638 247.931 452.73 247.379 451.132 246.283L415.121 221.367C414.853 221.481 414.58 221.581 414.301 221.666C413.103 222.029 411.841 222.134 410.599 221.975C409.357 221.816 408.162 221.396 407.094 220.743C406.025 220.09 405.107 219.218 404.399 218.185C403.69 217.152 403.208 215.98 402.984 214.748C402.917 214.39 402.873 214.028 402.852 213.665C402.753 211.846 403.212 210.04 404.169 208.489C405.126 206.939 406.534 205.719 408.205 204.994Z" fill="#FFB8B8"/>
<path d="M482.13 313.413H443.348C443.348 314.528 403.378 315.433 403.378 315.433C402.75 315.906 402.179 316.448 401.673 317.05C400.155 318.861 399.325 321.151 399.33 323.515V325.132C399.331 327.811 400.396 330.38 402.289 332.274C404.182 334.169 406.75 335.233 409.428 335.234H482.13C484.808 335.232 487.375 334.167 489.268 332.273C491.161 330.379 492.226 327.81 492.228 325.132V323.515C492.224 320.837 491.159 318.27 489.266 316.376C487.373 314.482 484.807 313.417 482.13 313.413Z" fill="#3F3D56"/>
<path d="M439.944 402.722H450.445V334.833H439.944V402.722Z" fill="#3F3D56"/>
<path d="M410.055 402.353C410.055 403.488 425.968 402.792 445.599 402.792C465.229 402.792 481.142 403.488 481.142 402.353C481.142 401.217 465.229 392.215 445.599 392.215C425.968 392.215 410.055 401.217 410.055 402.353Z" fill="#3F3D56"/>
<path d="M419.535 394.396L409.632 394.395L404.92 368.697L419.537 368.697L419.535 394.396Z" fill="#FFB8B8"/>
<path d="M422.061 404L390.128 403.999V403.595C390.128 401.962 390.45 400.345 391.074 398.836C391.699 397.327 392.614 395.956 393.769 394.802C394.923 393.647 396.293 392.731 397.801 392.106C399.309 391.481 400.925 391.16 402.557 391.16H402.558L422.062 391.16L422.061 404Z" fill="#2F2E41"/>
<path d="M404.723 378.46L384.98 334.164C383.331 330.431 383.149 326.213 384.469 322.351C385.789 318.489 388.515 315.267 392.103 313.325L434.928 290.35L454.469 288.687L472.495 287.048L472.625 287.268C472.791 287.549 476.667 294.247 474.047 301.591C472.06 307.161 466.891 311.512 458.684 314.523C439.527 321.551 417.398 327.557 408.773 329.813C408.391 329.91 408.035 330.088 407.727 330.333C407.42 330.578 407.167 330.885 406.986 331.235C406.805 331.581 406.698 331.96 406.671 332.35C406.643 332.739 406.697 333.13 406.828 333.497L425.17 374.727C425.362 375.25 425.431 375.81 425.372 376.364C425.313 376.918 425.128 377.45 424.83 377.921C424.533 378.392 424.132 378.788 423.657 379.079C423.182 379.37 422.647 379.549 422.093 379.6L408.387 380.598C408.271 380.61 408.155 380.615 408.04 380.615C407.338 380.615 406.651 380.411 406.063 380.029C405.474 379.646 405.009 379.101 404.723 378.46Z" fill="#2F2E41"/>
<path d="M424.382 394.396L414.479 394.395L409.767 368.697L424.384 368.697L424.382 394.396Z" fill="#FFB8B8"/>
<path d="M426.908 404L394.975 403.999V403.595C394.975 401.962 395.296 400.345 395.921 398.836C396.546 397.327 397.461 395.956 398.615 394.802C399.77 393.647 401.14 392.731 402.648 392.106C404.156 391.481 405.772 391.16 407.404 391.16H407.405L426.908 391.16L426.908 404Z" fill="#2F2E41"/>
<path d="M410.378 380.884L390.634 336.589C388.986 332.855 388.803 328.638 390.124 324.776C391.444 320.914 394.17 317.691 397.758 315.75L440.582 292.775L460.124 291.112L478.15 289.472L478.28 289.692C478.446 289.973 482.322 296.671 479.702 304.015C477.715 309.586 472.546 313.937 464.339 316.948C445.182 323.975 423.052 329.982 414.427 332.237C414.046 332.335 413.69 332.512 413.382 332.757C413.074 333.002 412.822 333.31 412.641 333.66C412.46 334.005 412.353 334.385 412.325 334.774C412.298 335.163 412.351 335.554 412.483 335.922L430.825 377.152C431.017 377.675 431.085 378.235 431.027 378.788C430.968 379.342 430.782 379.875 430.485 380.346C430.188 380.817 429.786 381.213 429.312 381.504C428.837 381.795 428.302 381.973 427.748 382.025L414.042 383.023C413.926 383.034 413.81 383.04 413.695 383.04C412.993 383.039 412.306 382.836 411.717 382.453C411.129 382.071 410.663 381.526 410.378 380.884Z" fill="#2F2E41"/>
<path d="M400.537 245.567C392.24 234.526 385.682 222.279 381.089 209.253C380.823 208.474 380.842 207.625 381.142 206.859C381.443 206.092 382.005 205.457 382.73 205.067L411.12 189.847C411.58 189.599 412.09 189.459 412.611 189.438C413.133 189.417 413.652 189.515 414.13 189.725C414.617 189.937 415.049 190.257 415.393 190.66C415.738 191.064 415.986 191.542 416.118 192.056C419.423 204.608 425.634 216.207 434.25 225.912C434.605 226.307 434.864 226.778 435.01 227.288C435.155 227.799 435.182 228.336 435.089 228.859C434.999 229.373 434.793 229.861 434.486 230.283C434.18 230.706 433.781 231.053 433.32 231.298L404.929 246.518C404.203 246.905 403.363 247.022 402.559 246.848C401.754 246.674 401.038 246.22 400.537 245.567Z" fill="#CCCCCC"/>
<path d="M402.474 244.11C402.627 244.301 402.841 244.432 403.081 244.482C403.32 244.531 403.569 244.495 403.785 244.381L432.175 229.161C432.313 229.089 432.432 228.986 432.524 228.86C432.615 228.735 432.676 228.589 432.702 228.436C432.732 228.274 432.724 228.107 432.678 227.949C432.633 227.791 432.551 227.646 432.44 227.524C423.57 217.533 417.176 205.593 413.774 192.671C413.735 192.511 413.659 192.363 413.553 192.237C413.446 192.112 413.313 192.013 413.162 191.947C413.019 191.884 412.864 191.854 412.709 191.86C412.553 191.867 412.401 191.909 412.265 191.985L383.875 207.204C383.66 207.32 383.492 207.508 383.4 207.735C383.309 207.962 383.3 208.213 383.374 208.446C387.885 221.24 394.326 233.267 402.474 244.11Z" fill="white"/>
<path d="M494.854 241.507L472.62 249.96L467.191 234.874C466.471 232.87 466.481 230.677 467.22 228.68C467.96 226.684 469.381 225.013 471.232 223.963C473.105 222.902 475.296 222.545 477.409 222.957C479.521 223.37 481.417 224.525 482.753 226.214L494.854 241.507Z" fill="#00BFA6"/>
<path d="M438.3 301.281C437.832 300.95 437.44 300.523 437.15 300.029C436.86 299.534 436.678 298.983 436.617 298.413C433.769 271.816 435.753 251.001 442.68 234.78C443.901 231.982 445.739 229.497 448.057 227.512C450.375 225.527 453.112 224.094 456.063 223.32L474.036 222.412L474.13 222.457C478.185 224.444 481.493 227.687 483.562 231.703C485.631 235.719 486.351 240.296 485.616 244.754C479.835 259.999 474.995 275.872 478.686 288.676C478.841 289.212 478.886 289.773 478.819 290.326C478.752 290.879 478.574 291.413 478.295 291.896C478.025 292.362 477.663 292.769 477.23 293.09C476.797 293.411 476.303 293.639 475.778 293.762L441.545 301.91C440.99 302.041 440.414 302.054 439.855 301.945C439.295 301.837 438.765 301.611 438.3 301.281Z" fill="#2CDDCB"/>
<path d="M468.038 215.696C478.996 215.696 487.879 206.808 487.879 195.845C487.879 184.882 478.996 175.995 468.038 175.995C457.081 175.995 448.198 184.882 448.198 195.845C448.198 206.808 457.081 215.696 468.038 215.696Z" fill="#FFB8B8"/>
<path d="M412.984 211.567L397.522 218.396C396.933 218.655 396.267 218.67 395.668 218.438C395.069 218.206 394.586 217.745 394.326 217.157L393.943 216.291C393.685 215.702 393.67 215.035 393.902 214.436C394.134 213.836 394.594 213.354 395.182 213.093L410.644 206.264C411.232 206.005 411.899 205.99 412.498 206.223C413.097 206.455 413.58 206.916 413.84 207.503L414.223 208.37C414.481 208.958 414.496 209.626 414.264 210.225C414.032 210.824 413.572 211.307 412.984 211.567Z" fill="#CCCCCC"/>
<path d="M418.639 222.074L403.176 228.903C402.588 229.162 401.921 229.177 401.322 228.945C400.723 228.712 400.241 228.252 399.981 227.664L399.598 226.797C399.339 226.209 399.324 225.542 399.556 224.942C399.789 224.343 400.249 223.86 400.836 223.6L416.299 216.771C416.887 216.512 417.554 216.497 418.153 216.729C418.752 216.962 419.235 217.422 419.495 218.01L419.877 218.877C420.136 219.465 420.151 220.132 419.919 220.732C419.687 221.331 419.226 221.814 418.639 222.074Z" fill="#CCCCCC"/>
<path d="M430.563 263.112L396.091 235.903C395.816 236 395.537 236.082 395.254 236.15C394.037 236.435 392.774 236.46 391.547 236.225C390.32 235.989 389.156 235.498 388.131 234.783C387.099 234.068 386.232 233.14 385.587 232.062C384.943 230.984 384.536 229.781 384.393 228.533C384.162 226.538 384.612 224.523 385.669 222.816C386.726 221.109 388.329 219.809 390.217 219.127C391.396 218.704 392.65 218.535 393.899 218.631C395.147 218.727 396.361 219.086 397.461 219.684C398.562 220.282 399.523 221.105 400.283 222.101C401.043 223.097 401.584 224.242 401.871 225.461C401.959 225.848 402.021 226.24 402.056 226.635L436.372 246.442L444.912 241.523L454.372 253.914L441.113 263.369C439.561 264.467 437.696 265.035 435.795 264.989C433.895 264.942 432.06 264.284 430.563 263.112Z" fill="#FFB8B8"/>
<path d="M458.579 257.773L438.91 244.391L448.153 231.293C449.381 229.554 451.183 228.304 453.242 227.766C455.301 227.228 457.484 227.435 459.405 228.351C461.348 229.278 462.896 230.869 463.769 232.838C464.643 234.806 464.783 237.023 464.166 239.086L458.579 257.773Z" fill="#00BFA6"/>
<path d="M460.764 192.889C455.665 196.381 448.969 199.97 443.761 196.252C440.341 193.81 439.263 189.289 440.65 185.321C443.144 178.186 449.996 175.044 456.548 172.636C465.066 169.506 474.341 167.016 483.134 169.258C491.927 171.499 499.698 180.017 498.111 188.956C496.834 196.144 490.057 202.125 491.019 209.363C491.988 216.646 500.175 220.48 507.403 221.782C514.631 223.084 522.719 223.502 527.913 228.696C534.54 235.322 532.885 247.166 526.65 254.162C520.415 261.158 511.005 264.329 501.888 266.485C489.807 269.342 476.742 270.843 465.268 266.102C453.795 261.362 444.867 248.601 448.19 236.636C449.594 231.581 452.901 227.31 456.097 223.151C459.294 218.993 462.53 214.644 463.749 209.542C464.765 205.29 464.013 200.354 461.195 197.165C460.683 196.606 460.36 195.9 460.274 195.147C460.188 194.394 460.342 193.633 460.715 192.973L460.764 192.889Z" fill="#2F2E41"/>
<path d="M88.1089 289.334C82.9964 291.132 77.5072 291.582 72.1702 290.642C66.8332 289.701 61.8283 287.401 57.6376 283.964C46.9649 275.001 43.6187 260.236 40.896 246.564C38.2116 233.085 35.5272 219.605 32.8428 206.126L49.703 217.741C61.8279 226.093 74.2259 234.714 82.6211 246.812C91.0163 258.911 94.6808 275.427 87.9355 288.518" fill="#E6E6E6"/>
<path d="M86.6677 338.294C88.3742 325.858 90.1289 313.262 88.9319 300.692C87.8688 289.529 84.4648 278.626 77.5347 269.686C73.8562 264.95 69.3802 260.892 64.3079 257.695C62.9852 256.859 61.7678 258.957 63.0847 259.788C71.8613 265.338 78.6497 273.532 82.4711 283.191C86.6917 293.931 87.3695 305.639 86.6422 317.049C86.2024 323.949 85.2702 330.803 84.3308 337.649C84.2568 337.959 84.303 338.285 84.4601 338.562C84.6172 338.839 84.8734 339.045 85.1771 339.14C85.4869 339.224 85.8172 339.182 86.0962 339.023C86.3753 338.865 86.5806 338.603 86.6677 338.294H86.6677Z" fill="#F2F2F2"/>
<path d="M70.2313 316.288C68.0386 319.622 65.0246 322.335 61.4797 324.165C57.9349 325.996 53.9786 326.882 49.9919 326.739C39.7465 326.252 31.205 319.098 23.5161 312.306L0.773743 292.216L15.8254 291.496C26.6496 290.977 37.7532 290.494 48.0629 293.833C58.3726 297.173 67.8808 305.21 69.766 315.887" fill="#E6E6E6"/>
<path d="M91.4903 345.442C83.2768 330.902 73.7498 314.742 56.7267 309.577C51.9934 308.146 47.0303 307.633 42.1046 308.067C40.5521 308.2 40.9398 310.595 42.4894 310.461C50.746 309.775 58.9866 311.956 65.824 316.637C72.4035 321.118 77.5263 327.347 81.8622 333.953C84.5181 338 86.8971 342.218 89.2765 346.43C90.037 347.776 92.2596 346.804 91.4903 345.442Z" fill="#F2F2F2"/>
<path d="M104.651 360.747C104.374 357.539 103.223 354.468 101.322 351.87C99.4217 349.271 96.8449 347.243 93.8724 346.008V337.602H79.7804V346.273C76.9542 347.569 74.522 349.591 72.7316 352.134C70.9413 354.676 69.8569 357.649 69.589 360.747L66.2754 399.285H107.964L104.651 360.747Z" fill="#F2F2F2"/>
</g>
<defs>
<clipPath id="clip0_4_30">
<rect width="559" height="404" fill="white"/>
</clipPath>
</defs>
</svg>
