<svg width="23" height="33" viewBox="0 0 23 33" fill="none" xmlns="http://www.w3.org/2000/svg">
<mask id="mask0_169_2" style="mask-type:alpha" maskUnits="userSpaceOnUse" x="0" y="0" width="23" height="33">
<path d="M22.2781 0H0V32.6454H22.2781V0Z" fill="url(#paint0_linear_169_2)"/>
</mask>
<g mask="url(#mask0_169_2)">
<path fill-rule="evenodd" clip-rule="evenodd" d="M2.09915 2.85347C3.22322 2.85347 4.13059 3.77306 4.13059 4.88198V12.2116L6.79855 2.06912C7.08295 0.987252 8.20702 0.338129 9.29045 0.622119C10.3739 0.90611 11.0239 2.02855 10.7395 3.11042L9.56131 7.58665L13.6242 1.02782C14.2201 0.0811851 15.4796 -0.216328 16.4276 0.365176C17.3756 0.960204 17.6735 2.21788 17.0912 3.16451L12.5543 10.4806C13.895 11.0351 14.8566 11.6572 15.8723 12.3198C16.9422 13.0095 18.0798 13.7127 18.9059 14.2401C19.732 14.754 20.2331 15.0786 20.7071 15.4978C21.1811 15.9035 21.6145 16.4039 21.8854 16.9042C22.1562 17.4046 22.2375 17.8914 22.2239 18.3377C22.2104 18.784 22.1021 19.1762 21.8312 19.5007C21.5603 19.8253 21.1405 20.0687 20.8155 20.1904C20.4905 20.3121 20.2602 20.2986 20.1113 20.1498C19.9623 20.0146 19.8675 19.7441 19.7321 19.5142C19.5966 19.2844 19.407 19.095 18.608 18.5406C17.809 17.9861 16.4005 17.053 15.141 16.3092C13.8815 15.5654 12.771 14.9974 11.8907 14.754C11.0239 14.5106 10.401 14.6053 9.83217 14.7946L9.79154 14.8081C9.69674 14.8487 9.52068 14.9163 9.35816 14.9974C8.35599 15.4978 8.09867 16.3092 7.90907 17.3235C7.86844 17.5398 7.84135 17.7697 7.82781 17.9996C7.82781 18.0132 7.82781 18.0267 7.82781 18.0402C7.82781 18.189 7.82781 18.3918 7.81427 18.7028C7.80073 19.4331 7.77364 20.799 7.78718 21.9214C7.80073 23.0438 7.84135 23.9499 7.89553 24.572C7.9497 25.2076 8.01741 25.5727 8.17993 25.9378C8.34244 26.303 8.58622 26.6681 8.84353 26.9521C9.11439 27.2361 9.39879 27.4525 9.80508 27.6147C10.2114 27.7635 10.7395 27.8582 11.2948 27.777C11.8365 27.6959 12.4053 27.4525 13.1637 27.0738C13.9221 26.6952 14.8837 26.1677 16.0077 25.5051C17.1318 24.8425 18.4319 24.0446 19.1632 23.3955C19.8946 22.7463 20.0571 22.2595 20.2738 22.0431C20.504 21.8267 20.8019 21.8808 21.0863 22.0702C21.3843 22.2595 21.6687 22.5705 21.8447 22.868C22.0343 23.1656 22.1156 23.4495 22.1427 23.7606C22.1698 24.0716 22.1562 24.4232 22.0885 24.7478C22.0208 25.0588 21.8989 25.3428 21.777 25.5998C21.6551 25.8567 21.5197 26.1001 21.2218 26.4382C20.9238 26.7763 20.4769 27.209 18.6892 28.1962C16.888 29.1835 13.7461 30.7116 11.8365 31.5636C9.92697 32.4155 9.24982 32.5643 8.5185 32.6184C7.80073 32.659 7.02878 32.5913 6.4058 32.4832C5.79637 32.375 5.33591 32.2533 4.80774 32.0098C4.27956 31.7799 3.68368 31.4418 3.14196 31.0226C2.60024 30.6169 2.12624 30.1436 1.69286 29.5486C1.25949 28.9536 0.853201 28.2639 0.582342 27.6283C0.365655 27.1414 0.243769 26.6952 0.176054 26.3976C0.0947967 26.1813 0.0541687 25.9378 0.0541687 25.6944V4.88198C0.0677116 3.75954 0.975089 2.85347 2.09915 2.85347Z" fill="#2CDDCB"/>
</g>
<mask id="mask1_169_2" style="mask-type:alpha" maskUnits="userSpaceOnUse" x="7" y="11" width="16" height="10">
<path d="M22.2646 11.0215H7.70592V20.312H22.2646V11.0215Z" fill="url(#paint1_linear_169_2)"/>
</mask>
<g mask="url(#mask1_169_2)">
<path fill-rule="evenodd" clip-rule="evenodd" d="M7.81426 18.3918V18.6893L7.78718 18.0266L7.77363 17.7697C7.78717 14.186 9.9405 10.413 14.0169 11.1838C14.2336 11.3055 14.4503 11.4272 14.667 11.5625C15.141 11.8465 15.615 12.1575 16.0755 12.455C16.8068 12.9148 17.5245 13.3746 18.2152 13.8073C19.0414 14.3212 19.8539 14.8216 20.4769 15.3084C21.0322 15.7277 21.2082 15.9981 21.5062 16.3362C22.4813 17.6074 22.7386 19.663 20.4498 20.2715C19.8946 20.1498 19.9352 19.974 19.7456 19.4736L19.4883 19.2437C18.2152 18.2836 17.0776 17.5263 15.9265 16.8231C15.0462 16.2821 14.1659 15.7547 13.1502 15.2679C12.2293 14.8216 11.2 14.47 10.1707 14.7134C9.62902 14.8486 9.22273 15.065 8.85707 15.322C8.64038 15.4842 8.49141 15.6871 8.35598 15.917C8.22055 16.1469 8.12575 16.3903 8.04449 16.6608C8.0174 16.769 7.99032 16.8771 7.96323 16.9853C7.88197 17.4046 7.80072 17.8644 7.81426 18.3918Z" fill="#F16D89"/>
</g>
<mask id="mask2_169_2" style="mask-type:alpha" maskUnits="userSpaceOnUse" x="0" y="0" width="18" height="28">
<path d="M17.2943 0.189331H0.0677109V27.804H17.2943V0.189331Z" fill="url(#paint2_linear_169_2)"/>
</mask>
<g mask="url(#mask2_169_2)">
<path fill-rule="evenodd" clip-rule="evenodd" d="M10.1978 27.7229C9.4665 27.5471 9.10085 27.2496 8.76227 26.8574C8.6133 26.6816 8.47787 26.4923 8.35599 26.2894C8.26119 26.1136 8.16639 25.9378 8.08513 25.7214C7.73301 24.6666 7.74655 21.4886 7.77364 20.2986C7.77364 20.1092 7.77364 19.9334 7.77364 19.7171C7.78718 18.9192 7.76009 18.1484 7.76009 17.7968C7.71947 14.5917 9.72382 10.6564 13.4346 11.1297C13.57 11.1433 13.8409 11.1703 13.9357 11.1974C14.342 11.3461 13.5971 10.9675 13.0554 10.7105C12.8252 10.6023 12.5814 10.5212 12.5543 10.4941L14.0169 8.12755L17.1589 3.05629C17.8767 0.960172 15.7504 -0.730246 13.8273 0.770846L9.54776 7.61367L10.7937 2.88049C10.8885 0.554473 7.99033 -0.270451 6.85272 1.94738L4.13059 12.2657L4.14413 4.88195C3.73785 2.29899 0.43337 2.29899 0.0677109 4.89547V15.7953C0.392741 21.1641 3.64305 27.6147 9.76445 27.8176C10.0759 27.8311 10.6041 27.8176 10.8479 27.8176C10.9427 27.8176 10.9698 27.804 10.9562 27.804C10.875 27.804 10.7937 27.804 10.7125 27.804C10.6583 27.804 10.6177 27.804 10.577 27.7905C10.4281 27.7635 10.3333 27.7499 10.1978 27.7229Z" fill="#F16D89"/>
</g>
<defs>
<linearGradient id="paint0_linear_169_2" x1="74.8646" y1="58.909" x2="43.8575" y2="38.1263" gradientUnits="userSpaceOnUse">
<stop stop-color="white" stop-opacity="0"/>
<stop offset="1" stop-color="white"/>
</linearGradient>
<linearGradient id="paint1_linear_169_2" x1="15.7106" y1="20.2731" x2="14.2728" y2="11.0521" gradientUnits="userSpaceOnUse">
<stop stop-color="white" stop-opacity="0"/>
<stop offset="1" stop-color="white"/>
</linearGradient>
<linearGradient id="paint2_linear_169_2" x1="5.32921" y1="7.00283" x2="15.8899" y2="29.1092" gradientUnits="userSpaceOnUse">
<stop stop-color="white" stop-opacity="0"/>
<stop offset="1" stop-color="white"/>
</linearGradient>
</defs>
</svg>
