<svg width="54" height="54" viewBox="0 0 54 54" fill="none" xmlns="http://www.w3.org/2000/svg">
<rect width="54" height="54" rx="4" fill="#DCFFFD"/>
<g clip-path="url(#clip0_1_3)">
<path d="M37.7773 35.0418H15.9575C14.8778 35.0418 14 34.164 14 33.0843V19.7099C14 18.6303 14.8778 17.7524 15.9575 17.7524C16.2097 17.7524 16.4166 17.9593 16.4166 18.2115C16.4166 18.4638 16.2097 18.6706 15.9575 18.6706C15.3823 18.6706 14.9182 19.1348 14.9182 19.7099V33.0843C14.9182 33.6595 15.3823 34.1236 15.9575 34.1236H37.7773C38.3524 34.1236 38.8166 33.6595 38.8166 33.0843V19.7099C38.8166 19.1348 38.3524 18.6706 37.7773 18.6706C37.525 18.6706 37.3182 18.4638 37.3182 18.2115C37.3182 17.9593 37.525 17.7524 37.7773 17.7524C38.8569 17.7524 39.7348 18.6303 39.7348 19.7099V33.0843C39.7348 34.164 38.8569 35.0418 37.7773 35.0418Z" fill="#49D6CD"/>
<path d="M39.2757 32.7514H14.4591C14.2068 32.7514 14 32.5445 14 32.2923C14 32.04 14.2068 31.8332 14.4591 31.8332H39.2757C39.5279 31.8332 39.7348 32.04 39.7348 32.2923C39.7348 32.5445 39.5279 32.7514 39.2757 32.7514Z" fill="#49D6CD"/>
<path d="M28.4135 37.5139H25.3209C25.0687 37.5139 24.8618 37.307 24.8618 37.0548V34.5827C24.8618 34.3304 25.0687 34.1236 25.3209 34.1236H28.4135C28.6658 34.1236 28.8726 34.3304 28.8726 34.5827V37.0548C28.8726 37.307 28.6658 37.5139 28.4135 37.5139ZM25.78 36.5957H27.9544V35.0418H25.78V36.5957Z" fill="#49D6CD"/>
<path d="M30.9514 41H22.7885C22.5716 41 22.3849 40.8487 22.3395 40.6368C22.2941 40.4249 22.4001 40.213 22.5968 40.1222C24.3475 39.3301 24.2516 37.1002 24.2516 37.075C24.2466 36.9489 24.292 36.8278 24.3777 36.737C24.4635 36.6462 24.5846 36.5957 24.7107 36.5957H29.0242C29.1503 36.5957 29.2714 36.6462 29.3572 36.737C29.443 36.8278 29.4884 36.9489 29.4833 37.075C29.4783 37.1658 29.4026 39.3301 31.1381 40.1222C31.3348 40.213 31.4408 40.4249 31.3954 40.6368C31.35 40.8487 31.1633 41 30.9514 41ZM24.1608 40.0818H29.5741C28.8224 39.2191 28.6257 38.1294 28.5803 37.5139H25.1597C25.1093 38.1344 24.9125 39.2191 24.1608 40.0818Z" fill="#49D6CD"/>
<path d="M33.2014 41H20.5333C20.2811 41 20.0742 40.7932 20.0742 40.5409C20.0742 40.2887 20.2811 40.0818 20.5333 40.0818H33.2014C33.4537 40.0818 33.6605 40.2887 33.6605 40.5409C33.6605 40.7932 33.4587 41 33.2014 41Z" fill="#49D6CD"/>
<path d="M28.6861 32.7514H25.0486C24.7964 32.7514 24.5895 32.5445 24.5895 32.2923V25.1233C24.4785 25.1535 24.3625 25.1737 24.2414 25.1737H24.1657C23.4695 25.1737 22.8994 24.6036 22.8994 23.9074V19.9117C22.8994 18.7816 23.8176 17.8634 24.9477 17.8634H28.7819C29.912 17.8634 30.8302 18.7816 30.8302 19.9117V23.9074C30.8302 24.6036 30.2601 25.1737 29.5639 25.1737H29.4882C29.3672 25.1737 29.2511 25.1586 29.1401 25.1233V32.2923C29.1452 32.5445 28.9434 32.7514 28.6861 32.7514ZM25.5077 31.8332H28.232V23.9074C28.232 23.6551 28.4389 23.4483 28.6911 23.4483C28.9434 23.4483 29.1502 23.6551 29.1502 23.9074C29.1502 24.0991 29.3066 24.2555 29.4983 24.2555H29.574C29.7657 24.2555 29.9221 24.0991 29.9221 23.9074V19.9117C29.9221 19.2861 29.4126 18.7816 28.792 18.7816H24.9578C24.3322 18.7816 23.8277 19.2912 23.8277 19.9117V23.9074C23.8277 24.0991 23.9841 24.2555 24.1758 24.2555H24.2515C24.4432 24.2555 24.5996 24.0991 24.5996 23.9074C24.5996 23.6551 24.8064 23.4483 25.0587 23.4483C25.3109 23.4483 25.5178 23.6551 25.5178 23.9074V31.8332H25.5077Z" fill="#49D6CD"/>
<path d="M25.0485 24.3665C24.7962 24.3665 24.5894 24.1597 24.5894 23.9074V21.1932C24.5894 20.9409 24.7962 20.7341 25.0485 20.7341C25.3007 20.7341 25.5076 20.9409 25.5076 21.1932V23.9074C25.5076 24.1597 25.3007 24.3665 25.0485 24.3665Z" fill="#49D6CD"/>
<path d="M28.6862 24.3665C28.4339 24.3665 28.2271 24.1597 28.2271 23.9074V21.1932C28.2271 20.9409 28.4339 20.7341 28.6862 20.7341C28.9384 20.7341 29.1453 20.9409 29.1453 21.1932V23.9074C29.1453 24.1597 28.9434 24.3665 28.6862 24.3665Z" fill="#49D6CD"/>
<path d="M26.8699 17.4548C25.6944 17.4548 24.7358 16.4559 24.7358 15.2249C24.7358 13.9939 25.6944 12.995 26.8699 12.995C28.0454 12.995 29.0039 13.9939 29.0039 15.2249C28.9989 16.4559 28.0454 17.4548 26.8699 17.4548ZM26.8699 13.9182C26.1989 13.9182 25.6591 14.5034 25.6591 15.2299C25.6591 15.9514 26.2039 16.5416 26.8699 16.5416C27.5409 16.5416 28.0807 15.9564 28.0807 15.2299C28.0807 14.5034 27.5358 13.9182 26.8699 13.9182Z" fill="#49D6CD"/>
<path d="M26.8697 32.7514C26.6175 32.7514 26.4106 32.5445 26.4106 32.2923V26.1171C26.4106 25.8649 26.6175 25.658 26.8697 25.658C27.122 25.658 27.3288 25.8649 27.3288 26.1171V32.2872C27.3288 32.5445 27.122 32.7514 26.8697 32.7514Z" fill="#49D6CD"/>
<path d="M34.1398 31.3286C32.4951 31.3286 31.1582 29.9917 31.1582 28.347C31.1582 27.8122 31.3045 27.2825 31.5769 26.8285C31.7081 26.6115 31.9906 26.5409 32.2076 26.667C32.4245 26.7982 32.4951 27.0807 32.369 27.2977C32.1823 27.6155 32.0814 27.9787 32.0814 28.347C32.0814 29.4822 33.0047 30.4104 34.1449 30.4104C35.28 30.4104 36.2083 29.4872 36.2083 28.347C36.2083 28.0948 36.4151 27.8879 36.6674 27.8879C36.9196 27.8879 37.1265 28.0948 37.1265 28.347C37.1214 29.9917 35.7845 31.3286 34.1398 31.3286Z" fill="#49D6CD"/>
<path d="M35.8099 26.9193C35.704 26.9193 35.593 26.8789 35.5072 26.8033C34.9018 26.2685 33.9987 26.1373 33.2722 26.4753C33.0452 26.5813 32.7677 26.4804 32.6618 26.2533C32.5559 26.0213 32.6568 25.7488 32.8838 25.6429C33.9331 25.1535 35.2449 25.3402 36.1177 26.1121C36.3094 26.2786 36.3245 26.5712 36.158 26.7579C36.0622 26.8638 35.936 26.9193 35.8099 26.9193Z" fill="#49D6CD"/>
<path d="M35.0579 23.6299C33.7159 23.6299 32.6211 22.5351 32.6211 21.1932C32.6211 19.8512 33.7159 18.7564 35.0579 18.7564C36.3998 18.7564 37.4946 19.8512 37.4946 21.1932C37.4946 21.4454 37.2878 21.6523 37.0355 21.6523C36.7833 21.6523 36.5764 21.4454 36.5764 21.1932C36.5764 20.3557 35.8953 19.6746 35.0579 19.6746C34.2204 19.6746 33.5393 20.3557 33.5393 21.1932C33.5393 22.0306 34.2204 22.7117 35.0579 22.7117C35.406 22.7117 35.7339 22.5957 36.0063 22.3787C36.2031 22.2173 36.4906 22.2526 36.6521 22.4494C36.8085 22.6461 36.7782 22.9387 36.5815 23.0951C36.1476 23.4382 35.6078 23.6299 35.0579 23.6299Z" fill="#49D6CD"/>
<path d="M33.0752 21.6472H32.3185C32.0662 21.6472 31.8594 21.4404 31.8594 21.1881C31.8594 20.9359 32.0662 20.729 32.3185 20.729H33.0752C33.3275 20.729 33.5343 20.9359 33.5343 21.1881C33.5343 21.4454 33.3325 21.6472 33.0752 21.6472Z" fill="#49D6CD"/>
<path d="M34.4727 26.3088C34.4525 26.3088 34.4324 26.3088 34.4122 26.3038C34.1599 26.2685 33.9833 26.0364 34.0187 25.7892L34.3819 23.0952C34.4172 22.8429 34.6442 22.6663 34.8965 22.7016C35.1487 22.737 35.3253 22.969 35.29 23.2162L34.9268 25.9103C34.8965 26.1424 34.6997 26.3088 34.4727 26.3088Z" fill="#49D6CD"/>
<path d="M31.6172 28.8061H30.3761C30.1238 28.8061 29.917 28.5993 29.917 28.347C29.917 28.0948 30.1238 27.8879 30.3761 27.8879H31.6172C31.8694 27.8879 32.0763 28.0948 32.0763 28.347C32.0763 28.5993 31.8694 28.8061 31.6172 28.8061Z" fill="#49D6CD"/>
<path d="M19.5949 31.3287C17.9502 31.3287 16.6133 29.9917 16.6133 28.347C16.6133 28.0948 16.8201 27.8879 17.0724 27.8879C17.3246 27.8879 17.5315 28.0948 17.5315 28.347C17.5315 29.4822 18.4547 30.4105 19.5949 30.4105C20.7351 30.4105 21.6583 29.4872 21.6583 28.347C21.6583 27.9737 21.5574 27.6105 21.3708 27.2977C21.2396 27.0807 21.3153 26.7982 21.5322 26.667C21.7491 26.5359 22.0317 26.6115 22.1628 26.8285C22.4353 27.2876 22.5816 27.8123 22.5816 28.347C22.5765 29.9917 21.2396 31.3287 19.5949 31.3287Z" fill="#49D6CD"/>
<path d="M17.9248 26.9193C17.7987 26.9193 17.6726 26.8688 17.5817 26.7629C17.4153 26.5712 17.4304 26.2836 17.6221 26.1171C18.4949 25.3452 19.8016 25.1586 20.856 25.6479C21.0881 25.7539 21.1839 26.0263 21.078 26.2584C20.972 26.4905 20.6996 26.5863 20.4675 26.4804C19.741 26.1423 18.838 26.2735 18.2326 26.8083C18.1417 26.8789 18.0358 26.9193 17.9248 26.9193Z" fill="#49D6CD"/>
<path d="M18.677 23.6299C18.1271 23.6299 17.5822 23.4382 17.1534 23.0951C16.9566 22.9387 16.9213 22.6461 17.0828 22.4494C17.2392 22.2526 17.5318 22.2173 17.7285 22.3787C18.001 22.5957 18.3289 22.7117 18.677 22.7117C19.5145 22.7117 20.1955 22.0306 20.1955 21.1932C20.1955 20.3557 19.5145 19.6746 18.677 19.6746C17.8395 19.6746 17.1584 20.3557 17.1584 21.1932C17.1584 21.4454 16.9516 21.6523 16.6993 21.6523C16.4471 21.6523 16.2402 21.4454 16.2402 21.1932C16.2402 19.8512 17.335 18.7564 18.677 18.7564C20.019 18.7564 21.1137 19.8512 21.1137 21.1932C21.1188 22.5351 20.024 23.6299 18.677 23.6299Z" fill="#49D6CD"/>
<path d="M21.4112 21.6472H20.6544C20.4022 21.6472 20.1953 21.4404 20.1953 21.1881C20.1953 20.9359 20.4022 20.729 20.6544 20.729H21.4112C21.6634 20.729 21.8703 20.9359 21.8703 21.1881C21.8703 21.4454 21.6685 21.6472 21.4112 21.6472Z" fill="#49D6CD"/>
<path d="M19.2622 26.3088C19.0352 26.3088 18.8384 26.1424 18.8082 25.9103L18.4449 23.2162C18.4096 22.964 18.5862 22.7319 18.8384 22.7016C19.0907 22.6663 19.3228 22.8429 19.353 23.0952L19.7163 25.7892C19.7516 26.0415 19.575 26.2735 19.3228 26.3038C19.3026 26.3038 19.2824 26.3088 19.2622 26.3088Z" fill="#49D6CD"/>
<path d="M23.3584 28.8061H22.1173C21.865 28.8061 21.6582 28.5993 21.6582 28.347C21.6582 28.0948 21.865 27.8879 22.1173 27.8879H23.3584C23.6106 27.8879 23.8175 28.0948 23.8175 28.347C23.8175 28.5993 23.6157 28.8061 23.3584 28.8061Z" fill="#49D6CD"/>
</g>
<defs>
<clipPath id="clip0_1_3">
<rect width="25.7348" height="28" fill="white" transform="translate(14 13)"/>
</clipPath>
</defs>
</svg>
