<svg width="54" height="54" viewBox="0 0 54 54" fill="none" xmlns="http://www.w3.org/2000/svg">
<rect width="54" height="54" rx="4" fill="#E7FFE3"/>
<g clip-path="url(#clip0_1_3)">
<path d="M29.791 28.8029C29.6809 28.8019 29.5748 28.7612 29.4922 28.6884C29.0882 28.2998 28.79 27.8147 28.6256 27.2789C27.6595 27.6248 26.6034 27.6248 25.6373 27.2789C25.475 27.8157 25.1765 28.3012 24.7707 28.6884C24.7263 28.7279 24.6744 28.7584 24.6182 28.7779C24.562 28.7974 24.5024 28.8057 24.443 28.8022C24.3836 28.7988 24.3254 28.7836 24.2718 28.7577C24.2183 28.7317 24.1703 28.6955 24.1308 28.651C24.0912 28.6065 24.0608 28.5547 24.0412 28.4985C24.0217 28.4422 24.0134 28.3827 24.0169 28.3233C24.0204 28.2639 24.0355 28.2057 24.0614 28.1521C24.0874 28.0985 24.1236 28.0506 24.1681 28.011C24.5537 27.6056 24.8132 27.0969 24.9152 26.5468C24.9319 26.4816 24.9629 26.421 25.006 26.3693C25.0491 26.3176 25.1031 26.2762 25.1642 26.248C25.2247 26.2185 25.2911 26.2031 25.3584 26.2031C25.4257 26.2031 25.4922 26.2185 25.5527 26.248C26.0399 26.494 26.5782 26.6221 27.124 26.6221C27.6698 26.6221 28.2081 26.494 28.6953 26.248C28.7567 26.2184 28.8239 26.203 28.892 26.203C28.9602 26.203 29.0274 26.2184 29.0888 26.248C29.1495 26.2767 29.2032 26.3184 29.2462 26.37C29.2892 26.4216 29.3204 26.4819 29.3378 26.5468C29.4398 27.0969 29.6993 27.6056 30.0849 28.011C30.1294 28.0504 30.1656 28.0982 30.1915 28.1516C30.2174 28.2051 30.2324 28.2632 30.2357 28.3225C30.2389 28.3818 30.2303 28.4412 30.2104 28.4971C30.1905 28.5531 30.1597 28.6046 30.1197 28.6485C30.0783 28.6953 30.0278 28.7331 29.9713 28.7597C29.9148 28.7862 29.8534 28.8009 29.791 28.8029Z" fill="#3BA42A"/>
<path d="M31.6036 23.0953C31.354 23.094 31.1088 23.0289 30.8914 22.9061C30.8201 22.8678 30.7602 22.8112 30.7182 22.742C30.6762 22.6728 30.6534 22.5936 30.6523 22.5126V19.7883C30.6536 19.7068 30.6763 19.6269 30.7183 19.557C30.7603 19.487 30.82 19.4294 30.8914 19.3899C31.1093 19.2684 31.3541 19.2033 31.6036 19.2007C32.0487 19.2967 32.4475 19.5424 32.7335 19.8967C33.0196 20.251 33.1756 20.6926 33.1756 21.148C33.1756 21.6034 33.0196 22.045 32.7335 22.3993C32.4475 22.7537 32.0487 22.9993 31.6036 23.0953ZM31.5638 22.1889C31.9871 22.2138 32.3706 21.7307 32.3706 21.148C32.3706 20.5653 31.9871 20.0772 31.5638 20.1121V22.1889Z" fill="#3BA42A"/>
<path d="M22.6686 23.0953C22.2235 22.9993 21.8247 22.7537 21.5387 22.3993C21.2527 22.045 21.0967 21.6034 21.0967 21.148C21.0967 20.6926 21.2527 20.251 21.5387 19.8967C21.8247 19.5424 22.2235 19.2967 22.6686 19.2007C22.9181 19.2033 23.163 19.2684 23.3808 19.3899C23.4516 19.4296 23.5106 19.4874 23.5518 19.5575C23.5929 19.6275 23.6147 19.7071 23.6149 19.7883V22.5126C23.6149 22.5932 23.5931 22.6723 23.5519 22.7415C23.5107 22.8107 23.4516 22.8676 23.3808 22.9061C23.1634 23.0289 22.9183 23.094 22.6686 23.0953ZM22.6686 20.1071C22.2503 20.1071 21.9016 20.5802 21.9016 21.143C21.9016 21.7058 22.2801 22.2088 22.7085 22.1839V20.1071H22.6686Z" fill="#3BA42A"/>
<path d="M27.1361 27.5329C25.9622 27.5316 24.8368 27.0647 24.0068 26.2346C23.1767 25.4046 22.7098 24.2792 22.7085 23.1053V18.842C22.7092 18.7719 22.7257 18.7028 22.7568 18.6398C22.7878 18.5769 22.8326 18.5218 22.8878 18.4785C22.9439 18.4359 23.009 18.407 23.0782 18.3941C23.1474 18.3811 23.2186 18.3844 23.2862 18.4038C23.2862 18.4038 24.9796 18.8719 26.0504 19.2056C27.8284 19.7535 30.4581 18.8171 30.8067 18.5034C30.8727 18.4425 30.9554 18.4028 31.0442 18.3895C31.133 18.3761 31.2238 18.3898 31.3047 18.4287C31.3847 18.4642 31.4526 18.5222 31.5004 18.5956C31.5481 18.6689 31.5735 18.7545 31.5737 18.842V23.0854C31.5756 23.6691 31.4623 24.2475 31.2401 24.7874C31.0179 25.3272 30.6913 25.8178 30.2789 26.2311C29.8666 26.6444 29.3767 26.9721 28.8374 27.1955C28.298 27.4189 27.7199 27.5336 27.1361 27.5329ZM23.6149 19.4596V23.1053C23.5971 23.5785 23.675 24.0504 23.8438 24.4929C24.0126 24.9353 24.2689 25.3392 24.5974 25.6803C24.9259 26.0214 25.3198 26.2927 25.7556 26.478C26.1914 26.6633 26.6601 26.7589 27.1336 26.7589C27.6072 26.7589 28.0759 26.6633 28.5116 26.478C28.9474 26.2927 29.3413 26.0214 29.6698 25.6803C29.9983 25.3392 30.2546 24.9353 30.4235 24.4929C30.5923 24.0504 30.6701 23.5785 30.6523 23.1053V19.619C29.5168 20.117 27.4399 20.6151 25.7814 20.0921C25.1141 19.8829 24.2026 19.624 23.6149 19.4596Z" fill="#3BA42A"/>
<path d="M32.8241 21.6012C32.7039 21.6012 32.5886 21.5534 32.5037 21.4684C32.4187 21.3835 32.3709 21.2682 32.3709 21.148C32.3709 20.4607 31.833 19.9078 31.325 20.1867C31.2557 20.2234 31.1781 20.2417 31.0997 20.2398C31.0213 20.2379 30.9447 20.2159 30.8772 20.1759C30.8098 20.1359 30.7537 20.0793 30.7144 20.0114C30.675 19.9436 30.6538 19.8667 30.6527 19.7883V19.614C29.5171 20.112 27.4403 20.6101 25.7818 20.0871C25.1144 19.8829 24.203 19.624 23.6153 19.4596V19.7883C23.6151 19.8666 23.5947 19.9435 23.556 20.0115C23.5173 20.0795 23.4616 20.1363 23.3944 20.1765C23.3272 20.2166 23.2508 20.2386 23.1725 20.2404C23.0943 20.2422 23.0169 20.2237 22.9479 20.1867C22.4499 19.9078 21.902 20.4607 21.902 21.148C21.902 21.2682 21.8543 21.3835 21.7693 21.4684C21.6843 21.5534 21.569 21.6012 21.4488 21.6012C21.3286 21.6012 21.2133 21.5534 21.1283 21.4684C21.0433 21.3835 20.9956 21.2682 20.9956 21.148V16.6357C20.9955 16.5812 21.0056 16.5271 21.0255 16.4763C21.2048 15.5848 22.2756 14.9274 23.5705 14.9274C23.6701 14.9274 23.7747 14.9274 23.8743 14.9274C23.9754 14.3873 24.2603 13.8987 24.6806 13.5447C25.1009 13.1906 25.6307 12.9929 26.1802 12.985C26.6452 12.9869 27.0991 13.1278 27.4834 13.3896C27.8677 13.6514 28.1649 14.0222 28.3368 14.4543C28.6767 14.2398 29.0704 14.1259 29.4723 14.1256C29.8122 14.1237 30.1474 14.2043 30.4492 14.3605C30.7511 14.5166 31.0106 14.7436 31.2055 15.022C31.3506 14.9863 31.4994 14.968 31.6487 14.9673C32.0624 14.951 32.4658 15.099 32.7708 15.3789C33.0759 15.6587 33.2579 16.0478 33.2773 16.4614V21.1281C33.28 21.1892 33.2703 21.2503 33.2487 21.3076C33.2272 21.3649 33.1942 21.4173 33.1519 21.4615C33.1095 21.5057 33.0586 21.5409 33.0023 21.5649C32.946 21.5889 32.8854 21.6012 32.8241 21.6012ZM31.6039 19.2006C31.8749 19.2013 32.1405 19.2771 32.3709 19.4198V16.4813C32.352 16.3077 32.2658 16.1483 32.1308 16.0375C31.9958 15.9267 31.8227 15.8733 31.6487 15.8886C31.5038 15.889 31.3614 15.9267 31.2354 15.9982C31.1792 16.0317 31.1165 16.0527 31.0515 16.0597C30.9865 16.0667 30.9207 16.0595 30.8588 16.0387C30.7968 16.0179 30.74 15.9839 30.6924 15.9391C30.6448 15.8943 30.6075 15.8397 30.5829 15.7791C30.4952 15.5785 30.3546 15.4055 30.1763 15.2785C29.998 15.1515 29.7885 15.0753 29.5703 15.0579C29.3521 15.0405 29.1332 15.0827 28.937 15.1798C28.7408 15.277 28.5747 15.4256 28.4563 15.6097C28.4045 15.6921 28.3276 15.7556 28.237 15.7908C28.1463 15.8261 28.0467 15.8313 27.9529 15.8056C27.8591 15.7799 27.7761 15.7247 27.716 15.6482C27.656 15.5717 27.6222 15.4779 27.6196 15.3806C27.6285 15.1842 27.5972 14.988 27.5276 14.804C27.458 14.6201 27.3516 14.4523 27.2149 14.311C27.0782 14.1696 26.914 14.0577 26.7325 13.982C26.551 13.9063 26.3559 13.8685 26.1593 13.8709C25.9626 13.8733 25.7685 13.9158 25.5889 13.9958C25.4093 14.0758 25.2479 14.1917 25.1146 14.3363C24.9814 14.481 24.879 14.6513 24.8139 14.8368C24.7488 15.0224 24.7222 15.2193 24.7359 15.4155V15.4603C24.7367 15.5283 24.7218 15.5955 24.6925 15.6569C24.6631 15.7182 24.62 15.7719 24.5666 15.8139C24.5137 15.8571 24.4517 15.8876 24.3852 15.9031C24.3187 15.9187 24.2496 15.9188 24.1831 15.9036C23.982 15.858 23.7766 15.8346 23.5705 15.8339C22.6391 15.8339 21.9568 16.2771 21.907 16.6905C21.907 16.6905 21.907 16.6905 21.907 16.7253V19.4198C22.1495 19.2716 22.4298 19.1972 22.7138 19.2056V18.842C22.7146 18.7719 22.7311 18.7028 22.7621 18.6398C22.7931 18.5769 22.8379 18.5218 22.8932 18.4785C22.9492 18.4359 23.0144 18.407 23.0836 18.3941C23.1527 18.3811 23.2239 18.3844 23.2916 18.4038C23.2916 18.4038 24.9849 18.8719 26.0557 19.2056C27.8337 19.7535 30.4634 18.8171 30.812 18.5034C30.878 18.4425 30.9608 18.4028 31.0496 18.3895C31.1384 18.3761 31.2291 18.3898 31.3101 18.4287C31.39 18.4642 31.458 18.5222 31.5057 18.5956C31.5534 18.6689 31.5789 18.7545 31.579 18.842V19.1857L31.6039 19.2006Z" fill="#3BA42A"/>
<path d="M33.5861 39.4312H21.0952C20.9821 39.4315 20.8731 39.3891 20.7899 39.3124C20.7068 39.2358 20.6557 39.1305 20.6469 39.0178L19.8899 30.9843C19.8836 30.9212 19.8907 30.8574 19.9106 30.7971C19.9306 30.7368 19.963 30.6814 20.0057 30.6345C20.0484 30.5875 20.1006 30.5501 20.1587 30.5245C20.2168 30.499 20.2796 30.486 20.3431 30.4863H34.3382C34.4006 30.4869 34.4623 30.5 34.5196 30.5248C34.5769 30.5496 34.6287 30.5856 34.6718 30.6307C34.7142 30.6777 34.7462 30.7329 34.766 30.7929C34.7857 30.853 34.7927 30.9165 34.7864 30.9794L34.0344 39.0128C34.0268 39.1264 33.9762 39.2329 33.893 39.3106C33.8097 39.3883 33.7 39.4314 33.5861 39.4312ZM21.5086 38.5247H33.1727L33.8401 31.3977H20.8412L21.5086 38.5247Z" fill="#3BA42A"/>
<path d="M34.064 41H20.6168C20.3748 40.9984 20.1396 40.9192 19.9459 40.7739C19.7523 40.6287 19.6104 40.4251 19.541 40.1932L19.4713 39.9591C19.4215 39.7921 19.4115 39.6157 19.4422 39.4441C19.4729 39.2725 19.5433 39.1104 19.6479 38.971C19.7525 38.8315 19.8883 38.7185 20.0445 38.641C20.2006 38.5635 20.3728 38.5237 20.5471 38.5247H34.1337C34.3082 38.5245 34.4804 38.5651 34.6365 38.6431C34.7926 38.7212 34.9283 38.8347 35.0328 38.9745C35.1373 39.1143 35.2077 39.2765 35.2383 39.4484C35.269 39.6202 35.2591 39.7968 35.2095 39.9641L35.1398 40.1932C35.0705 40.4251 34.9285 40.6287 34.7349 40.7739C34.5412 40.9192 34.3061 40.9984 34.064 41ZM20.5471 39.4312C20.5134 39.4302 20.4799 39.4374 20.4495 39.4521C20.4192 39.4669 20.3929 39.4887 20.3728 39.5159C20.3535 39.5429 20.3407 39.5741 20.3355 39.6069C20.3303 39.6398 20.3328 39.6734 20.3429 39.7051L20.4076 39.9392C20.4221 39.9835 20.4501 40.0221 20.4876 40.0498C20.525 40.0775 20.5702 40.0928 20.6168 40.0936H34.064C34.1101 40.0933 34.1549 40.0781 34.1917 40.0503C34.2285 40.0224 34.2553 39.9835 34.2682 39.9392L34.3379 39.7051C34.3486 39.6732 34.351 39.6391 34.3449 39.606C34.3388 39.5729 34.3244 39.5419 34.303 39.5159C34.2838 39.4891 34.2583 39.4674 34.2288 39.4527C34.1993 39.438 34.1667 39.4306 34.1337 39.4312H20.5471Z" fill="#3BA42A"/>
<path d="M37.8195 41H16.4435C16.3839 41 16.325 40.9883 16.27 40.9655C16.215 40.9427 16.1651 40.9093 16.123 40.8673C16.0809 40.8252 16.0475 40.7752 16.0247 40.7202C16.002 40.6652 15.9902 40.6063 15.9902 40.5468V34.5703C15.9916 32.802 16.6946 31.1065 17.9449 29.8562C19.1953 28.6058 20.8908 27.9028 22.659 27.9015H24.4719C24.5599 27.902 24.6458 27.9282 24.7192 27.9768C24.7925 28.0254 24.8502 28.0943 24.885 28.1751C24.9199 28.2559 24.9305 28.3451 24.9155 28.4319C24.9005 28.5186 24.8606 28.5991 24.8006 28.6635C24.6512 28.8059 24.5621 29.0002 24.5516 29.2063C24.5516 29.799 25.4431 30.3668 26.5786 30.5012C26.6982 30.5158 26.807 30.5772 26.8813 30.672C26.9556 30.7668 26.9891 30.8872 26.9746 31.0068C26.96 31.1263 26.8986 31.2352 26.8038 31.3094C26.709 31.3837 26.5886 31.4172 26.4691 31.4027C24.8056 31.2085 23.6452 30.302 23.6452 29.2063C23.6459 29.0717 23.6643 28.9377 23.7 28.8079H22.669C21.1411 28.8092 19.6762 29.4167 18.5958 30.4971C17.5155 31.5775 16.908 33.0424 16.9066 34.5703V40.1035H37.3613V34.5603C37.3586 33.0342 36.7512 31.5713 35.6721 30.4921C34.5929 29.413 33.13 28.8055 31.6039 28.8029H30.563C30.5986 28.9328 30.617 29.0667 30.6178 29.2013C30.6178 30.297 29.4573 31.1935 27.7939 31.3977C27.7353 31.4047 27.676 31.4 27.6192 31.384C27.5625 31.3679 27.5095 31.3409 27.4632 31.3043C27.4169 31.2678 27.3784 31.2225 27.3496 31.171C27.3209 31.1195 27.3026 31.0628 27.2958 31.0043C27.2831 30.8863 27.3172 30.768 27.3908 30.6749C27.4644 30.5818 27.5715 30.5212 27.6893 30.5062C28.8248 30.3718 29.7163 29.804 29.7163 29.2113C29.7058 29.0052 29.6167 28.8109 29.4673 28.6684C29.4073 28.604 29.3674 28.5236 29.3524 28.4368C29.3374 28.3501 29.348 28.2609 29.3829 28.1801C29.4177 28.0993 29.4754 28.0304 29.5487 27.9818C29.6221 27.9332 29.708 27.907 29.796 27.9064H31.6089C33.3772 27.9078 35.0726 28.6108 36.323 29.8611C37.5733 31.1115 38.2764 32.807 38.2777 34.5752V40.5518C38.277 40.6113 38.2647 40.6701 38.2413 40.7248C38.2179 40.7796 38.184 40.8292 38.1414 40.8708C38.0989 40.9124 38.0485 40.9452 37.9933 40.9674C37.9381 40.9896 37.879 41.0006 37.8195 41Z" fill="#3BA42A"/>
</g>
<defs>
<clipPath id="clip0_1_3">
<rect width="22.2725" height="28" fill="white" transform="translate(16 13)"/>
</clipPath>
</defs>
</svg>
