<svg width="54" height="54" viewBox="0 0 54 54" fill="none" xmlns="http://www.w3.org/2000/svg">
<rect width="54" height="54" rx="4" fill="#F5EEFF"/>
<g clip-path="url(#clip0_1_3)">
<path d="M24.369 30.3923C24.3062 30.3923 24.2441 30.38 24.1861 30.356C24.1281 30.3319 24.0754 30.2967 24.0311 30.2524C23.9867 30.208 23.9515 30.1553 23.9275 30.0973C23.9035 30.0394 23.8911 29.9772 23.8911 29.9145V27.8927C23.8911 27.766 23.9414 27.6444 24.0311 27.5548C24.1207 27.4652 24.2422 27.4149 24.369 27.4149C24.4957 27.4149 24.6173 27.4652 24.7069 27.5548C24.7965 27.6444 24.8468 27.766 24.8468 27.8927V29.9145C24.8468 30.0412 24.7965 30.1628 24.7069 30.2524C24.6173 30.342 24.4957 30.3923 24.369 30.3923Z" fill="#A762FF"/>
<path d="M25.9603 30.3923C25.8335 30.3923 25.712 30.342 25.6224 30.2524C25.5328 30.1627 25.4824 30.0412 25.4824 29.9145V26.2385C25.4824 26.1118 25.5328 25.9903 25.6224 25.9006C25.712 25.811 25.8335 25.7607 25.9603 25.7607C26.087 25.7607 26.2086 25.811 26.2982 25.9006C26.3878 25.9903 26.4381 26.1118 26.4381 26.2385V29.9145C26.4381 30.0412 26.3878 30.1627 26.2982 30.2524C26.2086 30.342 26.087 30.3923 25.9603 30.3923Z" fill="#A762FF"/>
<path d="M27.5516 30.3713C27.4249 30.3713 27.3033 30.321 27.2137 30.2314C27.1241 30.1418 27.0737 30.0202 27.0737 29.8935V26.2176C27.0737 26.0908 27.1241 25.9693 27.2137 25.8797C27.3033 25.79 27.4249 25.7397 27.5516 25.7397C27.6783 25.7397 27.7999 25.79 27.8895 25.8797C27.9791 25.9693 28.0295 26.0908 28.0295 26.2176V29.8935C28.0295 30.0202 27.9791 30.1418 27.8895 30.2314C27.7999 30.321 27.6783 30.3713 27.5516 30.3713Z" fill="#A762FF"/>
<path d="M29.1424 33.1545C29.0157 33.1545 28.8941 33.1042 28.8045 33.0146C28.7149 32.925 28.6646 32.8034 28.6646 32.6767V29.5889C28.6646 29.4622 28.7149 29.3406 28.8045 29.251C28.8941 29.1614 29.0157 29.111 29.1424 29.111C29.2692 29.111 29.3907 29.1614 29.4803 29.251C29.5699 29.3406 29.6203 29.4622 29.6203 29.5889V32.6767C29.6203 32.8034 29.5699 32.925 29.4803 33.0146C29.3907 33.1042 29.2692 33.1545 29.1424 33.1545Z" fill="#A762FF"/>
<path d="M29.1424 38.6947H23.4605C23.3978 38.6947 23.3356 38.6823 23.2777 38.6583C23.2197 38.6343 23.167 38.5991 23.1226 38.5547C23.0782 38.5103 23.043 38.4577 23.019 38.3997C22.995 38.3417 22.9826 38.2796 22.9826 38.2168V37.0825C22.9814 36.333 22.8681 35.5878 22.6466 34.8717L22.5573 34.5934C22.3883 34.0384 22.3016 33.4616 22.3 32.8815V27.94C22.2951 27.6485 22.3882 27.3638 22.5644 27.1315C22.7405 26.8992 22.9895 26.7327 23.2715 26.6587C23.4747 26.6062 23.6879 26.6062 23.8911 26.6587V26.2753C23.8881 25.9843 23.9819 25.7005 24.1578 25.4685C24.3336 25.2366 24.5816 25.0697 24.8626 24.994C25.0993 24.9411 25.3457 24.952 25.5768 25.0255C25.6688 24.7853 25.8315 24.5787 26.0434 24.4329C26.2553 24.2871 26.5064 24.2091 26.7636 24.2091C27.0208 24.2091 27.2719 24.2871 27.4838 24.4329C27.6957 24.5787 27.8584 24.7853 27.9504 25.0255C28.1449 24.9597 28.3524 24.9423 28.5552 24.9746C28.7579 25.007 28.9497 25.0882 29.1141 25.2112C29.2784 25.3342 29.4104 25.4953 29.4986 25.6807C29.5868 25.8661 29.6286 26.0702 29.6203 26.2753V28.1973C29.8189 28.1192 30.0321 28.0852 30.2452 28.0975C30.6361 28.1355 30.9987 28.3181 31.262 28.6095C31.5252 28.9009 31.6702 29.2802 31.6683 29.6729V32.7502C31.6694 33.4873 31.3896 34.1971 30.8859 34.7352L29.7358 35.9692C29.6623 36.0496 29.6212 36.1544 29.6203 36.2633V38.2431C29.6136 38.3652 29.5603 38.4801 29.4714 38.5641C29.3825 38.6481 29.2648 38.6949 29.1424 38.6947ZM23.9384 37.7389H28.6646V36.2528C28.6637 35.9017 28.7971 35.5635 29.0374 35.3076L30.1875 34.0735C30.5247 33.7112 30.7124 33.2347 30.7126 32.7397V29.6624C30.7104 29.5165 30.6563 29.3762 30.5601 29.2665C30.4639 29.1568 30.3318 29.0849 30.1875 29.0638C30.1135 29.0583 30.0392 29.0686 29.9695 29.094C29.8998 29.1193 29.8363 29.1591 29.7831 29.2108C29.728 29.2605 29.6841 29.3213 29.6543 29.3892C29.6244 29.4571 29.6092 29.5305 29.6098 29.6047C29.6098 29.6674 29.5974 29.7295 29.5734 29.7875C29.5494 29.8455 29.5142 29.8982 29.4698 29.9426C29.4255 29.9869 29.3728 30.0221 29.3148 30.0461C29.2568 30.0702 29.1947 30.0825 29.1319 30.0825C29.0692 30.0825 29.007 30.0702 28.9491 30.0461C28.8911 30.0221 28.8384 29.9869 28.794 29.9426C28.7497 29.8982 28.7145 29.8455 28.6904 29.7875C28.6664 29.7295 28.6541 29.6674 28.6541 29.6047V26.2753C28.6586 26.1996 28.6386 26.1244 28.597 26.061C28.5553 25.9976 28.4943 25.9494 28.423 25.9235C28.3741 25.9113 28.323 25.9107 28.2738 25.9216C28.2246 25.9325 28.1786 25.9548 28.1394 25.9865C28.102 26.0158 28.0716 26.0533 28.0507 26.096C28.0298 26.1388 28.0188 26.1857 28.0187 26.2333C28.0187 26.36 27.9683 26.4816 27.8787 26.5712C27.7891 26.6608 27.6675 26.7112 27.5408 26.7112C27.414 26.7112 27.2925 26.6608 27.2029 26.5712C27.1133 26.4816 27.0629 26.36 27.0629 26.2333V25.4771C27.0639 25.4281 27.0534 25.3794 27.0322 25.3352C27.0111 25.2909 26.9799 25.2522 26.9411 25.2221C26.9024 25.192 26.8571 25.1713 26.809 25.1618C26.7608 25.1523 26.7111 25.1542 26.6638 25.1673C26.5916 25.1923 26.5294 25.2402 26.4867 25.3036C26.4441 25.3671 26.4233 25.4428 26.4275 25.5191V26.2333C26.4275 26.36 26.3772 26.4816 26.2875 26.5712C26.1979 26.6608 26.0764 26.7112 25.9496 26.7112C25.8229 26.7112 25.7014 26.6608 25.6117 26.5712C25.5221 26.4816 25.4718 26.36 25.4718 26.2333C25.4724 26.1856 25.4618 26.1384 25.4408 26.0955C25.4198 26.0526 25.3891 26.0153 25.351 25.9865C25.3126 25.9552 25.2675 25.9332 25.2192 25.9223C25.1709 25.9114 25.1208 25.9118 25.0727 25.9235C25.0004 25.9485 24.9382 25.9963 24.8956 26.0598C24.853 26.1233 24.8322 26.199 24.8364 26.2753V27.898C24.8364 28.0247 24.786 28.1463 24.6964 28.2359C24.6068 28.3255 24.4852 28.3758 24.3585 28.3758C24.2318 28.3758 24.1102 28.3255 24.0206 28.2359C23.931 28.1463 23.8806 28.0247 23.8806 27.898C23.8804 27.8504 23.8695 27.8035 23.8486 27.7607C23.8276 27.718 23.7973 27.6805 23.7598 27.6512C23.7212 27.6204 23.6759 27.5991 23.6276 27.5891C23.5792 27.5791 23.5292 27.5806 23.4815 27.5934C23.4093 27.6184 23.3471 27.6663 23.3044 27.7298C23.2618 27.7932 23.241 27.8689 23.2452 27.9452V32.8867C23.2457 33.3709 23.3183 33.8523 23.4605 34.3151L23.5498 34.5934C23.8006 35.4011 23.9281 36.242 23.9279 37.0878L23.9384 37.7389Z" fill="#A762FF"/>
<path d="M27.184 24.5739C27.1011 24.5735 27.0198 24.5518 26.9477 24.5109L25.5299 23.6917C25.4754 23.6603 25.4276 23.6185 25.3893 23.5686C25.351 23.5188 25.3228 23.4619 25.3065 23.4012C25.2902 23.3405 25.2859 23.2772 25.2941 23.2148C25.3022 23.1525 25.3225 23.0924 25.3539 23.0379C25.3853 22.9834 25.4271 22.9356 25.477 22.8973C25.5268 22.859 25.5837 22.8308 25.6444 22.8145C25.7051 22.7982 25.7684 22.794 25.8308 22.8021C25.8931 22.8102 25.9532 22.8306 26.0077 22.862L27.4256 23.6812C27.5346 23.7448 27.614 23.849 27.6465 23.971C27.679 24.093 27.6619 24.2229 27.5989 24.3323C27.558 24.4063 27.4979 24.4679 27.4248 24.5104C27.3518 24.553 27.2685 24.5749 27.184 24.5739Z" fill="#A762FF"/>
<path d="M25.9603 25.7029C25.8774 25.7025 25.7961 25.6808 25.724 25.6399L24.7315 25.0675C24.6215 25.0041 24.5411 24.8997 24.5081 24.7771C24.4752 24.6544 24.4922 24.5238 24.5556 24.4137C24.619 24.3037 24.7234 24.2234 24.846 24.1904C24.9687 24.1574 25.0993 24.1744 25.2094 24.2378L26.2019 24.8102C26.3113 24.8748 26.3908 24.98 26.4233 25.1028C26.4557 25.2257 26.4384 25.3564 26.3752 25.4666C26.3328 25.5389 26.2722 25.5988 26.1994 25.6403C26.1265 25.6818 26.0441 25.7034 25.9603 25.7029Z" fill="#A762FF"/>
<path d="M23.0143 27.6617C22.9299 27.6604 22.8471 27.6388 22.7728 27.5987L20.772 26.4434C20.662 26.38 20.5817 26.2755 20.5487 26.1529C20.5157 26.0303 20.5327 25.8996 20.5961 25.7896C20.6595 25.6796 20.764 25.5992 20.8866 25.5662C21.0092 25.5332 21.1399 25.5503 21.2499 25.6137L23.2507 26.7689C23.3421 26.8212 23.4137 26.9022 23.4543 26.9993C23.4949 27.0965 23.5024 27.2043 23.4754 27.3061C23.4485 27.4079 23.3887 27.4979 23.3053 27.5622C23.2219 27.6265 23.1196 27.6615 23.0143 27.6617Z" fill="#A762FF"/>
<path d="M22.7729 29.8777C22.7193 29.8771 22.6662 29.8682 22.6153 29.8515C22.5209 29.8213 22.4309 29.7789 22.3475 29.7254L19.6851 28.1921C19.0464 27.8242 18.5714 27.2272 18.3565 26.5221L17.8576 24.91C17.8277 24.8054 17.7579 24.7168 17.6633 24.6632L15.9462 23.6497C15.892 23.6187 15.8445 23.5772 15.8067 23.5276C15.7688 23.478 15.7412 23.4213 15.7256 23.3608C15.6939 23.2385 15.7108 23.1086 15.7729 22.9985L18.6138 18.078C18.6444 18.0231 18.6856 17.9748 18.7351 17.936C18.7845 17.8971 18.8412 17.8686 18.9019 17.8519C18.9625 17.8353 19.0259 17.831 19.0882 17.8391C19.1506 17.8473 19.2107 17.8678 19.265 17.8995L20.2522 18.4666C20.9065 18.8453 21.6149 19.1216 22.3528 19.2858L22.6416 19.3488C23.2076 19.4767 23.751 19.6892 24.2537 19.979L27.2417 21.7067C27.3517 21.7694 27.4322 21.8733 27.4657 21.9953C27.4992 22.1174 27.4828 22.2478 27.4203 22.3578C27.3565 22.4681 27.2518 22.5488 27.1288 22.5822C27.0059 22.6157 26.8747 22.5992 26.7639 22.5364L23.7759 20.8087C23.3558 20.569 22.9029 20.392 22.4315 20.2836L22.1427 20.2206C21.3163 20.0359 20.5229 19.726 19.7901 19.3016L19.223 18.9707L16.8599 23.0668L18.1622 23.8177C18.4658 23.9919 18.6913 24.2756 18.7924 24.6107L19.2912 26.2281C19.4347 26.7014 19.7542 27.1017 20.184 27.3466L22.8464 28.8852C22.8786 28.9031 22.9119 28.9189 22.9462 28.9325C23.0657 28.9732 23.1643 29.0595 23.2204 29.1727C23.2765 29.2858 23.2855 29.4166 23.2455 29.5364C23.2146 29.637 23.1518 29.7248 23.0665 29.7864C22.9812 29.848 22.8781 29.8801 22.7729 29.8777Z" fill="#A762FF"/>
<path d="M29.258 29.1793C29.1539 29.1783 29.053 29.1434 28.9706 29.0798C28.8882 29.0162 28.8288 28.9274 28.8014 28.8269C28.7741 28.7265 28.7803 28.6199 28.8191 28.5233C28.8579 28.4267 28.9272 28.3454 29.0164 28.2918L30.5918 27.3886C30.6461 27.3569 30.7062 27.3364 30.7686 27.3282C30.8309 27.3201 30.8943 27.3244 30.9549 27.341C31.0156 27.3577 31.0723 27.3862 31.1217 27.4251C31.1712 27.4639 31.2124 27.5122 31.243 27.5671C31.2756 27.6209 31.297 27.6808 31.306 27.7431C31.3149 27.8054 31.3111 27.8688 31.295 27.9296C31.2788 27.9904 31.2505 28.0473 31.2118 28.0969C31.1731 28.1465 31.1247 28.1878 31.0697 28.2183L29.4943 29.1163C29.4222 29.1572 29.3409 29.1789 29.258 29.1793Z" fill="#A762FF"/>
<path d="M29.2579 27.3256C29.1738 27.3244 29.0914 27.3016 29.0187 27.2593C28.946 27.217 28.8855 27.1566 28.843 27.084C28.78 26.9746 28.7629 26.8447 28.7954 26.7227C28.8278 26.6007 28.9073 26.4965 29.0163 26.4329L29.783 25.9917C29.8924 25.9288 30.0223 25.9116 30.1443 25.9441C30.2663 25.9766 30.3705 26.056 30.4342 26.165C30.4974 26.2752 30.5147 26.4059 30.4823 26.5288C30.4498 26.6517 30.3703 26.7568 30.2609 26.8215L29.4942 27.2573C29.4235 27.302 29.3415 27.3257 29.2579 27.3256Z" fill="#A762FF"/>
<path d="M28.7329 25.808C28.6276 25.8078 28.5253 25.7728 28.4419 25.7085C28.3585 25.6442 28.2987 25.5542 28.2718 25.4524C28.2448 25.3506 28.2522 25.2427 28.2929 25.1456C28.3335 25.0485 28.4051 24.9675 28.4966 24.9152L28.9692 24.6422C29.0792 24.5788 29.2099 24.5617 29.3325 24.5947C29.4551 24.6277 29.5596 24.7081 29.623 24.8181C29.6863 24.9281 29.7034 25.0588 29.6704 25.1814C29.6374 25.304 29.5571 25.4085 29.447 25.4719L28.9744 25.7449C28.9001 25.7851 28.8173 25.8067 28.7329 25.808Z" fill="#A762FF"/>
<path d="M28.15 24.3113C28.0659 24.3102 27.9835 24.2874 27.9108 24.245C27.8381 24.2027 27.7776 24.1424 27.7351 24.0698C27.6721 23.9604 27.655 23.8305 27.6875 23.7085C27.7199 23.5864 27.7994 23.4822 27.9084 23.4186L30.5866 21.8747C30.6951 21.8225 30.8193 21.8131 30.9344 21.8485C31.0494 21.8839 31.1469 21.9615 31.2073 22.0657C31.2677 22.1698 31.2865 22.293 31.26 22.4104C31.2335 22.5279 31.1637 22.631 31.0644 22.6992L28.3863 24.2431C28.3156 24.2878 28.2336 24.3114 28.15 24.3113Z" fill="#A762FF"/>
<path d="M31.2377 29.8777C31.1536 29.8766 31.0712 29.8538 30.9986 29.8114C30.9259 29.7691 30.8653 29.7087 30.8229 29.6362C30.7599 29.5267 30.7427 29.3969 30.7752 29.2748C30.8077 29.1528 30.8871 29.0486 30.9962 28.985L33.9421 27.2836C34.3606 27.0414 34.741 26.7388 35.0712 26.3856L35.2707 26.1703C35.8441 25.5491 36.508 25.018 37.24 24.5949L37.8123 24.2693L35.444 20.1733L34.1469 20.9295C33.843 21.1029 33.4849 21.1554 33.1439 21.0765L31.495 20.6984C31.014 20.586 30.5081 20.6631 30.0824 20.9137L27.4148 22.4471C27.2898 22.5216 27.1951 22.6376 27.1471 22.7749C27.0991 22.9122 27.1009 23.062 27.1522 23.1981C27.1834 23.2659 27.2286 23.3264 27.285 23.3754C27.3414 23.4244 27.4076 23.4608 27.4792 23.4821C27.5507 23.5035 27.626 23.5094 27.7001 23.4993C27.7741 23.4893 27.8451 23.4635 27.9084 23.4239C27.9626 23.3866 28.024 23.3609 28.0887 23.3485C28.1533 23.3361 28.2198 23.3371 28.2841 23.3516C28.3483 23.3661 28.4088 23.3937 28.4619 23.4327C28.5149 23.4716 28.5594 23.5212 28.5924 23.5781C28.6254 23.6351 28.6463 23.6982 28.6538 23.7637C28.6612 23.8291 28.6551 23.8953 28.6357 23.9582C28.6164 24.0212 28.5842 24.0794 28.5413 24.1293C28.4983 24.1793 28.4456 24.2198 28.3863 24.2483L27.0682 25.015C27.0138 25.0467 26.9538 25.0672 26.8914 25.0754C26.8291 25.0835 26.7657 25.0792 26.7051 25.0626C26.6444 25.0459 26.5877 25.0174 26.5382 24.9785C26.4888 24.9397 26.4476 24.8914 26.417 24.8365C26.3844 24.7827 26.363 24.7228 26.354 24.6605C26.3451 24.5982 26.3488 24.5348 26.365 24.474C26.3812 24.4132 26.4095 24.3563 26.4482 24.3067C26.4869 24.2571 26.5352 24.2158 26.5903 24.1853L26.7006 24.1223C26.5331 23.9889 26.3968 23.8204 26.3015 23.6287C26.1415 23.2748 26.1179 22.8743 26.2352 22.504C26.3524 22.1338 26.6023 21.8199 26.9369 21.6227L29.6045 20.084C30.2393 19.716 30.9903 19.6034 31.7051 19.769L33.3487 20.147C33.4561 20.1687 33.5676 20.152 33.6638 20.0998L35.3757 19.1073C35.4863 19.0454 35.6165 19.0289 35.739 19.0612C35.8615 19.0936 35.9666 19.1722 36.0322 19.2806L38.8731 24.2063C38.9361 24.3157 38.9532 24.4456 38.9208 24.5676C38.8883 24.6896 38.8089 24.7938 38.6998 24.8575L37.7178 25.4194C37.0702 25.7976 36.4811 26.2682 35.9691 26.8162L35.7696 27.0315C35.3772 27.4585 34.9222 27.8233 34.42 28.1133L31.4793 29.8147C31.405 29.8548 31.3221 29.8764 31.2377 29.8777Z" fill="#A762FF"/>
<path d="M38.6526 25.2251C38.5689 25.225 38.4867 25.2032 38.4139 25.1617C38.3412 25.1203 38.2805 25.0607 38.2377 24.9888L35.0187 19.4486C34.9554 19.3384 34.9382 19.2077 34.9706 19.0848C35.003 18.962 35.0826 18.8568 35.192 18.7922L36.9722 17.7419C37.0678 17.6856 37.1802 17.6648 37.2896 17.683C37.3991 17.7013 37.4986 17.7575 37.5708 17.8417C39.0514 19.5493 40.0949 21.5912 40.6113 23.7915C40.6353 23.8916 40.6263 23.9969 40.5856 24.0915C40.5449 24.1861 40.4747 24.2651 40.3855 24.3166L38.8941 25.1778C38.819 25.2139 38.7358 25.2302 38.6526 25.2251ZM36.0847 19.3383L38.8311 24.096L39.5978 23.6549C39.121 21.8626 38.271 20.1912 37.1034 18.7502L36.0847 19.3383Z" fill="#A762FF"/>
<path d="M15.9933 24.0645C15.9104 24.0641 15.829 24.0424 15.757 24.0015L13.9715 22.9512C13.8746 22.896 13.8003 22.8082 13.7618 22.7035C13.7234 22.5987 13.7233 22.4837 13.7615 22.3789C14.5122 20.2623 15.7603 18.3569 17.4006 16.823C17.4756 16.7528 17.571 16.7083 17.673 16.696C17.775 16.6838 17.8783 16.7043 17.9678 16.7547L19.4591 17.6159C19.5139 17.6475 19.5616 17.6898 19.5995 17.7404C19.6374 17.7909 19.6647 17.8486 19.6797 17.91C19.7114 18.0323 19.6945 18.1622 19.6324 18.2723L16.4081 23.8545C16.3626 23.9219 16.3006 23.9766 16.228 24.0134C16.1554 24.0501 16.0746 24.0677 15.9933 24.0645ZM14.796 22.3473L15.82 22.9355L18.5664 18.1778L17.7997 17.7367C16.4861 19.0458 15.4627 20.6167 14.796 22.3473Z" fill="#A762FF"/>
<path d="M26.9845 40.979C25.6147 40.9774 24.2524 40.7757 22.9409 40.3803C22.8425 40.351 22.7561 40.2907 22.6947 40.2084C22.6332 40.1261 22.5998 40.0262 22.5996 39.9235V38.1958C22.5996 38.0691 22.65 37.9475 22.7396 37.8579C22.8292 37.7683 22.9507 37.7179 23.0775 37.7179H29.5261C29.6528 37.7179 29.7744 37.7683 29.864 37.8579C29.9536 37.9475 30.004 38.0691 30.004 38.1958V40.2543C30.0047 40.3661 29.9662 40.4746 29.8952 40.561C29.8242 40.6473 29.7252 40.706 29.6154 40.7269C28.748 40.8914 27.8673 40.9758 26.9845 40.979ZM23.5554 39.5611C25.3447 40.0477 27.2171 40.1479 29.0482 39.8552V38.6737H23.5396L23.5554 39.5611Z" fill="#A762FF"/>
<path d="M26.9842 40.979C23.3928 40.9821 19.9377 39.6039 17.3345 37.1297C14.7313 34.6555 13.1793 31.2749 13 27.6879C12.995 27.6233 13.0029 27.5584 13.0232 27.4969C13.0436 27.4354 13.076 27.3786 13.1185 27.3297C13.161 27.2808 13.2128 27.2409 13.2709 27.2122C13.329 27.1836 13.3922 27.1668 13.4569 27.1628C13.5198 27.1593 13.5828 27.1683 13.6422 27.1895C13.7015 27.2107 13.7561 27.2436 13.8025 27.2861C13.849 27.3287 13.8865 27.3801 13.9128 27.4374C13.9391 27.4947 13.9537 27.5567 13.9557 27.6197C14.0761 29.9889 14.8403 32.2804 16.1661 34.2476C17.4919 36.2149 19.329 37.7833 21.4798 38.7842C23.6306 39.7851 26.0136 40.1804 28.3724 39.9278C30.7312 39.6751 32.9764 38.784 34.8665 37.3503C34.916 37.312 34.9726 37.2839 35.033 37.2676C35.0935 37.2513 35.1565 37.2472 35.2186 37.2555C35.2806 37.2638 35.3404 37.2844 35.3944 37.316C35.4485 37.3476 35.4957 37.3896 35.5334 37.4396C35.5719 37.4895 35.6001 37.5466 35.6164 37.6074C35.6328 37.6683 35.6369 37.7318 35.6286 37.7943C35.6203 37.8567 35.5997 37.917 35.5681 37.9715C35.5364 38.026 35.4943 38.0736 35.4441 38.1118C33.017 39.9733 30.043 40.9812 26.9842 40.979Z" fill="#A762FF"/>
<path d="M13.6615 25.1515H13.5617C13.4429 25.1285 13.3371 25.0618 13.2652 24.9646C13.1932 24.8674 13.1604 24.7467 13.1731 24.6264C13.4966 22.7959 14.1791 21.0476 15.1813 19.4821C16.1835 17.9166 17.4856 16.5649 19.0125 15.5049C19.118 15.434 19.247 15.4075 19.3719 15.431C19.4967 15.4546 19.6072 15.5264 19.6795 15.6309C19.7154 15.6821 19.7407 15.74 19.7541 15.8011C19.7675 15.8622 19.7686 15.9254 19.7573 15.987C19.7461 16.0485 19.7228 16.1072 19.6887 16.1597C19.6546 16.2121 19.6104 16.2573 19.5587 16.2926C18.1364 17.2801 16.9234 18.5392 15.9897 19.9974C15.056 21.4556 14.42 23.0841 14.1183 24.7892C14.092 24.8911 14.0332 24.9816 13.9507 25.0471C13.8683 25.1125 13.7667 25.1491 13.6615 25.1515Z" fill="#A762FF"/>
<path d="M24.3219 14.1973C24.2107 14.1978 24.1029 14.1592 24.0174 14.0881C23.932 14.017 23.8743 13.9181 23.8545 13.8087C23.8297 13.6848 23.855 13.5561 23.9249 13.4508C23.9948 13.3455 24.1035 13.2721 24.2273 13.2468C24.4846 13.1995 24.7525 13.1523 25.0098 13.1155C25.1324 13.1033 25.255 13.1383 25.3526 13.2135C25.4502 13.2886 25.5154 13.3982 25.5349 13.5199C25.5484 13.6435 25.5131 13.7675 25.4367 13.8655C25.3602 13.9636 25.2485 14.028 25.1253 14.045C24.8767 14.08 24.6352 14.122 24.4006 14.171L24.3219 14.1973Z" fill="#A762FF"/>
<path d="M21.6227 15.0585C21.5135 15.0582 21.4078 15.0204 21.323 14.9515C21.2383 14.8827 21.1796 14.7869 21.1569 14.6801C21.1342 14.5732 21.1488 14.4619 21.1982 14.3645C21.2476 14.2671 21.3288 14.1896 21.4284 14.1448C21.7278 14.0135 22.0376 13.8927 22.3422 13.7877C22.4619 13.7459 22.5934 13.7534 22.7077 13.8086C22.8219 13.8637 22.9095 13.962 22.9513 14.0818C22.9931 14.2016 22.9856 14.333 22.9304 14.4473C22.8753 14.5615 22.777 14.6492 22.6573 14.6909C22.3737 14.7855 22.0901 14.901 21.8118 15.0218C21.7519 15.0466 21.6876 15.0591 21.6227 15.0585Z" fill="#A762FF"/>
<path d="M19.3015 16.3451C19.2241 16.3458 19.1477 16.3275 19.079 16.2918C19.0103 16.2561 18.9515 16.2041 18.9076 16.1403C18.8362 16.0355 18.8089 15.9069 18.8315 15.7821C18.8541 15.6573 18.9248 15.5464 19.0284 15.4734C19.249 15.3263 19.4695 15.1793 19.6953 15.0428C19.7491 15.0104 19.8088 14.9889 19.8709 14.9795C19.933 14.9701 19.9963 14.9731 20.0573 14.9882C20.1182 15.0033 20.1756 15.0303 20.2261 15.0676C20.2767 15.1049 20.3193 15.1518 20.3517 15.2056C20.3842 15.2593 20.4057 15.319 20.415 15.3811C20.4244 15.4432 20.4214 15.5065 20.4063 15.5675C20.3912 15.6284 20.3642 15.6858 20.3269 15.7363C20.2896 15.7869 20.2427 15.8296 20.189 15.862C19.9842 15.988 19.7741 16.1245 19.5746 16.2611C19.4942 16.3163 19.3989 16.3456 19.3015 16.3451Z" fill="#A762FF"/>
<path d="M40.5065 27.4779C40.3798 27.4779 40.2582 27.4275 40.1686 27.3379C40.079 27.2483 40.0286 27.1267 40.0286 27C40.0259 23.5413 38.6507 20.2251 36.205 17.7794C33.7593 15.3337 30.4431 13.9585 26.9844 13.9557C26.3678 13.9555 25.752 13.9976 25.1412 14.0818C25.0774 14.0942 25.0118 14.0935 24.9483 14.0797C24.8848 14.066 24.8248 14.0394 24.772 14.0017C24.7191 13.9639 24.6745 13.9158 24.6409 13.8602C24.6072 13.8047 24.5853 13.7428 24.5763 13.6785C24.5674 13.6141 24.5717 13.5487 24.5889 13.486C24.6061 13.4234 24.6359 13.3649 24.6765 13.3142C24.7171 13.2635 24.7676 13.2216 24.8249 13.191C24.8822 13.1605 24.9452 13.1419 25.0099 13.1365C25.6642 13.0461 26.3239 13.0005 26.9844 13C30.6961 13.0042 34.2547 14.4805 36.8793 17.1051C39.5039 19.7297 40.9802 23.2883 40.9844 27C40.9844 27.1267 40.934 27.2483 40.8444 27.3379C40.7548 27.4275 40.6332 27.4779 40.5065 27.4779Z" fill="#A762FF"/>
<path d="M35.1553 38.2483C35.0818 38.2492 35.0091 38.2324 34.9434 38.1996C34.8776 38.1667 34.8206 38.1186 34.7772 38.0593C34.7389 38.0098 34.7107 37.9532 34.6945 37.8927C34.6782 37.8323 34.6741 37.7692 34.6824 37.7072C34.6907 37.6451 34.7113 37.5853 34.7429 37.5313C34.7745 37.4773 34.8165 37.43 34.8665 37.3924C35.0608 37.2401 35.2551 37.0878 35.4389 36.9303C35.536 36.8481 35.6615 36.8075 35.7884 36.8173C35.9152 36.8271 36.033 36.8866 36.1163 36.9828C36.1976 37.0797 36.2371 37.2048 36.2263 37.3308C36.2154 37.4568 36.1551 37.5733 36.0585 37.6549C35.859 37.8282 35.6542 37.991 35.4441 38.1538C35.3603 38.2152 35.2592 38.2483 35.1553 38.2483Z" fill="#A762FF"/>
<path d="M37.639 35.8012C37.5493 35.8015 37.4614 35.7765 37.3852 35.7292C37.3091 35.6819 37.2478 35.6141 37.2084 35.5335C37.169 35.453 37.153 35.363 37.1622 35.2739C37.1715 35.1847 37.2057 35.0999 37.2609 35.0293C37.5339 34.6827 37.786 34.3203 38.0223 33.9527C38.0919 33.8455 38.2013 33.7703 38.3264 33.7437C38.4515 33.7171 38.582 33.7413 38.6892 33.811C38.7965 33.8806 38.8716 33.99 38.8982 34.1151C38.9248 34.2401 38.9006 34.3706 38.831 34.4779C38.5796 34.8766 38.3079 35.2622 38.0171 35.6332C37.9707 35.6877 37.9126 35.7311 37.8471 35.7602C37.7817 35.7893 37.7106 35.8033 37.639 35.8012ZM39.6397 32.2408C39.5826 32.242 39.5257 32.2331 39.4717 32.2146C39.3531 32.1687 39.2573 32.0779 39.2052 31.9619C39.1531 31.8459 39.1489 31.714 39.1934 31.5949C39.3456 31.1906 39.4822 30.7652 39.5977 30.3398C39.6089 30.2743 39.6336 30.2117 39.6703 30.1563C39.707 30.1008 39.755 30.0536 39.811 30.0177C39.867 29.9818 39.9299 29.958 39.9956 29.9478C40.0614 29.9376 40.1285 29.9413 40.1927 29.9586C40.257 29.9758 40.3169 30.0063 40.3687 30.048C40.4205 30.0898 40.463 30.1419 40.4935 30.201C40.524 30.2602 40.5418 30.325 40.5458 30.3914C40.5498 30.4578 40.5399 30.5243 40.5167 30.5867C40.397 31.0438 40.2532 31.4943 40.0861 31.9362C40.0517 32.0266 39.9905 32.1042 39.9107 32.1586C39.8309 32.2131 39.7363 32.2418 39.6397 32.2408Z" fill="#A762FF"/>
<path d="M40.4853 28.2393C40.4206 28.2361 40.3572 28.2197 40.299 28.1913C40.2408 28.1628 40.189 28.1228 40.1468 28.0736C40.1046 28.0245 40.0728 27.9673 40.0533 27.9055C40.0338 27.8437 40.0272 27.7786 40.0337 27.7142C40.0337 27.4726 40.0337 27.2258 40.0337 26.979C40.0337 26.8523 40.084 26.7307 40.1736 26.6411C40.2632 26.5515 40.3848 26.5011 40.5115 26.5011C40.6383 26.5011 40.7598 26.5515 40.8494 26.6411C40.939 26.7307 40.9894 26.8523 40.9894 26.979C40.9894 27.2416 40.9894 27.5041 40.9894 27.7667C40.9888 27.8313 40.9751 27.8951 40.9491 27.9542C40.9232 28.0134 40.8855 28.0666 40.8384 28.1108C40.7912 28.155 40.7357 28.1891 40.675 28.2112C40.6143 28.2333 40.5497 28.2429 40.4853 28.2393Z" fill="#A762FF"/>
</g>
<defs>
<clipPath id="clip0_1_3">
<rect width="27.9842" height="28" fill="white" transform="translate(13 13)"/>
</clipPath>
</defs>
</svg>
