<svg width="207" height="144" viewBox="0 0 207 144" fill="none" xmlns="http://www.w3.org/2000/svg">
<g clip-path="url(#clip0_148_2415)">
<path d="M41.0856 144C63.7765 144 82.1712 142.598 82.1712 140.868C82.1712 139.138 63.7765 137.736 41.0856 137.736C18.3946 137.736 0 139.138 0 140.868C0 142.598 18.3946 144 41.0856 144Z" fill="#E6E6E6"/>
<path d="M31.4053 31.951C38.5554 28.8986 47.461 30.8326 56.1583 32.1749C56.2392 30.5494 57.2202 28.5711 56.1926 27.437C54.9441 26.0593 55.0591 24.6117 55.8103 23.1557C57.7314 19.4326 54.979 15.471 52.1999 12.177C51.5735 11.4362 50.7819 10.8541 49.8893 10.4781C48.9967 10.1021 48.0283 9.94267 47.0628 10.0128L41.9148 10.3819C40.6621 10.4717 39.4665 10.9434 38.4882 11.7338C37.5098 12.5242 36.7953 13.5957 36.4403 14.8048C35.211 16.4828 34.5531 18.1561 34.9673 19.8208C33.1261 21.0837 32.8168 22.6082 33.6441 24.3267C34.3457 25.4088 34.3382 26.4621 33.6122 27.4862C32.6587 28.7919 31.9284 30.2479 31.4513 31.7943L31.4053 31.951Z" fill="#2F2E41"/>
<path d="M201.322 124.486H55.5934C54.2974 124.486 53.0546 123.969 52.1382 123.049C51.2218 122.13 50.707 120.882 50.707 119.581C103.534 113.419 155.367 113.419 206.208 119.581C206.208 120.882 205.693 122.13 204.777 123.049C203.861 123.969 202.618 124.486 201.322 124.486Z" fill="#2F2E41"/>
<path d="M206.208 119.87L50.707 119.581L68.7291 89.1451L68.8153 89.0008V21.9228C68.8152 21.1086 68.975 20.3024 69.2854 19.5502C69.5957 18.7979 70.0507 18.1145 70.6243 17.5387C71.1979 16.963 71.8789 16.5064 72.6283 16.1948C73.3778 15.8833 74.181 15.723 74.9922 15.723H181.061C181.872 15.723 182.675 15.8833 183.425 16.1948C184.174 16.5064 184.855 16.963 185.429 17.5387C186.002 18.1145 186.457 18.7979 186.768 19.5502C187.078 20.3024 187.238 21.1086 187.238 21.9228V89.4624L206.208 119.87Z" fill="#3F3D56"/>
<path d="M74.8514 20.0504C74.3179 20.051 73.8065 20.264 73.4293 20.6426C73.0521 21.0212 72.84 21.5345 72.8394 22.0699V83.2309C72.84 83.7663 73.0522 84.2796 73.4293 84.6582C73.8065 85.0367 74.318 85.2497 74.8514 85.2503H182.064C182.597 85.2497 183.109 85.0367 183.486 84.6581C183.863 84.2795 184.075 83.7663 184.076 83.2309V22.0699C184.075 21.5345 183.863 21.0212 183.486 20.6426C183.109 20.264 182.597 20.051 182.064 20.0504H74.8514Z" fill="white"/>
<path d="M75.3003 93.3283C75.1355 93.3285 74.9741 93.3761 74.8353 93.4654C74.6965 93.5546 74.586 93.6818 74.5169 93.832L68.9637 105.949C68.9033 106.081 68.8768 106.226 68.8868 106.37C68.8968 106.515 68.943 106.655 69.021 106.777C69.099 106.9 69.2064 107 69.3332 107.07C69.4601 107.14 69.6024 107.176 69.747 107.176H186.527C186.674 107.176 186.818 107.138 186.947 107.066C187.075 106.995 187.183 106.891 187.26 106.766C187.338 106.64 187.382 106.497 187.388 106.349C187.395 106.202 187.364 106.055 187.298 105.923L181.262 93.8066C181.191 93.6626 181.081 93.5414 180.944 93.4569C180.808 93.3723 180.651 93.3278 180.491 93.3283H75.3003Z" fill="#2F2E41"/>
<path d="M128.026 19.0407C128.741 19.0407 129.32 18.4594 129.32 17.7424C129.32 17.0254 128.741 16.4442 128.026 16.4442C127.312 16.4442 126.733 17.0254 126.733 17.7424C126.733 18.4594 127.312 19.0407 128.026 19.0407Z" fill="white"/>
<path d="M116.548 109.484C116.358 109.484 116.174 109.547 116.023 109.663C115.873 109.778 115.765 109.941 115.715 110.124L114.322 115.317C114.288 115.445 114.283 115.58 114.309 115.71C114.335 115.841 114.39 115.963 114.47 116.069C114.551 116.174 114.654 116.26 114.773 116.318C114.892 116.377 115.022 116.408 115.155 116.408H141.646C141.783 116.408 141.919 116.375 142.041 116.312C142.163 116.248 142.268 116.157 142.348 116.044C142.428 115.932 142.479 115.802 142.499 115.665C142.518 115.529 142.505 115.39 142.46 115.259L140.669 110.066C140.611 109.896 140.501 109.749 140.355 109.644C140.209 109.54 140.034 109.484 139.854 109.484H116.548Z" fill="#2F2E41"/>
<path d="M187.238 87.9911V89.145H68.729L68.8182 89.0009V87.9911H187.238Z" fill="#2F2E41"/>
<path d="M183.932 40.3893C195.044 40.3893 204.052 31.3479 204.052 20.1947C204.052 9.04146 195.044 0 183.932 0C172.82 0 163.812 9.04146 163.812 20.1947C163.812 31.3479 172.82 40.3893 183.932 40.3893Z" fill="#2CDDCB"/>
<path d="M192.268 28.9938H175.597C175.292 28.9935 174.999 28.8718 174.784 28.6555C174.568 28.4391 174.447 28.1458 174.447 27.8398V17.7425C174.447 17.4365 174.568 17.1432 174.784 16.9269C174.999 16.7105 175.292 16.5888 175.597 16.5885H192.268C192.572 16.5888 192.865 16.7105 193.08 16.9269C193.296 17.1432 193.417 17.4365 193.417 17.7425V27.8398C193.417 28.1458 193.296 28.4391 193.08 28.6555C192.865 28.8718 192.572 28.9935 192.268 28.9938ZM175.597 17.7425V27.8398H192.268L192.268 17.7425L175.597 17.7425Z" fill="white"/>
<path d="M189.106 17.7424H178.758V13.1265C178.758 9.78314 180.934 7.35657 183.932 7.35657C186.93 7.35657 189.106 9.78314 189.106 13.1265L189.106 17.7424ZM179.908 16.5884H187.956V13.1265C187.956 10.4087 186.301 8.51055 183.932 8.51055C181.563 8.51055 179.908 10.4087 179.908 13.1265L179.908 16.5884Z" fill="white"/>
<path d="M183.932 23.6566C184.567 23.6566 185.082 23.1399 185.082 22.5026C185.082 21.8653 184.567 21.3486 183.932 21.3486C183.297 21.3486 182.782 21.8653 182.782 22.5026C182.782 23.1399 183.297 23.6566 183.932 23.6566Z" fill="white"/>
<path d="M169.886 64.5052H87.0285C86.6217 64.5047 86.2317 64.3423 85.9441 64.0536C85.6564 63.7649 85.4946 63.3734 85.4941 62.9651V42.3357C85.4946 41.9274 85.6564 41.536 85.9441 41.2473C86.2317 40.9585 86.6217 40.7961 87.0285 40.7957H169.886C170.293 40.7961 170.683 40.9585 170.971 41.2473C171.258 41.536 171.42 41.9274 171.421 42.3357V62.9651C171.42 63.3734 171.258 63.7649 170.971 64.0536C170.683 64.3423 170.293 64.5047 169.886 64.5052ZM87.0285 41.4117C86.7844 41.412 86.5504 41.5094 86.3778 41.6826C86.2052 41.8559 86.1082 42.0907 86.1079 42.3357V62.9651C86.1082 63.2101 86.2052 63.445 86.3778 63.6182C86.5504 63.7915 86.7844 63.8889 87.0285 63.8892H169.886C170.13 63.8889 170.364 63.7915 170.537 63.6182C170.709 63.445 170.807 63.2101 170.807 62.9651V42.3357C170.807 42.0907 170.709 41.8559 170.537 41.6826C170.364 41.5094 170.13 41.4119 169.886 41.4117L87.0285 41.4117Z" fill="#E6E6E6"/>
<path d="M99.9032 58.1323C103.355 58.1323 106.153 55.3236 106.153 51.8589C106.153 48.3942 103.355 45.5854 99.9032 45.5854C96.4512 45.5854 93.6528 48.3942 93.6528 51.8589C93.6528 55.3236 96.4512 58.1323 99.9032 58.1323Z" fill="#E6E6E6"/>
<path d="M114.338 47.6765C114.201 47.6763 114.066 47.7032 113.939 47.7556C113.813 47.8081 113.698 47.8851 113.601 47.9822C113.504 48.0793 113.427 48.1946 113.374 48.3216C113.322 48.4485 113.295 48.5846 113.295 48.7221C113.295 48.8595 113.322 48.9956 113.374 49.1226C113.427 49.2496 113.504 49.3649 113.601 49.462C113.698 49.5591 113.813 49.6361 113.939 49.6885C114.066 49.741 114.201 49.7679 114.338 49.7677H163.448C163.724 49.7677 163.989 49.6575 164.185 49.4614C164.38 49.2653 164.49 48.9994 164.49 48.7221C164.49 48.4448 164.38 48.1788 164.185 47.9828C163.989 47.7867 163.724 47.6765 163.448 47.6765H114.338Z" fill="#E6E6E6"/>
<path d="M114.338 53.95C114.062 53.95 113.797 54.0601 113.601 54.2562C113.406 54.4523 113.296 54.7182 113.296 54.9955C113.296 55.2728 113.406 55.5388 113.601 55.7349C113.797 55.9309 114.062 56.0411 114.338 56.0411H135.47C135.746 56.0411 136.011 55.9309 136.207 55.7349C136.402 55.5388 136.512 55.2728 136.512 54.9955C136.512 54.7182 136.402 54.4523 136.207 54.2562C136.011 54.0601 135.746 53.95 135.47 53.95H114.338Z" fill="#E6E6E6"/>
<path d="M68.5249 54.3729L53.208 62.5462L53.0142 55.7351C58.0135 54.8974 62.7698 53.439 67.1677 51.0647L68.7697 47.0923C68.9442 46.6594 69.2279 46.2796 69.5929 45.99C69.9579 45.7005 70.3917 45.5111 70.8516 45.4406C71.3115 45.3702 71.7818 45.4209 72.2163 45.5879C72.6507 45.755 73.0345 46.0325 73.3298 46.3934C73.7618 46.9213 73.9778 47.5944 73.9339 48.2762C73.8901 48.9579 73.5897 49.5975 73.0935 50.0653L68.5249 54.3729Z" fill="#FFB8B8"/>
<path d="M31.0996 101.562C30.9879 101.151 30.9642 100.721 31.03 100.299C31.0959 99.8782 31.2498 99.4758 31.4817 99.1186L34.8464 93.9358C35.6422 92.7099 36.8633 91.8245 38.2729 91.4512C39.6824 91.078 41.1798 91.2436 42.4745 91.9159C41.0605 94.3318 41.2576 96.4511 42.9629 98.293C40.3156 99.5901 37.8689 101.264 35.6985 103.264C35.3023 103.535 34.8473 103.707 34.3714 103.766C33.8954 103.825 33.4124 103.768 32.9624 103.602C32.5125 103.436 32.1087 103.164 31.7847 102.809C31.4607 102.454 31.2258 102.027 31.0996 101.562Z" fill="#2F2E41"/>
<path d="M69.2229 94.7857C68.7137 95.6375 67.995 96.3435 67.1357 96.8362C66.2764 97.3288 65.3053 97.5915 64.3158 97.5991L41.9631 97.769L40.9937 92.1256L50.8818 89.2066L42.5447 82.7847L51.6573 72.0817L68.2085 87.5651C69.1759 88.4701 69.8045 89.6809 69.9891 90.9952C70.1737 92.3095 69.9032 93.6476 69.2229 94.7857Z" fill="#2F2E41"/>
<path d="M38.473 133.381H33.2382C28.538 101.044 23.7537 68.6169 37.8914 56.5135L54.5655 59.238L52.4327 73.4439L43.1263 84.1469L38.473 133.381Z" fill="#2F2E41"/>
<path d="M43.0746 140.706C42.6648 140.818 42.236 140.842 41.8164 140.776C41.3967 140.71 40.9958 140.556 40.6399 140.323L34.9559 139.556C33.7345 138.757 32.8522 137.532 32.4803 136.117C32.1083 134.702 32.2732 133.199 32.9429 131.9C35.35 133.319 37.4616 133.121 39.2965 131.409C40.593 134.037 42.7292 133.877 44.7694 136.09C45.0395 136.488 45.211 136.945 45.2697 137.422C45.3284 137.9 45.2725 138.385 45.1067 138.836C44.9409 139.288 44.67 139.693 44.3165 140.019C43.963 140.344 43.5372 140.58 43.0746 140.706Z" fill="#2F2E41"/>
<path d="M50.8817 34.9128L41.1875 32.5776C42.7976 29.2698 42.9301 25.5891 42.1569 21.68L48.749 21.4854C48.9555 26.3465 49.5804 30.8881 50.8817 34.9128Z" fill="#FFB8B8"/>
<path d="M53.5456 65.0972C46.4886 69.9239 41.5023 65.2624 37.6971 58.0703C38.2259 53.6694 37.3698 48.4028 35.7841 42.6803C35.079 40.1562 35.3422 37.4586 36.522 35.1198C37.7017 32.7811 39.7122 30.9713 42.1565 30.0477L50.4935 33.5506C57.5726 39.3422 58.966 45.6156 56.31 52.2323L53.5456 65.0972Z" fill="#2CDDCB"/>
<path d="M33.2378 39.7778L25.4824 43.8645L39.2482 52.0377L41.1636 56.7799C41.2915 57.0964 41.3538 57.4357 41.3467 57.7772C41.3396 58.1187 41.2633 58.4551 41.1224 58.766C40.9816 59.0769 40.7791 59.3557 40.5274 59.5855C40.2756 59.8153 39.9799 59.9913 39.6582 60.1026C39.2925 60.2292 38.9026 60.269 38.5191 60.2191C38.1355 60.1692 37.7686 60.0308 37.4472 59.8148C37.1258 59.5988 36.8585 59.3111 36.6664 58.9741C36.4743 58.6371 36.3625 58.2601 36.3398 57.8725L36.1461 54.5675L18.6499 48.7725C18.0604 48.5772 17.5229 48.2499 17.0781 47.8152C16.6333 47.3806 16.2929 46.8501 16.0827 46.2639C15.7762 45.4094 15.7606 44.477 16.0383 43.6127C16.316 42.7483 16.8714 42.0008 17.6175 41.487L31.6867 31.7992L33.2378 39.7778Z" fill="#FFB8B8"/>
<path d="M40.9932 40.5563C37.7587 39.1336 34.8175 40.679 31.1051 41.9185L30.5234 31.6046C34.2097 29.6326 37.7244 29.1009 40.9932 30.6316L40.9932 40.5563Z" fill="#2CDDCB"/>
<path d="M44.8627 26.5941C48.281 26.5941 51.0521 23.8128 51.0521 20.3818C51.0521 16.9509 48.281 14.1696 44.8627 14.1696C41.4444 14.1696 38.6733 16.9509 38.6733 20.3818C38.6733 23.8128 41.4444 26.5941 44.8627 26.5941Z" fill="#FFB8B8"/>
<path d="M52.2672 19.598C46.1392 20.2004 41.4697 19.1945 38.4854 16.3303V14.0237H51.7472L52.2672 19.598Z" fill="#2F2E41"/>
</g>
<defs>
<clipPath id="clip0_148_2415">
<rect width="206.208" height="144" fill="white"/>
</clipPath>
</defs>
</svg>
