<svg width="218" height="144" viewBox="0 0 218 144" fill="none" xmlns="http://www.w3.org/2000/svg">
<g clip-path="url(#clip0_157_3232)">
<path d="M77.9666 82.8734C85.4156 69.8107 99.6245 59.7808 114.666 60.747C103.571 72.7747 97.1012 88.3269 96.4014 104.652C96.1544 110.949 96.5375 117.978 92.3434 122.693C89.7339 125.627 85.7451 127.048 81.8232 127.346C77.9012 127.644 73.9801 126.938 70.1104 126.234L69.1718 126.522C68.8144 111.5 70.5177 95.936 77.9666 82.8734Z" fill="#F0F0F0"/>
<path d="M114.688 61.0613C103.565 66.3992 94.0807 75.3141 88.2586 86.1864C86.9999 88.537 85.9282 91.0307 85.4607 93.6673C84.993 96.3051 85.3197 98.8161 86.2235 101.321C87.0497 103.612 88.1609 105.859 88.4143 108.31C88.6813 110.893 87.7279 113.308 86.0117 115.225C83.9118 117.571 81.0918 119.024 78.2845 120.35C75.1676 121.822 71.9066 123.302 69.6989 126.049C69.4314 126.382 68.929 125.949 69.1961 125.616C73.0371 120.836 79.6119 119.938 84.1711 116.088C86.2986 114.291 87.8958 111.844 87.795 108.977C87.7069 106.471 86.563 104.152 85.7063 101.84C84.8067 99.4127 84.3582 96.9719 84.6807 94.3838C85.0107 91.7363 85.9869 89.1956 87.1798 86.8233C89.8701 81.4731 93.552 76.5612 97.7697 72.3151C102.617 67.4344 108.266 63.4163 114.473 60.4347C114.857 60.2503 115.07 60.8781 114.688 61.0613Z" fill="white"/>
<path d="M89.9645 82.553C88.2594 81.3101 87.0529 79.5034 86.5606 77.4556C86.0684 75.4077 86.3223 73.2522 87.2772 71.3738C87.4717 70.9943 88.0722 71.2778 87.8775 71.6578C86.9851 73.4053 86.7487 75.4132 87.211 77.3192C87.6734 79.2252 88.8039 80.9037 90.3986 82.0517C90.7449 82.3016 90.3088 82.8015 89.9645 82.553Z" fill="white"/>
<path d="M85.6512 100.215C89.924 99.5928 93.8045 97.3878 96.5189 94.0399C96.7875 93.708 97.2901 94.1412 97.0218 94.4727C94.1905 97.9513 90.1476 100.238 85.6999 100.876C85.2759 100.936 85.2295 100.275 85.6512 100.215V100.215Z" fill="white"/>
<path d="M102.945 68.2495C103.504 68.8674 104.209 69.3373 104.995 69.6168C105.782 69.8963 106.625 69.9766 107.451 69.8507C107.874 69.7849 107.92 70.4458 107.499 70.5112C106.587 70.6461 105.655 70.5562 104.786 70.2493C103.916 69.9424 103.135 69.4279 102.511 68.7508C102.447 68.6919 102.408 68.6108 102.401 68.524C102.395 68.4373 102.422 68.3514 102.477 68.2838C102.535 68.2177 102.616 68.177 102.704 68.1706C102.792 68.1642 102.878 68.1925 102.945 68.2495Z" fill="white"/>
<path d="M144.594 101.955C144.331 102.003 144.068 102.052 143.802 102.106C140.27 102.777 136.799 103.734 133.423 104.966C133.16 105.057 132.895 105.153 132.636 105.252C124.533 108.306 117.069 112.834 110.625 118.605C108.062 120.904 105.679 123.394 103.495 126.053C100.48 129.725 97.5038 133.947 93.5635 136.341C93.1552 136.596 92.7315 136.825 92.2949 137.027L69.596 127.641C69.5552 127.594 69.5119 127.552 69.4708 127.504L68.5474 127.171C68.6504 127.026 68.7603 126.878 68.8633 126.733C68.9227 126.648 68.9872 126.566 69.0466 126.482C69.0878 126.426 69.1293 126.371 69.1633 126.318C69.1769 126.3 69.1908 126.281 69.2023 126.268C69.2363 126.215 69.2735 126.17 69.3053 126.123C69.9177 125.293 70.5369 124.466 71.1631 123.642C71.1652 123.637 71.1652 123.637 71.1725 123.634C75.9597 117.366 81.3139 111.441 87.3999 106.515C87.5831 106.367 87.7681 106.213 87.9617 106.07C90.7173 103.864 93.6492 101.887 96.7279 100.158C98.4168 99.2167 100.152 98.3611 101.928 97.5947C106.52 95.6231 111.394 94.3838 116.373 93.9222C126.297 93.0035 136.405 95.2591 144.017 101.474C144.211 101.633 144.401 101.79 144.594 101.955Z" fill="#F0F0F0"/>
<path d="M144.423 102.221C132.318 99.8069 119.361 101.233 108.146 106.419C105.721 107.54 103.36 108.888 101.394 110.713C99.4276 112.538 98.1719 114.739 97.3804 117.282C96.6568 119.607 96.1867 122.068 94.9089 124.177C93.562 126.4 91.342 127.756 88.814 128.256C85.7208 128.869 82.5914 128.337 79.5493 127.71C76.1716 127.015 72.6742 126.239 69.2523 127.108C68.8377 127.213 68.6981 126.565 69.1121 126.46C75.0657 124.949 80.858 128.178 86.8237 127.84C89.6074 127.683 92.3604 126.688 94.0113 124.338C95.455 122.284 95.9419 119.746 96.6542 117.386C97.402 114.908 98.518 112.69 100.339 110.817C102.201 108.901 104.515 107.458 106.9 106.28C112.279 103.623 118.186 101.911 124.118 101.052C130.936 100.065 137.873 100.247 144.629 101.591C145.048 101.675 144.838 102.304 144.423 102.221V102.221Z" fill="white"/>
<path d="M111.703 104.542C111.092 102.526 111.22 100.359 112.063 98.4285C112.907 96.498 114.412 94.9293 116.309 94.0026C116.693 93.8164 117.001 94.4032 116.617 94.5896C114.849 95.4493 113.447 96.9107 112.665 98.71C111.883 100.509 111.772 102.528 112.352 104.402C112.478 104.809 111.828 104.947 111.703 104.542Z" fill="white"/>
<path d="M97.5919 116.055C101.379 118.123 105.809 118.691 109.999 117.647C110.414 117.544 110.553 118.191 110.139 118.295C105.777 119.373 101.168 118.772 97.2319 116.612C96.8568 116.406 97.2189 115.85 97.5919 116.055Z" fill="white"/>
<path d="M130.706 100.912C130.779 101.741 131.058 102.539 131.517 103.234C131.976 103.929 132.601 104.5 133.336 104.895C133.714 105.096 133.351 105.651 132.976 105.451C132.166 105.011 131.476 104.38 130.967 103.613C130.458 102.847 130.146 101.967 130.056 101.052C130.041 100.966 130.058 100.878 130.106 100.805C130.153 100.732 130.226 100.679 130.311 100.658C130.397 100.64 130.487 100.657 130.561 100.704C130.635 100.752 130.687 100.826 130.706 100.912Z" fill="white"/>
<path d="M101.354 117.44C98.1749 102.117 94.2013 97.0083 94.2013 97.0083L92.6832 95.8348L90.8577 94.4212L90.8665 94.2394L90.4335 94.0927L90.3318 94.0139L90.1651 93.8864L90.1383 93.9151L90.0817 93.9735L81.8209 91.1743L71.3406 87.6254L66.4875 81.3371C65.6971 80.313 64.6796 79.4852 63.5146 78.9187C62.3496 78.3523 61.0688 78.0624 59.7726 78.072L44.2736 78.1863C42.1779 78.2018 40.1639 78.9982 38.6274 80.419L28.4401 89.839L12.5663 97.3966L12.5395 97.3699L12.3728 97.4886L9.92021 98.6576L10.0214 99.1828L8.50339 100.275C8.50339 100.275 4.52975 105.028 1.35083 119.286C0.542146 122.914 0.144083 130.696 0.000403769 140.285C-0.00681323 140.771 0.0827825 141.252 0.263979 141.703C0.445176 142.153 0.714359 142.563 1.05588 142.908C1.3974 143.254 1.80444 143.528 2.25333 143.716C2.70222 143.903 3.18402 144 3.67069 144H88.4555V144H99.0378C99.5241 144 100.006 143.903 100.454 143.716C100.903 143.529 101.31 143.255 101.651 142.909C101.993 142.564 102.262 142.155 102.443 141.705C102.625 141.255 102.715 140.774 102.708 140.289C102.568 129.854 102.17 121.374 101.354 117.44Z" fill="#3F3D56"/>
<path d="M112.232 13.3625C108.933 13.3625 105.77 14.6688 103.437 16.9941C101.105 19.3193 99.7944 22.4729 99.7944 25.7613C99.7944 29.0497 101.105 32.2033 103.437 34.5285C105.77 36.8538 108.933 38.1601 112.232 38.1601H204.921C208.219 38.1601 211.383 36.8538 213.715 34.5285C216.048 32.2033 217.358 29.0497 217.358 25.7613C217.358 22.4729 216.048 19.3193 213.715 16.9941C211.383 14.6688 208.219 13.3625 204.921 13.3625H112.232Z" fill="#E5E5E5"/>
<path d="M112.232 15.8718C109.601 15.8718 107.078 16.9138 105.217 18.7684C103.357 20.623 102.312 23.1385 102.312 25.7613C102.312 28.3842 103.357 30.8996 105.217 32.7542C107.078 34.6089 109.601 35.6508 112.232 35.6508H204.921C207.552 35.6508 210.075 34.6089 211.936 32.7542C213.796 30.8996 214.841 28.3842 214.841 25.7613C214.841 23.1385 213.796 20.623 211.936 18.7684C210.075 16.9138 207.552 15.8718 204.921 15.8718H112.232Z" fill="white"/>
<path d="M54.4571 72.2673C65.6714 72.2673 74.7624 63.2046 74.7624 52.0252C74.7624 40.8459 65.6714 31.7832 54.4571 31.7832C43.2428 31.7832 34.1519 40.8459 34.1519 52.0252C34.1519 63.2046 43.2428 72.2673 54.4571 72.2673Z" fill="#9E616A"/>
<path d="M49.2624 71.2763C49.1757 71.0859 49.0892 70.8948 49.0029 70.7031C49.0362 70.7042 49.0691 70.709 49.1023 70.7098L49.2624 71.2763Z" fill="#2F2E41"/>
<path d="M33.5874 32.7039C34.6144 31.8872 35.8147 31.1357 37.1277 31.178C38.4407 31.2202 39.7722 32.4024 39.5002 33.6836C41.9119 29.4267 45.7507 26.1526 50.3428 24.4361C54.9348 22.7196 59.9866 22.6703 64.6114 24.2969C67.8748 25.4447 71.0751 27.7409 71.8247 31.1088C72.0172 31.9733 72.0585 32.9212 72.6 33.6233C73.2827 34.5084 74.589 34.7086 75.6646 34.3973C75.6753 34.3942 75.6861 34.391 75.6968 34.3878C75.8785 34.326 76.0746 34.3199 76.2599 34.3704C76.4451 34.4208 76.6108 34.5256 76.7357 34.671C76.8605 34.8164 76.9388 34.9958 76.9602 35.186C76.9817 35.3762 76.9454 35.5685 76.856 35.7379L75.9327 37.4546C77.0966 37.7133 78.3061 37.6876 79.458 37.3799C79.6493 37.3299 79.8515 37.3401 80.0368 37.4091C80.2221 37.4782 80.3815 37.6027 80.493 37.7656C80.6045 37.9285 80.6627 38.1218 80.6596 38.319C80.6566 38.5162 80.5924 38.7076 80.4759 38.867C77.4312 43.0342 72.3444 45.7251 67.1535 45.6935C63.4642 45.6711 59.7368 44.4035 56.1462 45.2493C54.7571 45.5765 53.4592 46.2096 52.3476 47.102C51.2359 47.9945 50.3389 49.1238 49.7221 50.407C49.1054 51.6902 48.7847 53.0947 48.7835 54.5176C48.7823 55.9404 49.1007 57.3455 49.7153 58.6297C48.6123 57.427 46.48 57.7117 45.3516 58.891C44.2233 60.0703 43.9312 61.8304 44.0449 63.4561C44.2188 65.9426 45.196 68.2856 46.2263 70.5659C37.5886 70.2948 29.4189 64.2545 26.6689 56.0849C23.9074 47.881 26.8015 38.1003 33.5874 32.7039Z" fill="#2F2E41"/>
<path opacity="0.2" d="M19.9858 112.813L25.681 143.703L29.0982 144L19.9858 112.813Z" fill="black"/>
<path opacity="0.2" d="M82.7188 110.484L77.0237 143.681L73.6064 144L82.7188 110.484Z" fill="black"/>
<path d="M132.706 31.6747H114.264C114.206 31.6751 114.147 31.6639 114.093 31.6419C114.039 31.6198 113.99 31.5872 113.948 31.5461C113.906 31.5049 113.874 31.456 113.851 31.402C113.828 31.3481 113.817 31.2903 113.817 31.2319C113.817 31.1735 113.828 31.1156 113.851 31.0617C113.874 31.0078 113.906 30.9589 113.948 30.9177C113.99 30.8765 114.039 30.844 114.093 30.8219C114.147 30.7998 114.206 30.7887 114.264 30.7891H132.706C132.823 30.7899 132.935 30.8369 133.018 30.9198C133.101 31.0028 133.147 31.115 133.147 31.2319C133.147 31.3488 133.101 31.461 133.018 31.5439C132.935 31.6269 132.823 31.6739 132.706 31.6747Z" fill="#2CDDCB"/>
<path d="M156.1 31.8224H137.659C137.6 31.8228 137.542 31.8116 137.488 31.7896C137.433 31.7675 137.384 31.7349 137.343 31.6938C137.301 31.6526 137.268 31.6037 137.246 31.5497C137.223 31.4958 137.211 31.438 137.211 31.3796C137.211 31.3212 137.223 31.2634 137.246 31.2094C137.268 31.1555 137.301 31.1066 137.343 31.0654C137.384 31.0242 137.433 30.9917 137.488 30.9696C137.542 30.9475 137.6 30.9364 137.659 30.9368H156.1C156.159 30.9364 156.217 30.9475 156.271 30.9696C156.325 30.9917 156.375 31.0242 156.416 31.0654C156.458 31.1066 156.491 31.1555 156.513 31.2094C156.536 31.2634 156.548 31.3212 156.548 31.3796C156.548 31.438 156.536 31.4958 156.513 31.5497C156.491 31.6037 156.458 31.6526 156.416 31.6938C156.375 31.7349 156.325 31.7675 156.271 31.7896C156.217 31.8116 156.159 31.8228 156.1 31.8224Z" fill="#2CDDCB"/>
<path d="M179.495 31.9699H161.053C160.936 31.9691 160.824 31.9221 160.741 31.8391C160.658 31.7561 160.612 31.644 160.612 31.527C160.612 31.4101 160.658 31.2979 160.741 31.215C160.824 31.132 160.936 31.085 161.053 31.0842H179.495C179.553 31.0838 179.611 31.095 179.666 31.1171C179.72 31.1392 179.769 31.1717 179.811 31.2129C179.852 31.254 179.885 31.303 179.908 31.3569C179.93 31.4108 179.942 31.4686 179.942 31.527C179.942 31.5855 179.93 31.6433 179.908 31.6972C179.885 31.7511 179.852 31.8001 179.811 31.8412C179.769 31.8824 179.72 31.9149 179.666 31.937C179.611 31.9591 179.553 31.9703 179.495 31.9699H179.495Z" fill="#2CDDCB"/>
<path d="M202.889 32.1176H184.447C184.33 32.1168 184.218 32.0698 184.135 31.9868C184.052 31.9038 184.006 31.7917 184.006 31.6747C184.006 31.5578 184.052 31.4456 184.135 31.3627C184.218 31.2797 184.33 31.2327 184.447 31.2319H202.889C203.006 31.2327 203.118 31.2797 203.201 31.3627C203.283 31.4456 203.33 31.5578 203.33 31.6747C203.33 31.7917 203.283 31.9038 203.201 31.9868C203.118 32.0698 203.006 32.1168 202.889 32.1176Z" fill="#2CDDCB"/>
<path d="M123.445 27.5996C125.338 27.5996 126.872 26.0698 126.872 24.1827C126.872 22.2956 125.338 20.7659 123.445 20.7659C121.552 20.7659 120.017 22.2956 120.017 24.1827C120.017 26.0698 121.552 27.5996 123.445 27.5996Z" fill="#2CDDCB"/>
<path d="M146.98 27.5996C148.873 27.5996 150.408 26.0698 150.408 24.1827C150.408 22.2956 148.873 20.7659 146.98 20.7659C145.087 20.7659 143.553 22.2956 143.553 24.1827C143.553 26.0698 145.087 27.5996 146.98 27.5996Z" fill="#2CDDCB"/>
<path d="M170.516 27.5996C172.409 27.5996 173.943 26.0698 173.943 24.1827C173.943 22.2956 172.409 20.7659 170.516 20.7659C168.623 20.7659 167.088 22.2956 167.088 24.1827C167.088 26.0698 168.623 27.5996 170.516 27.5996Z" fill="#2CDDCB"/>
<path d="M194.052 27.5996C195.945 27.5996 197.479 26.0698 197.479 24.1827C197.479 22.2956 195.945 20.7659 194.052 20.7659C192.159 20.7659 190.624 22.2956 190.624 24.1827C190.624 26.0698 192.159 27.5996 194.052 27.5996Z" fill="#2CDDCB"/>
</g>
<defs>
<clipPath id="clip0_157_3232">
<rect width="217.358" height="144" fill="white"/>
</clipPath>
</defs>
</svg>
