<svg width="80" height="80" viewBox="0 0 80 80" fill="none" xmlns="http://www.w3.org/2000/svg">
<circle cx="40" cy="40" r="40" fill="#EDFCFB"/>
<path d="M41.6564 21C31.43 21 23.1667 29.2839 23.1667 39.5H17L25.0064 47.5064L25.1503 47.8044L33.4444 39.5H27.2778C27.2778 31.5553 33.7219 25.1111 41.6667 25.1111C49.6114 25.1111 56.0556 31.5553 56.0556 39.5C56.0556 47.4447 49.6114 53.8889 41.6667 53.8889C37.6892 53.8889 34.1022 52.265 31.5019 49.6647L28.5933 52.5733C31.9336 55.9239 36.5483 58 41.6564 58C51.8828 58 60.1667 49.7161 60.1667 39.5C60.1667 29.2839 51.8828 21 41.6564 21Z" fill="#2CDDCB"/>
</svg>
