<svg width="241" height="144" viewBox="0 0 241 144" fill="none" xmlns="http://www.w3.org/2000/svg">
<g clip-path="url(#clip0_145_31)">
<path d="M184.263 142.372C181.182 139.766 179.311 135.65 179.801 131.643C180.292 127.636 183.332 123.952 187.276 123.101C191.219 122.25 195.714 124.605 196.912 128.461C197.571 121.028 198.331 113.284 202.279 106.955C205.854 101.224 212.047 97.123 218.758 96.3894C225.469 95.6558 232.535 98.4266 236.72 103.728C240.906 109.029 241.931 116.736 238.999 122.822C236.84 127.305 232.861 130.642 228.693 133.356C215.223 142.054 199.068 145.591 183.199 143.317L184.263 142.372Z" fill="#F2F2F2"/>
<path d="M230.084 98.5802C224.546 103.094 219.466 108.143 214.917 113.653C207.798 122.246 202.036 131.881 197.834 142.222C197.527 142.976 198.751 143.304 199.055 142.558C205.93 125.753 216.906 110.94 230.979 99.476C231.611 98.961 230.711 98.0695 230.084 98.5802Z" fill="white"/>
<path d="M77.476 141.664C81.7081 138.085 84.2787 132.431 83.6046 126.927C82.9304 121.424 78.755 116.364 73.3388 115.195C67.9226 114.026 61.7485 117.262 60.1035 122.557C59.1981 112.348 58.1548 101.712 52.7316 93.0187C47.821 85.1471 39.3158 79.5146 30.0981 78.5069C20.8803 77.4993 11.1752 81.3051 5.42647 88.5862C-0.322305 95.8673 -1.72987 106.453 2.29642 114.812C5.26245 120.97 10.7269 125.553 16.4523 129.281C34.7183 141.176 57.3773 146.137 78.9376 142.962" fill="#F2F2F2"/>
<path d="M14.5415 81.516C22.1473 87.7159 29.1248 94.6499 35.3731 102.218C41.6224 109.778 47.1242 117.927 51.8013 126.55C54.4156 131.388 56.764 136.364 58.8362 141.458C59.2587 142.494 57.5775 142.945 57.1597 141.92C53.4894 132.94 48.9485 124.342 43.6022 116.249C38.2818 108.185 32.1924 100.656 25.4194 93.7691C21.5886 89.8755 17.5467 86.1957 13.3122 82.7464C12.4442 82.039 13.6807 80.8145 14.5415 81.516L14.5415 81.516Z" fill="white"/>
<path d="M172.758 143.685H71.7866V40.0047C71.7866 17.946 89.7186 0 111.76 0H132.784C154.826 0 172.758 17.946 172.758 40.0047V143.685Z" fill="#F2F2F2"/>
<path d="M151.733 143.685H71.7863V40.0047C71.7642 31.5524 74.4386 23.3136 79.4202 16.488C79.6038 16.2375 79.787 15.9902 79.9759 15.7457C82.3854 12.583 85.2528 9.79763 88.4835 7.48158C88.666 7.34869 88.8492 7.21811 89.0352 7.08753C91.7385 5.21531 94.6628 3.68481 97.7414 2.53086C97.9242 2.46152 98.1104 2.39203 98.2965 2.32539C101.081 1.33096 103.967 0.64979 106.902 0.29444C107.084 0.269565 107.271 0.2501 107.458 0.230635C110.318 -0.0754135 113.202 -0.0754135 116.063 0.230635C116.249 0.2501 116.436 0.269563 116.62 0.294706C119.554 0.650079 122.439 1.33117 125.223 2.3254C125.409 2.39204 125.595 2.46152 125.779 2.53101C128.819 3.6704 131.709 5.17806 134.384 7.02035C134.57 7.14809 134.756 7.27868 134.939 7.40926C136.75 8.70291 138.451 10.1441 140.024 11.7181C141.286 12.9807 142.462 14.3265 143.544 15.7465C143.733 15.9902 143.916 16.2375 144.099 16.4876C149.081 23.3133 151.755 31.5522 151.733 40.0047V143.685Z" fill="#CCCCCC"/>
<path d="M145.233 97.3125C147.677 97.3125 149.659 95.3294 149.659 92.883C149.659 90.4366 147.677 88.4534 145.233 88.4534C142.788 88.4534 140.807 90.4366 140.807 92.883C140.807 95.3294 142.788 97.3125 145.233 97.3125Z" fill="#2CDDCB"/>
<path d="M164.486 140.579H161.095L159.481 127.488L164.487 127.488L164.486 140.579Z" fill="#FFB8B8"/>
<path d="M158.672 139.609H165.213V143.731H154.554C154.554 143.19 154.66 142.654 154.867 142.154C155.074 141.654 155.378 141.199 155.76 140.817C156.142 140.434 156.596 140.13 157.096 139.923C157.596 139.716 158.131 139.609 158.672 139.609Z" fill="#2F2E41"/>
<path d="M181.361 140.579H177.969L176.355 127.488L181.361 127.488L181.361 140.579Z" fill="#FFB8B8"/>
<path d="M175.547 139.609H182.088V143.731H171.429C171.429 143.19 171.535 142.654 171.742 142.154C171.949 141.654 172.253 141.199 172.635 140.817C173.017 140.434 173.471 140.13 173.971 139.923C174.471 139.716 175.006 139.609 175.547 139.609Z" fill="#2F2E41"/>
<path d="M147.473 93.7605C147.229 93.4007 147.067 92.9918 146.998 92.5626C146.929 92.1333 146.955 91.6941 147.074 91.2759C147.192 90.8577 147.402 90.4707 147.686 90.1422C147.971 89.8137 148.324 89.5516 148.721 89.3744L160.25 57.5736L165.923 60.6719L152.759 91.0619C153.012 91.7486 153.005 92.5045 152.739 93.1863C152.472 93.868 151.965 94.4283 151.314 94.7609C150.662 95.0936 149.911 95.1755 149.203 94.9911C148.495 94.8067 147.88 94.3688 147.473 93.7605Z" fill="#FFB8B8"/>
<path d="M179.628 99.7359C179.251 99.5197 178.926 99.2233 178.676 98.8678C178.426 98.5122 178.257 98.1062 178.181 97.6781C178.104 97.2501 178.123 96.8105 178.235 96.3904C178.346 95.9702 178.549 95.5797 178.828 95.2464L175.256 61.6066L181.712 61.9017L183.197 94.9909C183.725 95.497 184.05 96.1795 184.109 96.9091C184.168 97.6387 183.958 98.3648 183.518 98.9497C183.079 99.5345 182.44 99.9376 181.723 100.083C181.006 100.227 180.26 100.104 179.628 99.7359Z" fill="#FFB8B8"/>
<path d="M169.329 51.6833C173.082 51.6833 176.123 48.6389 176.123 44.8836C176.123 41.1282 173.082 38.0839 169.329 38.0839C165.577 38.0839 162.535 41.1282 162.535 44.8836C162.535 48.6389 165.577 51.6833 169.329 51.6833Z" fill="#FFB8B8"/>
<path d="M179.585 92.0852H159.101L159.126 91.9257C159.163 91.6872 162.776 67.9951 160.111 60.2442C159.844 59.4825 159.867 58.6487 160.177 57.9033C160.487 57.1579 161.062 56.5536 161.79 56.2067H161.79C165.6 54.4113 172.913 52.2004 179.085 57.5658C179.994 58.3684 180.703 59.3714 181.157 60.4956C181.611 61.6197 181.798 62.8342 181.702 64.043L179.585 92.0852Z" fill="#2CDDCB"/>
<path d="M163.036 71.4965L153.813 69.6241L158.136 59.3724C158.395 58.3795 159.037 57.5298 159.92 57.0097C160.804 56.4896 161.858 56.3415 162.851 56.598C163.844 56.8545 164.694 57.4946 165.216 58.3779C165.738 59.2612 165.888 60.3155 165.635 61.3097L163.036 71.4965Z" fill="#2CDDCB"/>
<path d="M174.847 74.9731L174.292 62.2542C173.872 59.8633 175.239 57.6031 177.343 57.2336C179.447 56.8655 181.501 58.5238 181.923 60.9323L184.007 72.8168L174.847 74.9731Z" fill="#2CDDCB"/>
<path d="M178.903 90.5625C182.199 103.125 182.559 119.097 181.67 136.519L177.244 135.966L169.221 102.744L164.795 136.519L159.816 136.243C158.328 117.962 156.88 102.269 159.262 91.9467L178.903 90.5625Z" fill="#2F2E41"/>
<path d="M173.806 50.1385C172.539 51.4898 170.185 50.7644 170.019 48.9184C170.006 48.7751 170.007 48.6308 170.022 48.4877C170.108 47.67 170.58 46.9276 170.466 46.0643C170.441 45.8494 170.361 45.6446 170.234 45.4694C169.224 44.1158 166.853 46.0748 165.9 44.8494C165.315 44.098 166.002 42.915 165.554 42.0752C164.962 40.9668 163.208 41.5136 162.109 40.9066C160.885 40.2312 160.958 38.3526 161.764 37.2099C162.746 35.8164 164.468 35.0728 166.169 34.9656C167.869 34.8585 169.558 35.3185 171.146 35.9378C172.95 36.6413 174.739 37.6137 175.849 39.2011C177.199 41.1317 177.329 43.727 176.654 45.9844C176.243 47.3576 174.841 49.0351 173.806 50.1385Z" fill="#2F2E41"/>
<path d="M232.367 143.863H28.1302C28.043 143.863 27.9595 143.828 27.8979 143.766C27.8363 143.704 27.8018 143.621 27.8018 143.533C27.8018 143.446 27.8363 143.362 27.8979 143.301C27.9595 143.239 28.043 143.204 28.1302 143.204H232.367C232.454 143.204 232.538 143.239 232.6 143.301C232.661 143.362 232.696 143.446 232.696 143.533C232.696 143.621 232.661 143.704 232.6 143.766C232.538 143.828 232.454 143.863 232.367 143.863Z" fill="#3F3D56"/>
<path d="M129.741 113.647H93.7786C93.305 113.649 92.8497 113.464 92.5126 113.131C92.1755 112.798 91.9841 112.345 91.9805 111.871V31.5373C91.9841 31.0634 92.1755 30.6102 92.5126 30.2772C92.8497 29.9443 93.305 29.7587 93.7786 29.7613H129.741C130.215 29.7587 130.67 29.9443 131.007 30.2772C131.344 30.6102 131.535 31.0634 131.539 31.5373V111.871C131.535 112.345 131.344 112.798 131.007 113.131C130.67 113.464 130.215 113.649 129.741 113.647Z" fill="white"/>
<path d="M131.539 55.7546H91.9805V56.3083H131.539V55.7546Z" fill="#CCCCCC"/>
<path d="M131.678 87.3459H92.1191V87.8996H131.678V87.3459Z" fill="#CCCCCC"/>
<path d="M104.982 29.7614H104.429V113.924H104.982V29.7614Z" fill="#CCCCCC"/>
<path d="M118.814 29.7614H118.261V113.924H118.814V29.7614Z" fill="#CCCCCC"/>
</g>
<defs>
<clipPath id="clip0_145_31">
<rect width="240.671" height="144" fill="white"/>
</clipPath>
</defs>
</svg>
