<svg width="124" height="144" viewBox="0 0 124 144" fill="none" xmlns="http://www.w3.org/2000/svg">
<g clip-path="url(#clip0_148_1602)">
<path d="M119.544 53.0745H3.887C2.85647 53.0734 1.86848 52.6637 1.13979 51.9355C0.411092 51.2072 0.00118993 50.2199 0 49.19V3.88451C0.00118993 2.85463 0.411092 1.86727 1.13979 1.13904C1.86848 0.410801 2.85647 0.00115866 3.887 -3.05176e-05H119.544C120.575 0.00115866 121.563 0.410801 122.291 1.13904C123.02 1.86727 123.43 2.85463 123.431 3.88451V49.19C123.43 50.2199 123.02 51.2072 122.291 51.9355C121.563 52.6637 120.575 53.0734 119.544 53.0745Z" fill="#F2F2F2"/>
<path d="M92.57 50.5971H22.2456C17.0051 50.5912 11.981 48.5081 8.27538 44.8049C4.56979 41.1016 2.4854 36.0807 2.47949 30.8435V22.2332C2.4854 16.9961 4.56978 11.9751 8.27536 8.27181C11.9809 4.56854 17.0051 2.48544 22.2456 2.4795H101.186C106.426 2.48544 111.45 4.56854 115.156 8.27181C118.862 11.9751 120.946 16.9961 120.952 22.2332C120.943 29.7532 117.95 36.9627 112.63 42.2801C107.309 47.5975 100.095 50.5886 92.57 50.5971Z" fill="white"/>
<path d="M74.4292 15.449H27.9439C27.678 15.449 27.423 15.3434 27.235 15.1555C27.047 14.9677 26.9414 14.7128 26.9414 14.4471C26.9414 14.1814 27.047 13.9266 27.235 13.7387C27.423 13.5509 27.678 13.4453 27.9439 13.4453H74.4292C74.695 13.4453 74.95 13.5509 75.138 13.7387C75.326 13.9266 75.4316 14.1814 75.4316 14.4471C75.4316 14.7128 75.326 14.9677 75.138 15.1555C74.95 15.3434 74.695 15.449 74.4292 15.449Z" fill="#E6E6E6"/>
<path d="M97.9608 26.1378H27.9439C27.678 26.1378 27.423 26.0322 27.235 25.8443C27.047 25.6565 26.9414 25.4016 26.9414 25.1359C26.9414 24.8702 27.047 24.6154 27.235 24.4275C27.423 24.2397 27.678 24.1341 27.9439 24.1341H97.9608C98.2267 24.1341 98.4817 24.2397 98.6697 24.4275C98.8577 24.6154 98.9633 24.8702 98.9633 25.1359C98.9633 25.4016 98.8577 25.6565 98.6697 25.8443C98.4817 26.0322 98.2267 26.1378 97.9608 26.1378Z" fill="#E6E6E6"/>
<path d="M97.9608 36.8266H27.9439C27.678 36.8266 27.423 36.721 27.235 36.5331C27.047 36.3453 26.9414 36.0904 26.9414 35.8247C26.9414 35.559 27.047 35.3042 27.235 35.1163C27.423 34.9285 27.678 34.8229 27.9439 34.8229H97.9608C98.2267 34.8229 98.4817 34.9285 98.6697 35.1163C98.8577 35.3042 98.9633 35.559 98.9633 35.8247C98.9633 36.0904 98.8577 36.3453 98.6697 36.5331C98.4817 36.721 98.2267 36.8266 97.9608 36.8266Z" fill="#E6E6E6"/>
<path d="M97.9608 36.8266H27.9439C27.678 36.8266 27.423 36.721 27.235 36.5331C27.047 36.3453 26.9414 36.0904 26.9414 35.8247C26.9414 35.559 27.047 35.3042 27.235 35.1163C27.423 34.9285 27.678 34.8229 27.9439 34.8229H97.9608C98.2267 34.8229 98.4817 34.9285 98.6697 35.1163C98.8577 35.3042 98.9633 35.559 98.9633 35.8247C98.9633 36.0904 98.8577 36.3453 98.6697 36.5331C98.4817 36.721 98.2267 36.8266 97.9608 36.8266Z" fill="#E6E6E6"/>
<path d="M69.5239 27.3646C69.535 27.6663 69.6123 27.962 69.7501 28.2307C69.888 28.4994 70.0831 28.7347 70.3217 28.9199C70.5604 29.1051 70.8368 29.2357 71.1315 29.3026C71.4261 29.3695 71.7318 29.371 72.0272 29.3071L75.8501 35.5748L77.4772 32.1243L73.5974 26.7014C73.457 26.2127 73.1421 25.7925 72.7124 25.5204C72.2827 25.2482 71.768 25.1431 71.2659 25.2248C70.7638 25.3066 70.3091 25.5695 69.9881 25.9639C69.667 26.3583 69.5019 26.8566 69.5239 27.3646H69.5239Z" fill="#FFB6B6"/>
<path d="M98.213 45.3273L85.0383 38.1856L80.8827 34.2893C80.8827 34.2893 79.0761 33.8059 79.7411 33.2188C80.406 32.6318 78.5111 32.0657 78.5111 32.0657L76.2803 29.974L73.1104 32.2155L74.0278 33.6368C74.0278 33.6368 73.9646 35.9895 75.2543 35.5369C76.544 35.0842 76.2217 37.0355 76.2217 37.0355L83.9197 48.9609L98.213 45.3273Z" fill="#3F3D56"/>
<path d="M59.3227 38.5987C66.4298 38.5987 72.1912 32.8409 72.1912 25.7383C72.1912 18.6357 66.4298 12.8779 59.3227 12.8779C52.2156 12.8779 46.4541 18.6357 46.4541 25.7383C46.4541 32.8409 52.2156 38.5987 59.3227 38.5987Z" fill="#2CDDCB"/>
<path d="M98.2538 139H95.578L94.3047 128.686H98.2538V139Z" fill="#FFB6B6"/>
<path d="M99.6659 143.633H97.747L97.4045 141.823L96.5273 143.633H91.438C91.1941 143.633 90.9565 143.555 90.76 143.411C90.5635 143.266 90.4184 143.063 90.3458 142.83C90.2732 142.597 90.2769 142.347 90.3565 142.117C90.436 141.886 90.5872 141.687 90.788 141.549L94.8521 138.744V136.914L99.1269 137.169L99.6659 143.633Z" fill="#2F2E41"/>
<path d="M76.8534 139H74.1776L72.9043 128.686H76.8534V139Z" fill="#FFB6B6"/>
<path d="M78.2655 143.633H76.3466L76.0041 141.823L75.1269 143.633H70.0376C69.7937 143.633 69.5561 143.555 69.3596 143.411C69.1631 143.266 69.018 143.063 68.9454 142.83C68.8728 142.597 68.8765 142.347 68.9561 142.117C69.0356 141.886 69.1868 141.687 69.3876 141.549L73.4517 138.744V136.914L77.7265 137.169L78.2655 143.633Z" fill="#2F2E41"/>
<path d="M95.4147 60.9956H81.9097V76.3609H95.4147V60.9956Z" fill="#FFB6B6"/>
<path d="M82.2213 68.5744L79.9358 71.2737L75.9882 79.5793L66.0412 103.231L63.9375 108.233L65.6363 117.076C65.6363 117.076 65.9113 123.306 65.9113 124.325C65.9113 126.402 67.6491 127.552 67.6491 127.552L68.924 134.188L81.2863 133.669C81.2863 133.669 80.855 126.355 78.2657 124.509C75.6765 122.664 74.4863 113.048 74.4863 113.048L73.0794 108.782L86.7922 92.5371L86.8807 98.2155L86.9236 100.964C86.9236 100.964 84.9154 118.84 87.2563 122.31C89.5971 125.779 87.304 125.371 87.304 125.371L87.4155 132.527L102.063 132.631L98.8318 112.027C98.8318 112.027 97.1909 110.733 98.0689 109.431C98.9468 108.13 97.218 106.536 97.218 106.536L97.9934 90.451C97.9934 90.451 97.1348 87.6727 98.1447 87.3116C99.1546 86.9505 98.2773 84.5613 98.2773 84.5613L98.4274 81.448L95.4147 71.7928L82.2213 68.5744Z" fill="#2F2E41"/>
<path d="M95.9104 64.7958L97.4552 59.8161L98.5586 58.1561L99 53.4135C99 40.6084 96.3418 42.7408 96.3418 42.7408L94.8069 38.2371L87.7449 38L83.2208 42.6241L79.4691 44.0468L78 52.2493L80.6829 61.0017L81.345 65.7443C80.082 68.2496 80.1889 67.0646 81.2346 68.9456L93.7035 72.6211C98.1173 74.2811 98.1173 70.0127 97.2322 68.9456C96.3472 67.8785 95.9104 64.7958 95.9104 64.7958Z" fill="#3F3D56"/>
<path d="M90.4004 36.1386C93.8044 36.1386 96.5639 33.3808 96.5639 29.9789C96.5639 26.577 93.8044 23.8193 90.4004 23.8193C86.9963 23.8193 84.2368 26.577 84.2368 29.9789C84.2368 33.3808 86.9963 36.1386 90.4004 36.1386Z" fill="#FFB6B6"/>
<path d="M98.6291 38.201C98.6872 38.2989 98.7224 38.4087 98.7321 38.5221C98.7418 38.6355 98.7258 38.7496 98.6853 38.856C98.6448 38.9624 98.5807 39.0582 98.498 39.1364C98.4152 39.2147 98.3159 39.2732 98.2073 39.3077C97.3804 39.5818 96.8714 40.3812 96.2771 41.0207C95.685 41.6582 94.7313 42.1877 93.975 41.7537C93.2208 41.3218 93.1689 40.2192 92.5373 39.6212C91.9223 39.0399 90.9 39.1104 90.177 39.5527L90.1554 39.566C90.0306 39.6473 89.8847 39.6903 89.7357 39.6896C89.5867 39.6889 89.4412 39.6446 89.3171 39.5622C89.193 39.4797 89.0959 39.3628 89.0376 39.2257C88.9794 39.0887 88.9626 38.9376 88.9894 38.7911C89.2427 37.4446 89.4959 36.0983 89.749 34.7521C89.084 36.3531 88.1185 37.812 86.9046 39.0502C86.5703 39.4359 86.1465 39.7338 85.6705 39.9182C85.2383 40.0552 84.8186 39.6088 84.3989 39.6898C85.4419 38.7782 88.9491 32.9352 88.3216 29.0296C87.584 29.1126 86.8464 29.1957 86.1089 29.2787C86.029 28.9299 85.8584 28.6083 85.6144 28.3464C85.6442 28.686 85.601 29.0279 85.4876 29.3493C85.1801 29.3846 84.8705 29.4179 84.563 29.4532C84.135 29.5009 83.6696 29.5424 83.3019 29.3182C82.689 28.9444 82.6703 28.0599 82.8448 27.3622C83.3559 25.3336 84.9058 23.6372 86.8028 22.7485C88.6997 21.8619 89.2607 23.8365 91.2595 23.2053C95.2071 21.9595 98.2322 24.0899 99.2981 28.0433C100.194 31.3593 99.5433 34.8788 98.6291 38.201Z" fill="#2F2E41"/>
<path d="M115.692 143.767H108.145L108.113 143.708C108.016 143.533 107.923 143.348 107.836 143.158C107.059 141.494 106.73 139.592 106.44 137.914L106.222 136.649C106.195 136.495 106.215 136.338 106.279 136.196C106.343 136.054 106.447 135.934 106.579 135.852C106.712 135.77 106.865 135.73 107.021 135.735C107.176 135.741 107.326 135.793 107.452 135.884C108.599 136.718 109.747 137.552 110.894 138.384C111.329 138.7 111.825 139.066 112.301 139.461C112.347 139.239 112.395 139.015 112.443 138.795C112.476 138.643 112.553 138.505 112.666 138.397C112.778 138.289 112.92 138.218 113.074 138.191C113.227 138.165 113.385 138.184 113.527 138.248C113.669 138.312 113.789 138.416 113.871 138.548L114.754 139.966C115.398 141.002 115.966 142.022 115.851 143.122C115.851 143.136 115.85 143.149 115.848 143.162C115.824 143.343 115.781 143.521 115.719 143.692L115.692 143.767Z" fill="#F0F0F0"/>
<path d="M123.268 143.93L51.5502 144C51.4786 144 51.4101 143.971 51.3596 143.92C51.3091 143.87 51.2808 143.801 51.2808 143.729C51.2808 143.658 51.3091 143.589 51.3596 143.539C51.4101 143.488 51.4786 143.459 51.5502 143.459L123.268 143.389C123.339 143.389 123.408 143.418 123.458 143.469C123.509 143.519 123.537 143.588 123.537 143.66C123.537 143.731 123.509 143.8 123.458 143.85C123.408 143.901 123.339 143.93 123.268 143.93Z" fill="#CACACA"/>
<path d="M58.1527 43.0475L50.2641 36.3898C49.9945 36.1617 49.8264 35.8361 49.7967 35.4843C49.767 35.1325 49.8782 34.7833 50.1058 34.5133L51.5577 32.7951C51.786 32.5257 52.1118 32.3577 52.4639 32.328C52.8159 32.2983 53.1653 32.4094 53.4354 32.6369L61.324 39.2946C61.5937 39.5227 61.7618 39.8483 61.7915 40.2001C61.8211 40.5519 61.71 40.9011 61.4823 41.1711L60.0304 42.8893C59.8022 43.1588 59.4763 43.3268 59.1243 43.3564C58.7723 43.3861 58.4229 43.275 58.1527 43.0475Z" fill="#3F3D56"/>
<path d="M50.6784 34.6519C50.5557 34.7973 50.4958 34.9855 50.5118 35.1751C50.5278 35.3647 50.6184 35.5401 50.7637 35.6631L58.6523 42.3207C58.7979 42.4433 58.9862 42.5032 59.1759 42.4872C59.3656 42.4712 59.5412 42.3807 59.6642 42.2355L61.1161 40.5173C61.2387 40.3718 61.2986 40.1836 61.2826 39.9941C61.2666 39.8045 61.1761 39.629 61.0308 39.5061L53.1422 32.8484C52.9966 32.7258 52.8083 32.666 52.6186 32.682C52.4289 32.6979 52.2533 32.7885 52.1303 32.9337L50.6784 34.6519Z" fill="white"/>
<path d="M55.3091 37.24C55.2817 37.2783 55.2458 37.3096 55.2041 37.3316C55.1625 37.3536 55.1163 37.3657 55.0693 37.3667L53.8298 37.3952C53.79 37.3961 53.7504 37.3891 53.7132 37.3748C53.6761 37.3604 53.6421 37.3388 53.6133 37.3113C53.5845 37.2838 53.5614 37.2509 53.5454 37.2145C53.5293 37.1781 53.5205 37.1389 53.5196 37.0991C53.5187 37.0593 53.5256 37.0197 53.54 36.9826C53.5544 36.9455 53.576 36.9116 53.6035 36.8828C53.631 36.854 53.6639 36.8309 53.7004 36.8148C53.7368 36.7988 53.7761 36.79 53.8159 36.7891L54.6267 36.7705L53.8282 34.6647C53.7999 34.5896 53.8026 34.5063 53.8357 34.4332C53.8687 34.36 53.9295 34.303 54.0046 34.2745C54.0797 34.2461 54.163 34.2486 54.2363 34.2814C54.3096 34.3143 54.3668 34.3749 54.3954 34.4499L55.3459 36.9563C55.3631 37.0016 55.3692 37.0504 55.3636 37.0986C55.358 37.1467 55.341 37.1928 55.3139 37.2331L55.3091 37.24Z" fill="#2CDDCB"/>
<path d="M55.4681 37.7692C55.767 37.8131 56.0527 37.9219 56.305 38.0881C56.5573 38.2542 56.7701 38.4737 56.9284 38.7309C57.0866 38.9881 57.1866 39.2769 57.2211 39.5769C57.2556 39.8769 57.2238 40.1808 57.1281 40.4672L62.9469 44.9466L59.3378 46.1879L54.3655 41.7438C53.8947 41.5512 53.5109 41.1927 53.2869 40.7362C53.063 40.2797 53.0143 39.757 53.1502 39.2671C53.2861 38.7772 53.5972 38.3541 54.0244 38.078C54.4515 37.8019 54.9652 37.692 55.4681 37.7692L55.4681 37.7692Z" fill="#FFB6B6"/>
<path d="M85.7621 39.984L70.8642 49.138C70.8642 49.138 64.8575 46.917 66.0314 45.8888C67.2053 44.8605 63.4683 44.1654 63.4683 44.1654L59.3399 41.3897L56.9443 44.1721C56.9443 44.1721 57.3808 48.6914 58.1235 47.9089C58.8662 47.1264 59.9764 49.2641 59.9764 49.2641C59.9764 49.2641 60.3044 51.651 62.4186 51.0503C64.5328 50.4496 70.2059 56.7458 70.2059 56.7458L88.5407 49.912L85.7621 39.984Z" fill="#3F3D56"/>
<path d="M58.8702 30.8971C58.6975 30.8971 58.5272 30.8569 58.3727 30.7797C58.2182 30.7025 58.0839 30.5904 57.9803 30.4523L55.2518 26.8165C55.1641 26.6997 55.1003 26.5668 55.0641 26.4254C55.0278 26.2839 55.0198 26.1368 55.0405 25.9922C55.0611 25.8477 55.1101 25.7086 55.1845 25.583C55.259 25.4574 55.3574 25.3476 55.4743 25.26C55.7104 25.0831 56.0071 25.0072 56.2991 25.0489C56.4438 25.0695 56.5829 25.1184 56.7086 25.1928C56.8343 25.2672 56.9441 25.3656 57.0318 25.4824L58.8169 27.8609L63.4017 20.9882C63.5653 20.7428 63.8198 20.5725 64.1092 20.5147C64.3985 20.4568 64.699 20.5162 64.9445 20.6798C65.19 20.8434 65.3604 21.0977 65.4183 21.3868C65.4761 21.676 65.4167 21.9763 65.253 22.2216L59.796 30.402C59.6973 30.55 59.5645 30.6721 59.4088 30.7582C59.2531 30.8443 59.079 30.8918 58.9012 30.8968C58.8909 30.897 58.8805 30.8971 58.8702 30.8971Z" fill="white"/>
</g>
<defs>
<clipPath id="clip0_148_1602">
<rect width="123.537" height="144" fill="white"/>
</clipPath>
</defs>
</svg>
