<svg width="62" height="50" viewBox="0 0 62 50" fill="none" xmlns="http://www.w3.org/2000/svg">
<path d="M18.9655 14.7316C16.2027 14.7316 13.9572 12.4072 13.9572 9.53732C13.9572 6.6783 16.2027 4.34308 18.9655 4.34308C21.7283 4.34308 23.9738 6.66739 23.9738 9.53732C23.9628 12.3963 21.7173 14.7316 18.9655 14.7316ZM18.9655 6.34002C17.3144 6.34002 15.9605 7.78044 15.9605 9.53732C15.9605 11.3051 17.3034 12.7346 18.9655 12.7346C20.6166 12.7346 21.9594 11.2942 21.9594 9.53732C21.9594 7.76953 20.6166 6.34002 18.9655 6.34002Z" fill="#FE3D01"/>
<path d="M18.9655 50C18.4151 50 17.9638 49.5526 17.9638 49.007V34.3627C17.9638 33.8171 18.4151 33.3697 18.9655 33.3697C19.5159 33.3697 19.9672 33.8171 19.9672 34.3627V49.007C19.9672 49.5526 19.5159 50 18.9655 50Z" fill="#FE3D01"/>
<path d="M23.4344 50H14.4965C13.9462 50 13.4949 49.5526 13.4949 49.007V22.6866C7.01163 21.399 2.53168 17.4269 0.473327 14.0332C-0.385237 12.6146 -0.0440129 10.7922 1.27686 9.7774C2.58672 8.77347 4.43593 8.87168 5.59169 10.0175C9.68638 14.0768 13.8581 15.7355 14.6727 16.041H23.2693C24.0838 15.7464 28.2556 14.0877 32.3503 10.0175C33.506 8.87168 35.3553 8.77347 36.6651 9.7774C37.975 10.7922 38.3162 12.6146 37.4687 14.0332C35.4103 17.4269 30.9414 21.399 24.4471 22.6866V49.007C24.4361 49.5526 23.9848 50 23.4344 50ZM15.4872 48.014H22.4218V21.8573C22.4218 21.3662 22.785 20.9516 23.2693 20.8752C29.5324 19.8931 33.8142 16.172 35.7295 13.0074C36.0597 12.4509 35.9276 11.7416 35.4213 11.3488C34.915 10.9559 34.1995 10.9887 33.7592 11.4252C28.861 16.2811 23.9518 17.907 23.7426 17.9725C23.6436 18.0052 23.5335 18.0271 23.4344 18.0271H14.4965C14.3865 18.0271 14.2874 18.0052 14.1883 17.9725C13.9792 17.907 9.06998 16.2811 4.18277 11.4252C3.74248 10.9887 3.02701 10.9559 2.50967 11.3488C1.99233 11.7416 1.86024 12.4618 2.20146 13.0074C4.11672 16.1611 8.39854 19.8822 14.6617 20.8752C15.146 20.9516 15.5092 21.3662 15.5092 21.8573V48.014H15.4872Z" fill="#FE3D01"/>
<path d="M57.744 30.5325H27.7933C27.2429 30.5325 26.7916 30.0851 26.7916 29.5395C26.7916 28.9939 27.2429 28.5465 27.7933 28.5465H57.755C58.7126 28.5465 59.4831 27.7826 59.4831 26.8333V3.69926C59.4831 2.74989 58.7126 1.98603 57.755 1.98603H21.6953C21.1449 1.98603 20.6936 1.53863 20.6936 0.993016C20.6936 0.447403 21.1339 0 21.6953 0H57.744C59.8023 0 61.4754 1.65866 61.4754 3.69926V26.8333C61.4754 28.8739 59.8023 30.5325 57.744 30.5325Z" fill="#FE3D01"/>
<path d="M53.5392 8.30424H41.8495C41.2992 8.30424 40.8479 7.85684 40.8479 7.31122C40.8479 6.76561 41.2992 6.31821 41.8495 6.31821H53.5392C54.0896 6.31821 54.5409 6.76561 54.5409 7.31122C54.5409 7.85684 54.0896 8.30424 53.5392 8.30424Z" fill="#FE3D01"/>
<path d="M55.2343 12.5164H41.8495C41.2992 12.5164 40.8479 12.069 40.8479 11.5234C40.8479 10.9777 41.2992 10.5303 41.8495 10.5303H55.2343C55.7847 10.5303 56.236 10.9777 56.236 11.5234C56.236 12.0799 55.7847 12.5164 55.2343 12.5164Z" fill="#FE3D01"/>
<path d="M48.5419 27.4007C44.9866 27.4007 42.0807 24.5308 42.0807 21.0061C42.0807 17.4815 44.9756 14.6006 48.5419 14.6006C52.0973 14.6006 54.9922 17.4705 54.9922 21.0061C54.9922 24.5308 52.0973 27.4007 48.5419 27.4007ZM48.5419 16.5866C46.0873 16.5866 44.095 18.5618 44.095 20.9952C44.095 23.4286 46.0873 25.4038 48.5419 25.4038C50.9965 25.4038 52.9889 23.4286 52.9889 20.9952C52.9889 18.5727 50.9965 16.5866 48.5419 16.5866Z" fill="#FE3D01"/>
<path d="M52.7577 25.4256C52.5375 25.4256 52.3064 25.3492 52.1193 25.1964L47.9035 21.77C47.6723 21.5845 47.5403 21.3008 47.5403 21.0061V15.6046C47.5403 15.0589 47.9915 14.6115 48.5419 14.6115C49.0923 14.6115 49.5436 15.0589 49.5436 15.6046V20.5369L53.3961 23.6687C53.8254 24.0179 53.8914 24.6399 53.5392 25.0655C53.3411 25.3056 53.0439 25.4256 52.7577 25.4256Z" fill="#FE3D01"/>
<path d="M39.0096 25.4256H30.6552C30.1048 25.4256 29.6535 24.9782 29.6535 24.4326C29.6535 23.8869 30.1048 23.4395 30.6552 23.4395H39.0096C39.56 23.4395 40.0113 23.8869 40.0113 24.4326C40.0113 24.9782 39.571 25.4256 39.0096 25.4256Z" fill="#FE3D01"/>
<path d="M41.002 50H39.4059C38.8556 50 38.4043 49.5526 38.4043 49.007C38.4043 48.4614 38.8556 48.014 39.4059 48.014H41.013C41.5633 48.014 42.0146 48.4614 42.0146 49.007C42.0036 49.5526 41.5633 50 41.002 50Z" fill="#FE3D01"/>
<path d="M45.8341 50H44.2271C43.6767 50 43.2254 49.5526 43.2254 49.007C43.2254 48.4614 43.6767 48.014 44.2271 48.014H45.8341C46.3845 48.014 46.8358 48.4614 46.8358 49.007C46.8358 49.5526 46.3845 50 45.8341 50Z" fill="#FE3D01"/>
<path d="M50.6553 50H49.0483C48.4979 50 48.0466 49.5526 48.0466 49.007C48.0466 48.4614 48.4979 48.014 49.0483 48.014H50.6553C51.2057 48.014 51.657 48.4614 51.657 49.007C51.657 49.5526 51.2057 50 50.6553 50Z" fill="#FE3D01"/>
<path d="M39.4059 50H7.70509C7.15473 50 6.70343 49.5526 6.70343 49.007C6.70343 48.4614 7.15473 48.014 7.70509 48.014H39.4059C39.9563 48.014 40.4076 48.4614 40.4076 49.007C40.4076 49.5526 39.9563 50 39.4059 50Z" fill="#FE3D01"/>
</svg>
