<svg width="54" height="50" viewBox="0 0 54 50" fill="none" xmlns="http://www.w3.org/2000/svg">
<path d="M5.81487 50C5.31616 50 4.90723 49.591 4.90723 49.0923V47.4566C4.90723 46.9579 5.31616 46.549 5.81487 46.549C6.31357 46.549 6.72251 46.9579 6.72251 47.4566V49.0923C6.72251 49.601 6.31357 50 5.81487 50Z" fill="#CF982C"/>
<path d="M13.2555 50C12.7568 50 12.3479 49.591 12.3479 49.0923V47.4566C12.3479 46.9579 12.7568 46.549 13.2555 46.549C13.7542 46.549 14.1632 46.9579 14.1632 47.4566V49.0923C14.1632 49.601 13.7542 50 13.2555 50Z" fill="#CF982C"/>
<path d="M9.5352 40.5546C7.15139 40.5546 5.20645 38.5199 5.20645 36.0263C5.20645 33.5328 7.15139 31.4981 9.5352 31.4981C11.919 31.4981 13.8639 33.5328 13.8639 36.0263C13.8639 38.5199 11.919 40.5546 9.5352 40.5546ZM9.5352 33.3134C8.1488 33.3134 7.02173 34.5302 7.02173 36.0263C7.02173 37.5224 8.1488 38.7393 9.5352 38.7393C10.9216 38.7393 12.0487 37.5224 12.0487 36.0263C12.0487 34.5302 10.9216 33.3134 9.5352 33.3134Z" fill="#CF982C"/>
<path d="M16.7066 50H2.36385C1.86514 50 1.45621 49.591 1.45621 49.0923V44.8434C1.45621 42.5494 3.32136 40.6842 5.61539 40.6842H13.455C15.749 40.6842 17.6142 42.5494 17.6142 44.8434V49.0923C17.6142 49.601 17.2053 50 16.7066 50ZM3.27149 48.1847H15.7989V44.8434C15.7989 43.5468 14.7417 42.4995 13.455 42.4995H5.61539C4.31876 42.4995 3.27149 43.5468 3.27149 44.8434V48.1847Z" fill="#CF982C"/>
<path d="M25.0549 50H0.90764C0.408937 50 0 49.5911 0 49.0924C0 48.5937 0.408937 48.1847 0.90764 48.1847H25.0549C25.5536 48.1847 25.9625 48.5937 25.9625 49.0924C25.9625 49.601 25.5536 50 25.0549 50Z" fill="#CF982C"/>
<path d="M33.1538 40.5546C28.067 40.5546 23.2196 38.6695 19.4694 35.2384L15.0808 34.6599C14.7417 34.61 14.4524 34.3806 14.3427 34.0515C14.233 33.7223 14.3128 33.3633 14.5522 33.1239L16.2178 31.4383C14.0235 28.1269 12.8765 24.2869 12.8765 20.2873C12.8865 9.09635 21.9729 0 33.1538 0C44.3347 0 53.4311 9.09635 53.4311 20.2773C53.4311 25.6633 51.3465 30.7301 47.5564 34.5502C47.2073 34.9092 46.6288 34.9092 46.2697 34.5502C45.9106 34.2011 45.9106 33.6226 46.2597 33.2635C49.7108 29.7826 51.6058 25.1646 51.6058 20.2673C51.6058 10.0838 43.3274 1.80531 33.1438 1.80531C22.9603 1.80531 14.6818 10.0838 14.6818 20.2673C14.6818 24.1372 15.8687 27.8476 18.1229 30.9894C18.3822 31.3485 18.3423 31.8372 18.0331 32.1564L17.1255 33.084L19.988 33.463C20.1775 33.4829 20.3571 33.5727 20.4967 33.7024C23.9378 36.9439 28.4261 38.7293 33.1538 38.7293C33.7223 38.7293 34.2908 38.6994 34.8394 38.6495C35.3381 38.6096 35.777 38.9687 35.8269 39.4674C35.8767 39.9661 35.5077 40.4049 35.009 40.4548C34.4006 40.5246 33.7722 40.5546 33.1538 40.5546Z" fill="#CF982C"/>
<path d="M34.9292 40.4748C34.4604 40.4748 34.0714 40.1157 34.0215 39.6469C33.9717 39.1482 34.3407 38.7094 34.8394 38.6595C35.2982 38.6196 35.757 38.5598 36.2158 38.48C36.6946 38.4002 37.1833 38.7293 37.2631 39.228C37.3429 39.7267 37.0138 40.1955 36.5151 40.2753C36.0164 40.3551 35.5177 40.4249 35.009 40.4648C34.9791 40.4648 34.9491 40.4748 34.9292 40.4748Z" fill="#CF982C"/>
<path d="M40.4449 39.1283C40.0858 39.1283 39.7467 38.9188 39.607 38.5598C39.4175 38.091 39.637 37.5623 40.1057 37.3728C40.7241 37.1235 41.3425 36.8243 41.931 36.5051C42.3698 36.2657 42.9184 36.4353 43.1578 36.8741C43.3972 37.313 43.2276 37.8616 42.7888 38.1009C42.1404 38.45 41.4622 38.7692 40.784 39.0485C40.6842 39.1083 40.5645 39.1283 40.4449 39.1283Z" fill="#CF982C"/>
<path d="M45.8508 35.8069C45.5915 35.8069 45.3421 35.6972 45.1626 35.4977C44.8334 35.1187 44.8733 34.5502 45.2523 34.221C45.6014 33.9218 45.9405 33.6026 46.2597 33.2735C46.6088 32.9144 47.1873 32.9144 47.5464 33.2635C47.9054 33.6126 47.9054 34.1911 47.5563 34.5502C47.2072 34.9092 46.8282 35.2583 46.4492 35.5875C46.2797 35.7371 46.0602 35.8069 45.8508 35.8069Z" fill="#CF982C"/>
<path d="M20.7062 36.0163C20.4967 36.0163 20.2972 35.9465 20.1177 35.8069C19.4195 35.2184 18.7612 34.5801 18.1528 33.9118C17.8137 33.5428 17.8436 32.9643 18.2127 32.6252C18.5817 32.286 19.1602 32.316 19.4993 32.685C20.0579 33.2934 20.6563 33.8819 21.2946 34.4105C21.6737 34.7297 21.7235 35.3082 21.4044 35.6872C21.2148 35.9066 20.9655 36.0163 20.7062 36.0163Z" fill="#CF982C"/>
<path d="M33.1538 27.0297C32.6551 27.0297 32.2461 26.6208 32.2461 26.1221V26.0423C32.2461 22.9503 33.6924 19.9481 36.2258 17.8137C37.3529 16.8661 37.9713 15.4698 37.9114 13.9936C37.8216 11.5699 35.767 9.51525 33.3433 9.42548C32.0467 9.38558 30.7999 9.84439 29.8524 10.752C28.9148 11.6597 28.3962 12.8765 28.3962 14.1831C28.3962 14.6818 27.9872 15.0908 27.4885 15.0908C26.9898 15.0908 26.5809 14.6818 26.5809 14.1831C26.5809 12.3778 27.299 10.7022 28.5956 9.44543C29.8923 8.19867 31.6078 7.54038 33.4131 7.6102C36.8242 7.73986 39.597 10.5127 39.7267 13.9238C39.8065 15.9685 38.9587 17.8835 37.3928 19.2001C35.2783 20.9854 34.0614 23.4789 34.0614 26.0423V26.1221C34.0614 26.6208 33.6625 27.0297 33.1538 27.0297Z" fill="#CF982C"/>
<path d="M33.1538 32.9444C31.6776 32.9444 30.4708 31.7475 30.4708 30.2613C30.4708 28.7752 31.6677 27.5783 33.1538 27.5783C34.63 27.5783 35.8368 28.7752 35.8368 30.2613C35.8368 31.7475 34.63 32.9444 33.1538 32.9444ZM33.1538 29.4036C32.675 29.4036 32.296 29.7925 32.296 30.2613C32.296 30.7401 32.685 31.1191 33.1538 31.1191C33.6325 31.1191 34.0116 30.7301 34.0116 30.2613C34.0215 29.7925 33.6325 29.4036 33.1538 29.4036Z" fill="#CF982C"/>
</svg>
