<svg width="46" height="50" viewBox="0 0 46 50" fill="none" xmlns="http://www.w3.org/2000/svg">
<path d="M42.4595 39.3604H3.4955C1.56757 39.3604 0 37.7928 0 35.8649V11.982C0 10.054 1.56757 8.48648 3.4955 8.48648C3.94595 8.48648 4.31532 8.85585 4.31532 9.3063C4.31532 9.75675 3.94595 10.1261 3.4955 10.1261C2.46847 10.1261 1.63964 10.9549 1.63964 11.982V35.8649C1.63964 36.8919 2.46847 37.7207 3.4955 37.7207H42.4595C43.4865 37.7207 44.3153 36.8919 44.3153 35.8649V11.982C44.3153 10.9549 43.4865 10.1261 42.4595 10.1261C42.009 10.1261 41.6396 9.75675 41.6396 9.3063C41.6396 8.85585 42.009 8.48648 42.4595 8.48648C44.3874 8.48648 45.955 10.054 45.955 11.982V35.8649C45.955 37.7928 44.3874 39.3604 42.4595 39.3604Z" fill="#3BA42A"/>
<path d="M45.1351 35.2703H0.81982C0.369369 35.2703 0 34.9009 0 34.4505C0 34 0.369369 33.6306 0.81982 33.6306H45.1351C45.5856 33.6306 45.955 34 45.955 34.4505C45.955 34.9009 45.5856 35.2703 45.1351 35.2703Z" fill="#3BA42A"/>
<path d="M25.7388 43.7748H20.2162C19.7658 43.7748 19.3964 43.4054 19.3964 42.955V38.5406C19.3964 38.0901 19.7658 37.7207 20.2162 37.7207H25.7388C26.1892 37.7207 26.5586 38.0901 26.5586 38.5406V42.955C26.5586 43.4054 26.1892 43.7748 25.7388 43.7748ZM21.0361 42.1352H24.9189V39.3604H21.0361V42.1352Z" fill="#3BA42A"/>
<path d="M30.2703 50H15.6937C15.3063 50 14.973 49.7297 14.8919 49.3513C14.8108 48.973 15 48.5946 15.3514 48.4324C18.4775 47.018 18.3063 43.036 18.3063 42.991C18.2973 42.7658 18.3784 42.5495 18.5316 42.3874C18.6847 42.2252 18.9009 42.1351 19.1261 42.1351H26.8289C27.0541 42.1351 27.2703 42.2252 27.4234 42.3874C27.5766 42.5495 27.6577 42.7658 27.6487 42.991C27.6397 43.1532 27.5045 47.018 30.6036 48.4324C30.955 48.5946 31.1442 48.973 31.0631 49.3513C30.982 49.7297 30.6487 50 30.2703 50ZM18.1442 48.3604H27.8108C26.4685 46.8198 26.1171 44.8739 26.0361 43.7748H19.928C19.8379 44.8829 19.4865 46.8198 18.1442 48.3604Z" fill="#3BA42A"/>
<path d="M34.2883 50H11.6667C11.2162 50 10.8469 49.6306 10.8469 49.1802C10.8469 48.7297 11.2162 48.3604 11.6667 48.3604H34.2883C34.7388 48.3604 35.1081 48.7297 35.1081 49.1802C35.1081 49.6306 34.7478 50 34.2883 50Z" fill="#3BA42A"/>
<path d="M26.2252 35.2703H19.7297C19.2793 35.2703 18.9099 34.9009 18.9099 34.4505V21.6487C18.7117 21.7027 18.5045 21.7387 18.2883 21.7387H18.1532C16.9099 21.7387 15.8919 20.7207 15.8919 19.4775V12.3424C15.8919 10.3243 17.5315 8.68469 19.5496 8.68469H26.3964C28.4144 8.68469 30.0541 10.3243 30.0541 12.3424V19.4775C30.0541 20.7207 29.0361 21.7387 27.7928 21.7387H27.6577C27.4415 21.7387 27.2343 21.7117 27.0361 21.6487V34.4505C27.0451 34.9009 26.6847 35.2703 26.2252 35.2703ZM20.5496 33.6306H25.4144V19.4775C25.4144 19.027 25.7838 18.6577 26.2343 18.6577C26.6847 18.6577 27.0541 19.027 27.0541 19.4775C27.0541 19.8198 27.3334 20.0991 27.6757 20.0991H27.8108C28.1532 20.0991 28.4325 19.8198 28.4325 19.4775V12.3424C28.4325 11.2252 27.5225 10.3243 26.4144 10.3243H19.5676C18.4505 10.3243 17.5496 11.2342 17.5496 12.3424V19.4775C17.5496 19.8198 17.8288 20.0991 18.1712 20.0991H18.3063C18.6487 20.0991 18.9279 19.8198 18.9279 19.4775C18.9279 19.027 19.2973 18.6577 19.7478 18.6577C20.1982 18.6577 20.5676 19.027 20.5676 19.4775V33.6306H20.5496Z" fill="#3BA42A"/>
<path d="M19.7297 20.2973C19.2793 20.2973 18.9099 19.9279 18.9099 19.4775V14.6306C18.9099 14.1802 19.2793 13.8108 19.7297 13.8108C20.1802 13.8108 20.5496 14.1802 20.5496 14.6306V19.4775C20.5496 19.9279 20.1802 20.2973 19.7297 20.2973Z" fill="#3BA42A"/>
<path d="M26.2252 20.2973C25.7748 20.2973 25.4054 19.9279 25.4054 19.4775V14.6306C25.4054 14.1802 25.7748 13.8108 26.2252 13.8108C26.6757 13.8108 27.045 14.1802 27.045 14.6306V19.4775C27.045 19.9279 26.6847 20.2973 26.2252 20.2973Z" fill="#3BA42A"/>
<path d="M22.982 7.95496C20.8829 7.95496 19.1711 6.17118 19.1711 3.97298C19.1711 1.77478 20.8829 -0.00900269 22.982 -0.00900269C25.0811 -0.00900269 26.7928 1.77478 26.7928 3.97298C26.7838 6.17118 25.0811 7.95496 22.982 7.95496ZM22.982 1.63965C21.7838 1.63965 20.8198 2.68469 20.8198 3.98199C20.8198 5.27028 21.7928 6.32433 22.982 6.32433C24.1802 6.32433 25.1441 5.27929 25.1441 3.98199C25.1441 2.68469 24.1711 1.63965 22.982 1.63965Z" fill="#3BA42A"/>
<path d="M22.982 35.2703C22.5315 35.2703 22.1622 34.9009 22.1622 34.4505V23.4234C22.1622 22.973 22.5315 22.6036 22.982 22.6036C23.4324 22.6036 23.8018 22.973 23.8018 23.4234V34.4414C23.8018 34.9009 23.4324 35.2703 22.982 35.2703Z" fill="#3BA42A"/>
<path d="M35.964 32.7297C33.027 32.7297 30.6396 30.3424 30.6396 27.4054C30.6396 26.4505 30.9009 25.5045 31.3874 24.6937C31.6216 24.3063 32.1261 24.1802 32.5135 24.4054C32.9009 24.6397 33.027 25.1442 32.8018 25.5315C32.4685 26.0991 32.2883 26.7478 32.2883 27.4054C32.2883 29.4325 33.9369 31.0901 35.973 31.0901C38 31.0901 39.6577 29.4415 39.6577 27.4054C39.6577 26.955 40.027 26.5856 40.4775 26.5856C40.9279 26.5856 41.2973 26.955 41.2973 27.4054C41.2883 30.3424 38.9009 32.7297 35.964 32.7297Z" fill="#3BA42A"/>
<path d="M38.9459 24.8559C38.7568 24.8559 38.5586 24.7838 38.4054 24.6487C37.3243 23.6937 35.7117 23.4595 34.4144 24.0631C34.009 24.2523 33.5135 24.0721 33.3243 23.6667C33.1351 23.2523 33.3153 22.7658 33.7207 22.5766C35.5946 21.7027 37.9369 22.0361 39.4955 23.4144C39.8378 23.7117 39.8649 24.2343 39.5676 24.5676C39.3964 24.7568 39.1712 24.8559 38.9459 24.8559Z" fill="#3BA42A"/>
<path d="M37.6036 18.982C35.2072 18.982 33.2523 17.027 33.2523 14.6306C33.2523 12.2343 35.2072 10.2793 37.6036 10.2793C40 10.2793 41.955 12.2343 41.955 14.6306C41.955 15.0811 41.5856 15.4505 41.1351 15.4505C40.6847 15.4505 40.3153 15.0811 40.3153 14.6306C40.3153 13.1352 39.0991 11.9189 37.6036 11.9189C36.1081 11.9189 34.8919 13.1352 34.8919 14.6306C34.8919 16.1261 36.1081 17.3424 37.6036 17.3424C38.2252 17.3424 38.8108 17.1352 39.2973 16.7478C39.6487 16.4595 40.1622 16.5225 40.4505 16.8739C40.7297 17.2252 40.6757 17.7478 40.3243 18.027C39.5496 18.6397 38.5856 18.982 37.6036 18.982Z" fill="#3BA42A"/>
<path d="M34.0631 15.4415H32.7117C32.2613 15.4415 31.8919 15.0721 31.8919 14.6216C31.8919 14.1712 32.2613 13.8018 32.7117 13.8018H34.0631C34.5135 13.8018 34.8829 14.1712 34.8829 14.6216C34.8829 15.0811 34.5225 15.4415 34.0631 15.4415Z" fill="#3BA42A"/>
<path d="M36.5586 23.7658C36.5226 23.7658 36.4865 23.7658 36.4505 23.7568C36 23.6937 35.6847 23.2793 35.7478 22.8379L36.3964 18.027C36.4595 17.5766 36.8649 17.2613 37.3153 17.3243C37.7658 17.3874 38.0811 17.8018 38.018 18.2433L37.3694 23.0541C37.3153 23.4685 36.964 23.7658 36.5586 23.7658Z" fill="#3BA42A"/>
<path d="M31.4594 28.2252H29.2432C28.7928 28.2252 28.4234 27.8559 28.4234 27.4054C28.4234 26.955 28.7928 26.5856 29.2432 26.5856H31.4594C31.9099 26.5856 32.2793 26.955 32.2793 27.4054C32.2793 27.8559 31.9099 28.2252 31.4594 28.2252Z" fill="#3BA42A"/>
<path d="M9.99101 32.7298C7.05408 32.7298 4.66669 30.3424 4.66669 27.4054C4.66669 26.955 5.03606 26.5856 5.48651 26.5856C5.93696 26.5856 6.30633 26.955 6.30633 27.4054C6.30633 29.4325 7.95498 31.0901 9.99101 31.0901C12.027 31.0901 13.6757 29.4415 13.6757 27.4054C13.6757 26.7388 13.4955 26.0901 13.1622 25.5316C12.928 25.1442 13.0631 24.6397 13.4505 24.4054C13.8379 24.1712 14.3424 24.3063 14.5766 24.6937C15.0631 25.5135 15.3243 26.4505 15.3243 27.4054C15.3153 30.3424 12.928 32.7298 9.99101 32.7298Z" fill="#3BA42A"/>
<path d="M7.00898 24.8559C6.78376 24.8559 6.55853 24.7658 6.39637 24.5766C6.09907 24.2342 6.1261 23.7207 6.46844 23.4234C8.027 22.0451 10.3603 21.7117 12.2432 22.5856C12.6576 22.7748 12.8288 23.2613 12.6396 23.6757C12.4504 24.0901 11.9639 24.2613 11.5495 24.0721C10.2522 23.4685 8.63961 23.7027 7.55853 24.6577C7.39637 24.7838 7.20718 24.8559 7.00898 24.8559Z" fill="#3BA42A"/>
<path d="M8.35135 18.982C7.36937 18.982 6.3964 18.6397 5.63063 18.027C5.27928 17.7478 5.21622 17.2252 5.5045 16.8739C5.78378 16.5225 6.30631 16.4595 6.65766 16.7478C7.14414 17.1352 7.72973 17.3424 8.35135 17.3424C9.84685 17.3424 11.0631 16.1261 11.0631 14.6306C11.0631 13.1352 9.84685 11.9189 8.35135 11.9189C6.85586 11.9189 5.63964 13.1352 5.63964 14.6306C5.63964 15.0811 5.27027 15.4505 4.81982 15.4505C4.36937 15.4505 4 15.0811 4 14.6306C4 12.2343 5.95496 10.2793 8.35135 10.2793C10.7477 10.2793 12.7027 12.2343 12.7027 14.6306C12.7117 17.027 10.7568 18.982 8.35135 18.982Z" fill="#3BA42A"/>
<path d="M13.2342 15.4415H11.8829C11.4324 15.4415 11.063 15.0721 11.063 14.6216C11.063 14.1712 11.4324 13.8018 11.8829 13.8018H13.2342C13.6847 13.8018 14.054 14.1712 14.054 14.6216C14.054 15.0811 13.6937 15.4415 13.2342 15.4415Z" fill="#3BA42A"/>
<path d="M9.39638 23.7658C8.99098 23.7658 8.63963 23.4685 8.58557 23.0541L7.93692 18.2433C7.87386 17.7928 8.18918 17.3784 8.63963 17.3243C9.09008 17.2613 9.50449 17.5766 9.55855 18.027L10.2072 22.8379C10.2703 23.2883 9.95494 23.7027 9.50449 23.7568C9.46846 23.7568 9.43242 23.7658 9.39638 23.7658Z" fill="#3BA42A"/>
<path d="M16.7117 28.2252H14.4955C14.045 28.2252 13.6757 27.8559 13.6757 27.4054C13.6757 26.955 14.045 26.5856 14.4955 26.5856H16.7117C17.1621 26.5856 17.5315 26.955 17.5315 27.4054C17.5315 27.8559 17.1712 28.2252 16.7117 28.2252Z" fill="#3BA42A"/>
</svg>
